<svg width="74" height="62" viewBox="0 0 74 62" fill="none" xmlns="http://www.w3.org/2000/svg">
<path d="M26.2791 7.46599C27.3393 5.51019 28.908 3.87699 30.8195 2.73889C32.731 1.60078 34.9144 1 37.139 1C39.3637 1 41.5471 1.60078 43.4586 2.73889C45.3701 3.87699 46.9387 5.51019 47.9989 7.46599C49.2957 6.08926 50.9804 5.13925 52.8295 4.74194C54.6786 4.34463 56.6048 4.51879 58.3527 5.24132C60.1005 5.96386 61.5875 7.20063 62.6163 8.78764C63.6452 10.3746 64.1673 12.2369 64.1134 14.1274C64.0596 16.018 63.4324 17.8475 62.3149 19.3734C61.1974 20.8993 59.6425 22.0495 57.8564 22.6714C56.0702 23.2933 54.1373 23.3576 52.3137 22.8557C50.4902 22.3538 48.8624 21.3095 47.646 19.8612C46.5383 21.6509 44.9916 23.1279 43.1527 24.152C41.3139 25.1762 39.2438 25.7134 37.139 25.7129C35.0351 25.7132 32.966 25.1762 31.1279 24.1527C29.2897 23.1293 27.7434 21.6533 26.6356 19.8647C25.419 21.3125 23.791 22.3564 21.9676 22.8578C20.1442 23.3593 18.2114 23.2947 16.4256 22.6726C14.6397 22.0505 13.0851 20.9003 11.9678 19.3745C10.8506 17.8487 10.2235 16.0194 10.1697 14.129C10.1159 12.2387 10.6379 10.3766 11.6665 8.78973C12.6952 7.20284 14.1818 5.96608 15.9294 5.24341C17.677 4.52074 19.603 4.34631 21.452 4.74325C23.301 5.14018 24.9821 6.08972 26.2791 7.46599ZM28.5168 11.4895C28.8808 12.8721 28.9231 14.3197 28.6403 15.7212C29.1572 17.5794 30.2685 19.2171 31.8042 20.3839C33.34 21.5507 35.2156 22.1824 37.1443 22.1824C39.073 22.1824 40.9487 21.5507 42.4844 20.3839C44.0201 19.2171 45.1314 17.5794 45.6484 15.7212C45.3651 14.3188 45.4062 12.8701 45.7684 11.4859C45.3405 9.51631 44.2514 7.75243 42.6822 6.48749C41.113 5.22255 39.1581 4.53275 37.1426 4.53275C35.127 4.53275 33.1721 5.22255 31.6029 6.48749C30.0337 7.75243 28.9446 9.51984 28.5168 11.4895ZM24.8956 11.7401C24.3972 10.4695 23.4666 9.41544 22.2676 8.76342C21.0686 8.1114 19.678 7.90319 18.3406 8.17544C17.0032 8.4477 15.8047 9.18296 14.956 10.2518C14.1073 11.3207 13.6628 12.6547 13.7008 14.019C13.7388 15.3833 14.2567 16.6905 15.1636 17.7105C16.0704 18.7305 17.3079 19.398 18.6584 19.5954C20.0089 19.7929 21.3857 19.5077 22.5466 18.79C23.7075 18.0723 24.578 16.9681 25.005 15.6718C24.7588 14.3755 24.7219 13.0481 24.8956 11.7401ZM49.2801 15.6683C49.7067 16.9659 50.5774 18.0714 51.7389 18.7902C52.9004 19.5089 54.2783 19.7949 55.6299 19.5977C56.9815 19.4005 58.2202 18.7327 59.128 17.712C60.0357 16.6913 60.5542 15.3831 60.5922 14.0177C60.6302 12.6523 60.1854 11.3173 59.3359 10.2476C58.4864 9.17799 57.2867 8.44234 55.9482 8.17019C54.6097 7.89805 53.218 8.10687 52.0183 8.75987C50.8186 9.41288 49.8877 10.4682 49.3895 11.7401C49.5629 13.0469 49.5259 14.3731 49.2801 15.6683ZM12.2604 24.9964C13.4851 24.6717 14.6428 25.0741 15.4404 25.6529C15.758 25.8823 16.1957 26.1646 16.7286 26.4223C17.1366 26.6337 17.4461 26.9959 17.5912 27.4319C17.7363 27.8679 17.7056 28.3433 17.5056 28.7571C17.3056 29.1708 16.9522 29.4902 16.5204 29.6474C16.0886 29.8046 15.6125 29.7871 15.1933 29.5987C14.5542 29.291 13.9436 28.9272 13.3687 28.5117C13.3114 28.4708 13.2483 28.4386 13.1816 28.4164L13.1569 28.4129C12.681 28.5399 12.209 28.6811 11.7416 28.8364L9.32045 29.627C8.41757 29.9209 7.60149 30.4338 6.94501 31.1198C6.28853 31.8059 5.81207 32.6437 5.55814 33.5587L4.55932 40.7904C4.36168 42.2127 5.11343 43.2786 6.18284 43.5327C6.97106 43.7257 7.92753 43.9139 9.05222 44.0974C9.28118 44.1345 9.5006 44.2163 9.69794 44.3382C9.89529 44.4601 10.0667 44.6196 10.2024 44.8077C10.3381 44.9959 10.4354 45.2089 10.4887 45.4346C10.5421 45.6603 10.5505 45.8943 10.5134 46.1233C10.4763 46.3522 10.3945 46.5717 10.2726 46.769C10.1507 46.9664 9.99119 47.1378 9.80307 47.2734C9.61495 47.4091 9.40195 47.5064 9.17623 47.5598C8.9505 47.6131 8.71648 47.6215 8.48752 47.5844C7.44016 47.4177 6.39944 47.2117 5.36755 46.9668C2.20875 46.215 0.662886 43.1904 1.06171 40.3069L2.09228 32.874L2.11346 32.7787C2.49997 31.2675 3.26249 29.8786 4.33005 28.7413C5.39761 27.604 6.73553 26.7553 8.21929 26.2741L10.6369 25.4799C11.1781 25.3035 11.7193 25.1423 12.2604 24.9964ZM62.48 24.9964C61.935 24.863 61.3671 24.8527 60.8177 24.9663C60.2682 25.0798 59.751 25.3144 59.3035 25.6529C58.9859 25.8823 58.5482 26.1646 58.0153 26.4223C57.6073 26.6337 57.2979 26.9959 57.1528 27.4319C57.0077 27.8679 57.0384 28.3433 57.2383 28.7571C57.4383 29.1708 57.7918 29.4902 58.2236 29.6474C58.6554 29.8046 59.1315 29.7871 59.5506 29.5987C60.1898 29.291 60.8004 28.9272 61.3753 28.5117C61.4325 28.4708 61.4956 28.4386 61.5623 28.4164L61.58 28.4129H61.587C62.0647 28.5376 62.5364 28.6787 63.0023 28.8364L65.4235 29.627C67.2799 30.2375 68.6881 31.7234 69.1858 33.5587L70.1846 40.7904C70.3823 42.2127 69.634 43.2786 68.5611 43.5327C67.6121 43.7569 66.6549 43.9453 65.6917 44.0974C65.2293 44.1723 64.8156 44.4278 64.5416 44.8077C64.2675 45.1877 64.1557 45.6609 64.2305 46.1233C64.3054 46.5857 64.5609 46.9994 64.9409 47.2734C65.3208 47.5475 65.794 47.6593 66.2564 47.5844C67.4611 47.3845 68.5011 47.1786 69.3764 46.9668C72.5352 46.215 74.081 43.1904 73.6822 40.3069L72.6516 32.874L72.6305 32.7787C72.244 31.2675 71.4814 29.8786 70.4139 28.7413C69.3463 27.604 68.0084 26.7553 66.5246 26.2741L64.107 25.4799C63.5702 25.3044 63.0253 25.1431 62.48 24.9964Z" fill="#003C43" stroke="white" stroke-width="0.4"/>
<path d="M43.4604 30.7248C44.7274 29.8848 46.4956 29.2778 48.3203 29.7895C48.8709 29.9448 49.4203 30.1131 49.9686 30.2942L53.3532 31.406C55.3172 32.0437 57.088 33.1676 58.501 34.6732C59.9141 36.1788 60.9235 38.0173 61.4355 40.0177L61.4602 40.113L62.8931 50.4752C63.412 54.2164 61.4108 58.0634 57.4085 59.0163C53.3497 59.9834 46.778 61.0069 37.1393 61.0069C27.5041 61.0069 20.9288 59.9834 16.87 59.0163C12.8677 58.0634 10.8666 54.2164 11.3854 50.4752L12.8183 40.113L12.843 40.0177C13.355 38.0173 14.3644 36.1788 15.7775 34.6732C17.1906 33.1676 18.9614 32.0437 20.9253 31.406L24.3135 30.2942C24.8594 30.1131 25.4076 29.9448 25.9582 29.7895C27.7829 29.2742 29.5511 29.8848 30.8181 30.7248C32.1699 31.6213 34.3934 32.7224 37.1393 32.7224C39.8851 32.7224 42.1122 31.6213 43.4604 30.7248ZM47.3603 33.1848C46.8592 33.0436 46.1604 33.1707 45.4121 33.6648C43.7286 34.7836 40.8239 36.2518 37.1393 36.2518C33.4546 36.2518 30.5499 34.7836 28.8664 33.6648C28.1217 33.1707 27.4193 33.0436 26.9182 33.1848C26.4123 33.326 25.9111 33.4789 25.4147 33.6436L22.0265 34.7589C20.6439 35.2091 19.3952 35.9966 18.3933 37.0503C17.3913 38.104 16.6677 39.3907 16.2877 40.7941L14.8795 50.9588C14.5618 53.2423 15.7724 55.1234 17.6888 55.5822C21.4547 56.4822 27.7546 57.4775 37.1393 57.4775C46.5239 57.4775 52.8238 56.4822 56.5897 55.5822C58.5061 55.1234 59.7132 53.2423 59.3991 50.9588L57.9908 40.7941C57.6108 39.3907 56.8872 38.104 55.8852 37.0503C54.8833 35.9966 53.6346 35.2091 52.2521 34.7589L48.8639 33.6471C48.3674 33.4824 47.8662 33.3295 47.3603 33.1883" fill="#CABBCE"/>
<path d="M47.3603 33.1848C46.8592 33.0436 46.1604 33.1707 45.4121 33.6648C43.7286 34.7836 40.8239 36.2518 37.1393 36.2518C33.4546 36.2518 30.5499 34.7836 28.8664 33.6648C28.1217 33.1707 27.4193 33.0436 26.9182 33.1848C26.4123 33.326 25.9111 33.4789 25.4147 33.6436L22.0265 34.7589C20.6439 35.2091 19.3952 35.9966 18.3933 37.0503C17.3913 38.104 16.6677 39.3907 16.2877 40.7941L14.8795 50.9588C14.5618 53.2423 15.7724 55.1234 17.6888 55.5822C21.4547 56.4822 27.7546 57.4775 37.1393 57.4775C46.5239 57.4775 52.8238 56.4822 56.5897 55.5822C58.5061 55.1234 59.7132 53.2423 59.3991 50.9588L57.9908 40.7941C57.6108 39.3907 56.8872 38.104 55.8852 37.0503C54.8833 35.9966 53.6346 35.2091 52.2521 34.7589L48.8639 33.6471C48.3674 33.4824 47.8662 33.3295 47.3603 33.1883M43.4604 30.7248C44.7274 29.8848 46.4956 29.2778 48.3203 29.7895C48.8709 29.9448 49.4203 30.1131 49.9686 30.2942L53.3532 31.406C55.3172 32.0437 57.088 33.1676 58.501 34.6732C59.9141 36.1788 60.9235 38.0173 61.4355 40.0177L61.4602 40.113L62.8931 50.4752C63.412 54.2164 61.4108 58.0634 57.4085 59.0163C53.3497 59.9834 46.778 61.0069 37.1393 61.0069C27.5041 61.0069 20.9288 59.9834 16.87 59.0163C12.8677 58.0634 10.8666 54.2164 11.3854 50.4752L12.8183 40.113L12.843 40.0177C13.355 38.0173 14.3644 36.1788 15.7775 34.6732C17.1906 33.1676 18.9614 32.0437 20.9253 31.406L24.3135 30.2942C24.8594 30.1131 25.4076 29.9448 25.9582 29.7895C27.7829 29.2742 29.5511 29.8848 30.8181 30.7248C32.1699 31.6213 34.3934 32.7224 37.1393 32.7224C39.8851 32.7224 42.1122 31.6213 43.4604 30.7248Z" stroke="white" stroke-width="0.4"/>
</svg>
