<svg width="30" height="30" viewBox="0 0 30 30" fill="none" xmlns="http://www.w3.org/2000/svg">
<path d="M23.75 13.75V12.5C23.75 7.78625 23.75 5.42875 22.285 3.965C20.82 2.50125 18.4637 2.5 13.75 2.5C9.03625 2.5 6.67875 2.5 5.215 3.965C3.75125 5.43 3.75 7.78625 3.75 12.5V17.5C3.75 22.2138 3.75 24.5713 5.215 26.035C6.68 27.4988 9.03625 27.5 13.75 27.5" stroke="#CABBCE" stroke-width="1.6" stroke-linecap="round" stroke-linejoin="round"/>
<path d="M26.25 27.5L24.1075 25.3575M8.75 8.75H18.75M8.75 13.75H13.75M24.8213 21.7862C24.831 22.3552 24.7273 22.9204 24.5163 23.4489C24.3053 23.9773 23.9912 24.4585 23.5922 24.8643C23.1933 25.2701 22.7176 25.5924 22.1928 25.8124C21.668 26.0324 21.1047 26.1457 20.5356 26.1457C19.9666 26.1457 19.4032 26.0324 18.8785 25.8124C18.3537 25.5924 17.8779 25.2701 17.479 24.8643C17.0801 24.4585 16.766 23.9773 16.555 23.4489C16.344 22.9204 16.2403 22.3552 16.25 21.7862C16.2692 20.6623 16.7292 19.5909 17.5308 18.8028C18.3324 18.0148 19.4115 17.5732 20.5356 17.5732C21.6597 17.5732 22.7389 18.0148 23.5405 18.8028C24.3421 19.5909 24.8021 20.6623 24.8213 21.7862Z" stroke="#003C43" stroke-width="1.6" stroke-linecap="round" stroke-linejoin="round"/>
</svg>
