<svg width="39" height="39" viewBox="0 0 39 39" fill="none" xmlns="http://www.w3.org/2000/svg">
<path d="M1.05629 21.0459C1.33834 24.5902 2.63188 27.9791 4.78324 30.8098C6.9346 33.6406 9.85334 35.7943 13.1927 37.0151C16.5321 38.2359 20.1517 38.4724 23.6215 37.6966C27.0913 36.9208 30.2655 35.1652 32.767 32.6385C35.2685 30.1118 36.992 26.9201 37.7329 23.4426C38.4738 19.9652 38.2009 16.3481 36.9467 13.0212C35.6924 9.69428 33.5094 6.79733 30.6572 4.67453C27.8049 2.55173 24.4032 1.29231 20.8563 1.0459" stroke="#003C43" stroke-width="1.6" stroke-linecap="round" stroke-linejoin="round"/>
<path d="M11.5991 22.6857C12.1151 24.0137 12.9539 25.1921 14.0398 26.1145C15.1256 27.0368 16.4243 27.6739 17.8182 27.9682C19.2122 28.2624 20.6575 28.2046 22.0235 27.7999C23.3895 27.3952 24.6331 26.6564 25.6418 25.6503C26.6505 24.6442 27.3926 23.4025 27.8008 22.0375C28.209 20.6726 28.2705 19.2274 27.9798 17.8327C27.6891 16.438 27.0554 15.1377 26.1359 14.0495C25.2163 12.9612 24.0401 12.1194 22.7134 11.6M19.5706 19.5714L12.4277 12.4286M12.4277 12.4286L6.71341 13.8571L0.999124 8.14286L6.71341 6.71429L8.14198 1L13.8563 6.71429L12.4277 12.4286Z" stroke="#CABBCE" stroke-width="1.6" stroke-linecap="round" stroke-linejoin="round"/>
</svg>
