<svg width="40" height="40" viewBox="0 0 40 40" fill="none" xmlns="http://www.w3.org/2000/svg">
<path d="M3.33203 23.3333C3.33203 17.0483 3.33203 13.905 5.28536 11.9533C7.2387 10.0017 10.3804 10 16.6654 10H23.332C29.617 10 32.7604 10 34.712 11.9533C36.6637 13.9067 36.6654 17.0483 36.6654 23.3333C36.6654 29.6183 36.6654 32.7617 34.712 34.7133C32.7587 36.665 29.617 36.6667 23.332 36.6667H16.6654C10.3804 36.6667 7.23703 36.6667 5.28536 34.7133C3.3337 32.76 3.33203 29.6183 3.33203 23.3333Z" stroke="#003C43" stroke-width="1.6"/>
<path d="M26.6654 9.99967C26.6654 6.85634 26.6654 5.28634 25.6887 4.30967C24.712 3.33301 23.142 3.33301 19.9987 3.33301C16.8554 3.33301 15.2854 3.33301 14.3087 4.30967C13.332 5.28634 13.332 6.85634 13.332 9.99967" stroke="#003C43" stroke-width="1.6"/>
<path d="M28.3327 14.9997C28.3327 15.4417 28.1571 15.8656 27.8445 16.1782C27.532 16.4907 27.108 16.6663 26.666 16.6663C26.224 16.6663 25.8001 16.4907 25.4875 16.1782C25.1749 15.8656 24.9993 15.4417 24.9993 14.9997C24.9993 14.5576 25.1749 14.1337 25.4875 13.8212C25.8001 13.5086 26.224 13.333 26.666 13.333C27.108 13.333 27.532 13.5086 27.8445 13.8212C28.1571 14.1337 28.3327 14.5576 28.3327 14.9997ZM14.9993 14.9997C14.9993 15.4417 14.8238 15.8656 14.5112 16.1782C14.1986 16.4907 13.7747 16.6663 13.3327 16.6663C12.8907 16.6663 12.4667 16.4907 12.1542 16.1782C11.8416 15.8656 11.666 15.4417 11.666 14.9997C11.666 14.5576 11.8416 14.1337 12.1542 13.8212C12.4667 13.5086 12.8907 13.333 13.3327 13.333C13.7747 13.333 14.1986 13.5086 14.5112 13.8212C14.8238 14.1337 14.9993 14.5576 14.9993 14.9997Z" fill="#CABBCE"/>
<circle cx="31.6654" cy="31.1663" r="8.33333" fill="#F8F7F4"/>
<g clip-path="url(#clip0_279_1032)">
<path d="M35.8474 30.904L36.6666 31.6335C36.8179 31.7598 36.919 31.936 36.9516 32.1304C36.9841 32.3247 36.9461 32.5243 36.8442 32.6929L35.8564 34.3804C35.7798 34.5096 35.6704 34.6162 35.5392 34.6894C35.4066 34.7628 35.2576 34.8018 35.1061 34.8027C35.012 34.8033 34.9185 34.7892 34.8287 34.761L33.7802 34.4148C33.5965 34.5326 33.4056 34.6381 33.2075 34.7311L32.9872 35.7941C32.9465 35.9897 32.8376 36.1644 32.68 36.2871C32.5204 36.4121 32.3226 36.478 32.12 36.4738H30.0746C29.8719 36.478 29.6741 36.4121 29.5145 36.2871C29.3572 36.1642 29.2487 35.9896 29.2082 35.7941L28.9871 34.7311C28.7915 34.6368 28.6017 34.5309 28.4188 34.4139L27.3667 34.761C27.277 34.7892 27.1834 34.8033 27.0894 34.8027C26.9381 34.8016 26.7895 34.7627 26.6571 34.6894C26.5261 34.6164 26.4167 34.5101 26.3399 34.3813L25.3167 32.6929C25.2104 32.5227 25.1697 32.3196 25.2024 32.1215C25.2351 31.9235 25.3389 31.7442 25.4944 31.6172L26.3127 30.5832V30.2624L25.4935 29.5329C25.3422 29.4066 25.2411 29.2304 25.2085 29.036C25.1759 28.8417 25.214 28.6421 25.3158 28.4734L26.339 26.786C26.4156 26.6568 26.5251 26.5502 26.6562 26.477C26.7886 26.4037 26.9372 26.3648 27.0885 26.3637C27.1816 26.3578 27.2752 26.3664 27.3658 26.3891L28.3971 26.7516C28.5814 26.6338 28.7723 26.5283 28.9698 26.4353L29.191 25.3723C29.2315 25.1768 29.34 25.0021 29.4973 24.8793C29.6569 24.7543 29.8547 24.6884 30.0573 24.6926H32.0855C32.2881 24.6884 32.486 24.7543 32.6456 24.8793C32.8042 25.0034 32.9129 25.1783 32.9519 25.3723L33.173 26.4353C33.3694 26.5289 33.5588 26.6347 33.7412 26.7525L34.7943 26.4063C34.9112 26.3683 35.0347 26.3549 35.157 26.3671C35.2793 26.3793 35.3977 26.4167 35.5048 26.477C35.6362 26.5513 35.745 26.6582 35.822 26.7851L36.8442 28.4734C36.952 28.6422 36.9947 28.8444 36.9644 29.0424C36.934 29.2403 36.8327 29.4205 36.6793 29.5492L35.8474 30.2579V30.904Z" stroke="#CABBCE" stroke-width="1.4"/>
<path d="M33.3477 30.583C33.3477 31.1839 33.109 31.7602 32.6841 32.185C32.2592 32.6099 31.6829 32.8486 31.082 32.8486C30.4812 32.8486 29.9049 32.6099 29.48 32.185C29.0551 31.7602 28.8164 31.1839 28.8164 30.583C28.8164 29.9821 29.0551 29.4059 29.48 28.981C29.9049 28.5561 30.4812 28.3174 31.082 28.3174C31.6829 28.3174 32.2592 28.5561 32.6841 28.981C33.109 29.4059 33.3477 29.9821 33.3477 30.583Z" stroke="#CABBCE" stroke-width="1.4"/>
</g>
<defs>
<clipPath id="clip0_279_1032">
<rect width="14.5" height="14.5" fill="white" transform="translate(23.832 23.333)"/>
</clipPath>
</defs>
</svg>
