<svg width="40" height="40" viewBox="0 0 40 40" fill="none" xmlns="http://www.w3.org/2000/svg">
<path d="M14.4716 8.23299C15.0017 7.25509 15.786 6.4385 16.7418 5.86944C17.6975 5.30039 18.7892 5 19.9015 5C21.0139 5 22.1056 5.30039 23.0613 5.86944C24.0171 6.4385 24.8014 7.25509 25.3315 8.23299C25.9799 7.54463 26.8222 7.06962 27.7468 6.87097C28.6713 6.67231 29.6344 6.75939 30.5084 7.12066C31.3823 7.48193 32.1258 8.10032 32.6402 8.89382C33.1546 9.68732 33.4157 10.6184 33.3888 11.5637C33.3618 12.509 33.0482 13.4238 32.4895 14.1867C31.9308 14.9497 31.1533 15.5247 30.2602 15.8357C29.3672 16.1466 28.4007 16.1788 27.4889 15.9278C26.5772 15.6769 25.7632 15.1547 25.155 14.4306C24.6012 15.3255 23.8278 16.064 22.9084 16.576C21.989 17.0881 20.954 17.3567 19.9015 17.3564C18.8496 17.3566 17.8151 17.0881 16.896 16.5764C15.9769 16.0646 15.2038 15.3266 14.6498 14.4323C14.0415 15.1563 13.2276 15.6782 12.3158 15.9289C11.4041 16.1796 10.4378 16.1474 9.54482 15.8363C8.65188 15.5253 7.87458 14.9502 7.31596 14.1873C6.75733 13.4244 6.44379 12.5097 6.41688 11.5645C6.38998 10.6193 6.65099 9.68831 7.1653 8.89487C7.67962 8.10142 8.42296 7.48304 9.29675 7.12171C10.1705 6.76037 11.1335 6.67316 12.058 6.87162C12.9825 7.07009 13.8231 7.54486 14.4716 8.23299ZM15.5904 10.2447C15.7724 10.936 15.7936 11.6599 15.6522 12.3606C15.9106 13.2897 16.4663 14.1085 17.2342 14.6919C18.002 15.2754 18.9398 15.5912 19.9042 15.5912C20.8686 15.5912 21.8064 15.2754 22.5742 14.6919C23.3421 14.1085 23.8978 13.2897 24.1562 12.3606C24.0146 11.6594 24.0351 10.9351 24.2162 10.243C24.0023 9.25816 23.4578 8.37621 22.6731 7.74375C21.8885 7.11128 20.9111 6.76638 19.9033 6.76638C18.8955 6.76638 17.9181 7.11128 17.1335 7.74375C16.3489 8.37621 15.8043 9.25992 15.5904 10.2447ZM13.7798 10.37C13.5306 9.73475 13.0653 9.20772 12.4658 8.88171C11.8663 8.5557 11.171 8.4516 10.5023 8.58772C9.83363 8.72385 9.23438 9.09148 8.81003 9.62592C8.38568 10.1604 8.16345 10.8273 8.18243 11.5095C8.20141 12.1916 8.4604 12.8452 8.91381 13.3552C9.36722 13.8653 9.98599 14.199 10.6612 14.2977C11.3365 14.3964 12.0249 14.2538 12.6053 13.895C13.1858 13.5361 13.6211 12.9841 13.8345 12.3359C13.7114 11.6877 13.693 11.024 13.7798 10.37ZM25.9721 12.3341C26.1854 12.9829 26.6207 13.5357 27.2015 13.8951C27.7823 14.2545 28.4712 14.3974 29.147 14.2988C29.8228 14.2002 30.4422 13.8664 30.896 13.356C31.3499 12.8457 31.6091 12.1916 31.6281 11.5089C31.6472 10.8262 31.4247 10.1586 31 9.62381C30.5752 9.08899 29.9754 8.72117 29.3061 8.5851C28.6369 8.44903 27.941 8.55343 27.3412 8.87994C26.7413 9.20644 26.2759 9.73411 26.0268 10.37C26.1135 11.0235 26.095 11.6865 25.9721 12.3341ZM7.46225 16.9982C8.07459 16.8359 8.65341 17.037 9.05223 17.3264C9.21105 17.4411 9.42988 17.5823 9.69634 17.7111C9.90034 17.8168 10.0551 17.998 10.1276 18.216C10.2002 18.434 10.1848 18.6717 10.0848 18.8785C9.98484 19.0854 9.80811 19.2451 9.59221 19.3237C9.37631 19.4023 9.13827 19.3935 8.9287 19.2994C8.60912 19.1455 8.30381 18.9636 8.01636 18.7558C7.98773 18.7354 7.95621 18.7193 7.92283 18.7082L7.91048 18.7064C7.67254 18.7699 7.43655 18.8406 7.20284 18.9182L5.99226 19.3135C5.54082 19.4605 5.13278 19.7169 4.80454 20.0599C4.4763 20.4029 4.23807 20.8219 4.1111 21.2793L3.61169 24.8952C3.51287 25.6064 3.88875 26.1393 4.42345 26.2664C4.81756 26.3628 5.29579 26.4569 5.85814 26.5487C5.97262 26.5672 6.08233 26.6082 6.181 26.6691C6.27968 26.73 6.36538 26.8098 6.43322 26.9039C6.50106 26.9979 6.54971 27.1044 6.57639 27.2173C6.60307 27.3301 6.60726 27.4472 6.58872 27.5616C6.57018 27.6761 6.52928 27.7858 6.46834 27.8845C6.4074 27.9832 6.32763 28.0689 6.23357 28.1367C6.13951 28.2046 6.03301 28.2532 5.92015 28.2799C5.80728 28.3066 5.69027 28.3108 5.57579 28.2922C5.05211 28.2089 4.53175 28.1058 4.01581 27.9834C2.43641 27.6075 1.66347 26.0952 1.86288 24.6534L2.37817 20.937L2.38876 20.8893C2.58202 20.1337 2.96327 19.4393 3.49706 18.8707C4.03084 18.302 4.69979 17.8776 5.44168 17.637L6.65049 17.24C6.92107 17.1517 7.19166 17.0711 7.46225 16.9982ZM32.572 16.9982C32.2995 16.9315 32.0156 16.9263 31.7409 16.9831C31.4661 17.0399 31.2075 17.1572 30.9838 17.3264C30.825 17.4411 30.6062 17.5823 30.3397 17.7111C30.1357 17.8168 29.981 17.998 29.9084 18.216C29.8359 18.434 29.8512 18.6717 29.9512 18.8785C30.0512 19.0854 30.2279 19.2451 30.4438 19.3237C30.6597 19.4023 30.8978 19.3935 31.1073 19.2994C31.4269 19.1455 31.7322 18.9636 32.0197 18.7558C32.0483 18.7354 32.0798 18.7193 32.1132 18.7082L32.122 18.7064H32.1256C32.3644 18.7688 32.6003 18.8394 32.8332 18.9182L34.0438 19.3135C34.972 19.6188 35.6761 20.3617 35.9249 21.2793L36.4243 24.8952C36.5232 25.6064 36.149 26.1393 35.6126 26.2664C35.1381 26.3785 34.6595 26.4726 34.1779 26.5487C33.9467 26.5862 33.7398 26.7139 33.6028 26.9039C33.4658 27.0938 33.4099 27.3304 33.4473 27.5616C33.4848 27.7928 33.6125 27.9997 33.8025 28.1367C33.9924 28.2737 34.229 28.3297 34.4602 28.2922C35.0626 28.1922 35.5826 28.0893 36.0202 27.9834C37.5996 27.6075 38.3726 26.0952 38.1731 24.6534L37.6579 20.937L37.6473 20.8893C37.454 20.1337 37.0728 19.4393 36.539 18.8707C36.0052 18.302 35.3362 17.8776 34.5944 17.637L33.3855 17.24C33.1172 17.1522 32.8447 17.0716 32.572 16.9982Z" fill="#003C43"/>
<path d="M23.0622 19.8622C23.6957 19.4422 24.5799 19.1386 25.4922 19.3945C25.7675 19.4722 26.0422 19.5563 26.3163 19.6469L28.0086 20.2027C28.9906 20.5216 29.876 21.0835 30.5825 21.8364C31.2891 22.5892 31.7938 23.5084 32.0498 24.5086L32.0621 24.5562L32.7786 29.7374C33.038 31.6079 32.0374 33.5315 30.0363 34.0079C28.0069 34.4914 24.721 35.0032 19.9017 35.0032C15.0841 35.0032 11.7964 34.4914 9.76705 34.0079C7.76589 33.5315 6.76531 31.6079 7.02472 29.7374L7.74118 24.5562L7.75354 24.5086C8.00952 23.5084 8.51424 22.5892 9.22078 21.8364C9.92731 21.0835 10.8127 20.5216 11.7947 20.2027L13.4888 19.6469C13.7617 19.5563 14.0358 19.4722 14.3111 19.3945C15.2235 19.1369 16.1076 19.4422 16.7411 19.8622C17.417 20.3104 18.5287 20.861 19.9017 20.861C21.2746 20.861 22.3881 20.3104 23.0622 19.8622ZM25.0122 21.0922C24.7616 21.0216 24.4122 21.0851 24.0381 21.3322C23.1963 21.8916 21.744 22.6257 19.9017 22.6257C18.0593 22.6257 16.607 21.8916 15.7652 21.3322C15.3929 21.0851 15.0417 21.0216 14.7911 21.0922C14.5382 21.1627 14.2876 21.2392 14.0394 21.3216L12.3453 21.8792C11.654 22.1043 11.0296 22.498 10.5287 23.0249C10.0277 23.5517 9.66588 24.1951 9.47587 24.8968L8.77176 29.9791C8.61294 31.1209 9.21823 32.0615 10.1765 32.2909C12.0594 32.7409 15.2094 33.2385 19.9017 33.2385C24.594 33.2385 27.7439 32.7409 29.6269 32.2909C30.5851 32.0615 31.1886 31.1209 31.0316 29.9791L30.3274 24.8968C30.1374 24.1951 29.7756 23.5517 29.2746 23.0249C28.7737 22.498 28.1494 22.1043 27.4581 21.8792L25.764 21.3233C25.5157 21.241 25.2651 21.1645 25.0122 21.0939" fill="#CABBCE"/>
</svg>
