<svg width="60" height="71" viewBox="0 0 60 71" fill="none" xmlns="http://www.w3.org/2000/svg">
<path d="M34.3572 54.3165C36.9572 55.2331 38.8739 57.4331 40.2072 59.7665C41.3739 58.5331 42.6739 57.3165 44.3405 56.7998V56.5665C42.0739 54.3498 41.7905 50.7165 43.7905 48.2165C48.6072 42.1998 58.1572 48.4998 53.9239 55.5331C53.7405 55.8165 52.9739 56.6331 53.0739 56.7831C57.0572 58.2331 60.1739 62.8998 59.9405 67.1665C59.8239 69.1998 58.4739 70.6498 56.4239 70.8331C51.4405 71.2665 45.8739 70.4998 40.8239 70.8331C39.4072 70.6498 38.1905 69.6498 37.6905 68.3331L22.2072 68.3665C21.8239 69.6665 20.6072 70.5998 19.2905 70.8165C14.2072 70.5165 8.57388 71.2665 3.54055 70.8331C1.59055 70.6665 0.17388 69.2665 0.0238799 67.3165C-0.309453 63.0331 2.89055 58.2331 6.89055 56.7831V56.5498C4.67388 54.3831 4.34055 50.7498 6.27388 48.2831C11.1239 42.0498 20.9905 48.5998 16.2905 55.7998C16.1239 56.0498 15.5072 56.5831 15.6239 56.7831C17.2739 57.3331 18.5905 58.4998 19.7572 59.7498C21.1072 57.4165 22.9905 55.1831 25.6072 54.2998V54.0665C23.3905 51.8998 23.0739 48.2665 24.9905 45.7998C29.8572 39.5498 39.8072 46.1831 34.9405 53.4165C34.7905 53.6498 34.2072 54.0998 34.3405 54.2998L34.3572 54.3165ZM29.8072 45.9331C24.0572 46.2498 26.0072 55.3331 31.5572 52.9998C35.2405 51.4498 33.8572 45.7165 29.8072 45.9331ZM11.0905 48.4331C5.34055 48.7498 7.29055 57.8331 12.8405 55.4998C16.5239 53.9498 15.1405 48.2165 11.0905 48.4331ZM48.5239 48.4331C42.7739 48.7498 44.7239 57.8331 50.2739 55.4998C53.9572 53.9498 52.5739 48.2165 48.5239 48.4331ZM37.4739 65.8498C37.4572 64.8498 38.3739 63.3498 38.4239 62.4998C38.4405 61.9998 37.9239 60.9331 37.6739 60.4665C34.6739 54.9165 26.9072 54.2998 23.0739 59.3331C22.5739 59.9831 21.6905 61.4498 21.6072 62.2498C21.5239 63.0498 22.4905 64.9498 22.6072 65.8831H37.4739V65.8498ZM17.4739 60.9331C12.8572 56.3165 4.72388 58.3498 2.95721 64.6165C2.57388 65.9831 1.95721 68.3165 4.04055 68.3665C8.72388 68.0331 13.9405 68.7831 18.5572 68.3665C20.6572 68.1831 20.0572 66.0998 19.6405 64.6165C19.2739 63.3331 18.4239 61.8665 17.4905 60.9331H17.4739ZM54.8905 60.9331C50.2739 56.3165 42.1405 58.3498 40.3739 64.6165C39.9905 65.9831 39.3739 68.3165 41.4572 68.3665C46.1405 68.0331 51.3572 68.7831 55.9739 68.3665C58.0739 68.1831 57.4739 66.0998 57.0572 64.6165C56.6905 63.3331 55.8405 61.8665 54.9072 60.9331H54.8905Z" fill="#003C43"/>
<path d="M29.8301 1.18958C30.5259 1.18801 31.2163 1.20426 31.6787 1.23254L32.0576 1.26477H32.0586C32.5637 1.32558 32.9059 1.4992 33.1455 1.73254C33.3881 1.96882 33.546 2.2863 33.6475 2.66516C33.7492 3.04519 33.7899 3.47369 33.8086 3.91809C33.8179 4.13943 33.8218 4.36179 33.8252 4.58215C33.8286 4.80122 33.8323 5.01957 33.8408 5.22766L33.8477 5.41125L34.0225 5.46985C34.8777 5.75493 35.7138 6.01616 36.5342 6.36047V6.36145C36.7043 6.43548 36.9786 6.60558 37.2656 6.7804C37.4037 6.86447 37.5426 6.94786 37.6621 7.01379C37.7673 7.07183 37.8908 7.13451 37.9922 7.15833V7.1593C37.9951 7.16003 37.9981 7.16058 38.001 7.16125V7.16028C38.1251 7.18898 38.244 7.16696 38.3428 7.13098C38.4444 7.09392 38.5431 7.03622 38.6338 6.9718C38.8147 6.84335 39.0026 6.663 39.1777 6.48157C39.3526 6.30036 39.5313 6.09948 39.6816 5.93762C39.8405 5.7665 39.9627 5.64267 40.0469 5.58118C40.3526 5.36194 40.6106 5.23812 40.8721 5.18372C41.1328 5.12957 41.4203 5.14041 41.7939 5.22571C41.8617 5.24246 41.9764 5.29532 42.1377 5.39661C42.2942 5.49488 42.4776 5.62776 42.6787 5.78821C43.081 6.1091 43.5425 6.52894 43.9854 6.9718C44.4282 7.41465 44.8481 7.8762 45.1689 8.27844C45.3294 8.47959 45.4623 8.66295 45.5605 8.81946C45.6604 8.97857 45.713 9.09216 45.7305 9.16028V9.16125C45.8342 9.60297 45.8179 9.93938 45.7363 10.2159C45.6541 10.4945 45.4994 10.7333 45.293 10.9708C45.0807 11.2151 44.836 11.4348 44.5645 11.7042C44.3003 11.9663 44.0265 12.262 43.7979 12.6251L43.7246 12.7413L43.7764 12.8683L45.4102 16.8517L45.4512 16.9503L45.5488 16.9943C46.0463 17.2143 46.5818 17.1993 47.0605 17.1808C47.5596 17.1615 48.005 17.1374 48.4268 17.2706C48.6783 17.3501 48.9716 17.5697 49.2197 17.8624C49.4676 18.1549 49.6367 18.4809 49.6768 18.7404V18.7423C49.7395 19.1346 49.7697 19.9888 49.7676 20.8702C49.7655 21.7492 49.7315 22.6172 49.6758 23.0314V23.0353C49.615 23.5404 49.4404 23.8816 49.207 24.1212C48.9708 24.3639 48.6543 24.5227 48.2754 24.6241C47.8953 24.7259 47.4669 24.7665 47.0225 24.7853C46.8011 24.7946 46.5788 24.7985 46.3584 24.8019C46.1393 24.8053 45.921 24.809 45.7129 24.8175L45.5273 24.8243L45.4697 25.0001C45.1541 25.9637 44.8242 26.9055 44.4287 27.8282L44.4258 27.8341C44.3708 27.9716 44.2422 28.177 44.1016 28.3956C44.0351 28.499 43.9672 28.6041 43.9131 28.6945C43.8648 28.7751 43.807 28.8762 43.7832 28.963L43.7812 28.9689C43.7495 29.0961 43.7727 29.2184 43.8096 29.3195C43.8466 29.421 43.9043 29.5198 43.9688 29.6105C44.0972 29.7914 44.2776 29.9793 44.459 30.1544C44.6402 30.3293 44.8411 30.508 45.0029 30.6583C45.1723 30.8156 45.2944 30.9376 45.3564 31.0216V31.0226C45.5764 31.3289 45.7013 31.5859 45.7559 31.8478C45.8101 32.1084 45.8 32.3962 45.7148 32.7697C45.6982 32.8374 45.6455 32.9526 45.5439 33.1144C45.4457 33.2709 45.3128 33.4543 45.1523 33.6554C44.8315 34.0577 44.4116 34.5192 43.9688 34.962C43.5259 35.4049 43.0644 35.8247 42.6621 36.1456C42.461 36.3061 42.2776 36.439 42.1211 36.5372C41.9614 36.6375 41.8473 36.6899 41.7793 36.7072C41.3374 36.8109 41.0003 36.7947 40.7236 36.713C40.4453 36.6308 40.2071 36.4759 39.9697 36.2697C39.7254 36.0574 39.5047 35.8127 39.2354 35.5411C38.9734 35.2771 38.6784 35.0031 38.3154 34.7745L38.1797 34.6896L38.041 34.7687C36.8045 35.4776 35.5133 36.0644 34.1318 36.3732L34.001 36.4025L33.9463 36.5255C33.7262 37.023 33.7403 37.5585 33.7588 38.0372C33.7781 38.5363 33.8021 38.9816 33.6689 39.4034C33.5894 39.6549 33.3707 39.9484 33.0781 40.1964C32.7855 40.4444 32.4587 40.6135 32.1992 40.6534H32.1982C31.806 40.7162 30.9517 40.7463 30.0703 40.7443C29.1914 40.7422 28.3234 40.7082 27.9092 40.6525H27.9053C27.4001 40.5917 27.058 40.4171 26.8184 40.1837C26.5759 39.9475 26.4178 39.6308 26.3164 39.2521C26.2146 38.872 26.174 38.4436 26.1553 37.9991C26.1459 37.7777 26.1421 37.5555 26.1387 37.3351C26.1353 37.116 26.1315 36.8977 26.123 36.6896L26.1162 36.504L25.9395 36.4464C24.9761 36.1308 24.0348 35.8007 23.1123 35.4054L23.1055 35.4025C22.968 35.3474 22.7633 35.2188 22.5449 35.0782C22.4416 35.0118 22.3364 34.9438 22.2461 34.8898C22.1655 34.8415 22.0643 34.7837 21.9775 34.7599L21.9717 34.7579L21.877 34.7443C21.7841 34.7389 21.6959 34.7576 21.6201 34.7853C21.5186 34.8223 21.4207 34.8811 21.3301 34.9454C21.1492 35.0739 20.9613 35.2542 20.7861 35.4357C20.6114 35.6167 20.4324 35.8169 20.2822 35.9786C20.1246 36.1484 20.0021 36.2712 19.918 36.3331C19.6115 36.5532 19.3538 36.678 19.0918 36.7325C18.8306 36.7868 18.5427 36.7763 18.168 36.6906C18.1 36.6733 17.986 36.621 17.8262 36.5206C17.6697 36.4224 17.4863 36.2895 17.2852 36.129C16.8829 35.8081 16.4214 35.3873 15.9785 34.9445C15.5358 34.5017 15.1157 34.0409 14.7949 33.6388C14.6345 33.4377 14.5016 33.2543 14.4033 33.0978C14.3018 32.936 14.249 32.8208 14.2324 32.7531C14.1294 32.3125 14.146 31.9764 14.2275 31.7003C14.3098 31.4219 14.4646 31.1829 14.6709 30.9454C14.8831 30.7013 15.127 30.4813 15.3984 30.212C15.6626 29.95 15.9374 29.6553 16.166 29.2921L16.2393 29.1759L16.1865 29.049L14.5537 25.0656L14.5127 24.9659L14.415 24.923L14.2266 24.8507C13.7842 24.7063 13.3213 24.7193 12.9023 24.7355C12.4035 24.7547 11.9588 24.7788 11.5371 24.6456C11.2855 24.5661 10.9913 24.3475 10.7432 24.0548C10.5262 23.7988 10.37 23.5168 10.3076 23.2765L10.2871 23.1759V23.1749L10.2461 22.8009C10.2113 22.3539 10.1947 21.7081 10.1963 21.047C10.1984 20.1681 10.2323 19.3001 10.2881 18.8859V18.882C10.3489 18.3768 10.5225 18.0347 10.7559 17.795C10.9921 17.5524 11.3096 17.3946 11.6885 17.2931C12.0685 17.1913 12.497 17.1497 12.9414 17.131C13.1628 17.1217 13.3851 17.1188 13.6055 17.1154C13.8245 17.112 14.0429 17.1082 14.251 17.0997L14.4199 17.0929L14.4854 16.9376L16.1689 12.9884L16.1768 12.9689L16.1826 12.9484C16.2144 12.8212 16.1913 12.6988 16.1543 12.5978C16.1171 12.4964 16.0586 12.3978 15.9941 12.3077C15.8655 12.1282 15.685 11.9415 15.5039 11.7677C15.3246 11.5957 15.1215 11.4147 14.9619 11.2657C14.7913 11.1065 14.6691 10.9829 14.6084 10.8966L14.6064 10.8947L14.459 10.673C14.3286 10.4591 14.2489 10.2649 14.208 10.0685C14.1538 9.80773 14.1637 9.52034 14.249 9.14661C14.2657 9.07885 14.3185 8.96435 14.4199 8.80286C14.5182 8.64635 14.6511 8.463 14.8115 8.26184C15.1324 7.8596 15.5523 7.39805 15.9951 6.9552C16.438 6.51234 16.8995 6.09249 17.3018 5.77161C17.5029 5.61115 17.6863 5.47828 17.8428 5.38C18.0025 5.27972 18.1165 5.22737 18.1846 5.21008C18.6263 5.10637 18.9627 5.12263 19.2393 5.20422C19.5178 5.28646 19.7566 5.44117 19.9941 5.64758C20.2383 5.85976 20.4583 6.10372 20.7275 6.37512C20.9896 6.63932 21.2853 6.91405 21.6484 7.1427L21.7646 7.21594L21.8916 7.16321L25.875 5.5304L26.0059 5.47668L26.0342 5.33801C26.1143 4.95524 26.1357 4.51403 26.1572 4.08704C26.1793 3.65045 26.2022 3.22164 26.2773 2.82727C26.3523 2.43388 26.476 2.09749 26.6846 1.83899C26.8628 1.6182 27.1152 1.43894 27.4902 1.33508L27.6592 1.29504C28.0034 1.2262 28.8958 1.19168 29.8301 1.18958ZM28.1738 5.97766C28.1662 5.99083 28.158 6.00609 28.1484 6.02258C28.1114 6.0866 28.0606 6.17281 28.0078 6.26282C27.9048 6.43848 27.8031 6.60944 27.7637 6.66809C27.4729 7.03683 27.0083 7.26297 26.4492 7.44934C26.1715 7.54191 25.8856 7.62061 25.5947 7.7052C25.3084 7.78846 25.0186 7.87713 24.7539 7.98743C24.4908 8.09709 24.2043 8.24639 23.915 8.40051C23.6217 8.55678 23.3235 8.71948 23.0225 8.86438C22.4089 9.1597 21.8487 9.34922 21.3936 9.28625C20.9958 9.23139 20.5513 8.93517 20.0938 8.52942C19.8706 8.33146 19.6541 8.11701 19.4482 7.9093C19.2449 7.7042 19.0473 7.5013 18.8711 7.33801L18.6836 7.16321L18.502 7.34485L16.4014 9.44446L16.2168 9.63L16.3984 9.81848C16.8574 10.2951 17.365 10.7279 17.7695 11.2443C18.163 11.7465 18.4063 12.2698 18.3418 12.8722C18.3063 13.2055 18.0912 13.6866 17.8125 14.2208C17.6137 14.6018 17.3827 15.0086 17.2041 15.3615L17.0459 15.6935L17.0439 15.6974C16.9336 15.9622 16.845 16.2518 16.7617 16.5382C16.6771 16.8292 16.5985 17.1149 16.5059 17.3927C16.32 17.9503 16.0945 18.4133 15.7275 18.7042C15.6702 18.7441 15.5029 18.8513 15.335 18.9532C15.2486 19.0057 15.1661 19.055 15.1035 19.09C15.0829 19.1015 15.0654 19.1102 15.0518 19.1173H12.2734V22.7667H15.0352C15.0481 22.7742 15.0629 22.7827 15.0791 22.7921C15.1432 22.8292 15.2302 22.8799 15.3203 22.9327C15.5033 23.04 15.6805 23.1463 15.7314 23.1818C16.0962 23.4728 16.3206 23.9347 16.5059 24.4904C16.5985 24.7681 16.6771 25.0539 16.7617 25.3448C16.8448 25.6305 16.9331 25.9195 17.043 26.1837V26.1847C17.2161 26.6088 17.5387 27.1661 17.8066 27.6759C17.944 27.9373 18.0704 28.1912 18.167 28.424C18.2647 28.6594 18.325 28.8578 18.3418 29.0118C18.4061 29.6049 18.1638 30.1238 17.7695 30.6271C17.5725 30.8786 17.3429 31.1194 17.1035 31.3585C16.8686 31.5932 16.6164 31.834 16.3965 32.0665L16.2188 32.255L16.4014 32.4386L18.6836 34.7208L18.8721 34.546C19.0527 34.3783 19.2495 34.1736 19.4512 33.9689C19.6554 33.7615 19.868 33.5494 20.0879 33.3536C20.5366 32.9543 20.9787 32.6595 21.3965 32.5968C21.868 32.5265 22.4162 32.7087 23.0156 33.0001C23.3108 33.1436 23.6035 33.3068 23.8965 33.4659C24.1859 33.6231 24.4766 33.7776 24.752 33.8956L24.7539 33.8966C25.0186 34.0069 25.3084 34.0956 25.5947 34.1788C25.8856 34.2634 26.1714 34.3421 26.4492 34.4347C27.0065 34.6205 27.4698 34.8454 27.7607 35.212C27.8003 35.2688 27.9074 35.4371 28.0098 35.6056C28.0621 35.6918 28.1115 35.7735 28.1465 35.8361C28.1579 35.8566 28.1667 35.8742 28.1738 35.8878V38.6671H31.8232V35.9054C31.8307 35.8924 31.8393 35.8776 31.8486 35.8615C31.8857 35.7974 31.9365 35.7103 31.9893 35.6202C32.0949 35.44 32.1993 35.2651 32.2363 35.2111C32.5273 34.8448 32.9909 34.6204 33.5479 34.4347C33.8256 34.3421 34.1114 34.2634 34.4023 34.1788C34.6887 34.0956 34.9784 34.0069 35.2432 33.8966L35.2451 33.8956C35.5204 33.7776 35.8111 33.6231 36.1006 33.4659C36.3936 33.3068 36.6863 33.1436 36.9814 33.0001C37.5809 32.7087 38.129 32.5265 38.6006 32.5968C39.0184 32.6595 39.4605 32.9543 39.9092 33.3536C40.1291 33.5494 40.3417 33.7615 40.5459 33.9689C40.7476 34.1736 40.9444 34.3783 41.125 34.546L41.3135 34.7208L43.7773 32.257L43.6025 32.0685C43.4348 31.8878 43.2302 31.6901 43.0254 31.4884C42.8181 31.2842 42.6058 31.0716 42.4102 30.8517C42.0608 30.4591 41.7922 30.0718 41.6885 29.7013L41.6543 29.5441C41.5839 29.0725 41.7651 28.5245 42.0566 27.9249C42.2002 27.6297 42.3633 27.3362 42.5225 27.0431C42.6796 26.7538 42.8342 26.4638 42.9521 26.1886L42.9531 26.1857C43.0634 25.9209 43.1521 25.6312 43.2354 25.3448C43.3199 25.0539 43.3986 24.7681 43.4912 24.4904C43.6769 23.9334 43.9012 23.4697 44.2676 23.1788C44.3239 23.1395 44.4932 23.0324 44.6621 22.9298C44.7484 22.8774 44.831 22.829 44.8936 22.7941C44.9142 22.7825 44.9317 22.7738 44.9453 22.7667H47.7236V19.1173H44.9619C44.9489 19.1098 44.9342 19.1013 44.918 19.0919C44.8539 19.0548 44.7668 19.0041 44.6768 18.9513C44.4991 18.8472 44.3271 18.7436 44.2705 18.7052C43.9029 18.4143 43.6773 17.9508 43.4912 17.3927C43.3986 17.1149 43.32 16.8292 43.2354 16.5382C43.1521 16.2518 43.0635 15.9622 42.9531 15.6974L42.9521 15.6954L42.8574 15.4865C42.7568 15.275 42.6404 15.0572 42.5225 14.84C42.3633 14.5469 42.2002 14.2534 42.0566 13.9581C41.7653 13.3589 41.5841 12.8114 41.6543 12.34C41.717 11.9222 42.0109 11.4801 42.4102 11.0314C42.6059 10.8114 42.818 10.5989 43.0254 10.3947C43.2302 10.1929 43.4348 9.99521 43.6025 9.81458L43.7773 9.62708L43.5957 9.44446L41.4951 7.34485L41.3105 7.16028L41.1221 7.34094C40.6454 7.79993 40.2127 8.3084 39.6963 8.71301C39.194 9.10648 38.6708 9.34982 38.0684 9.28528C37.7351 9.24981 37.254 9.03378 36.7197 8.755C36.2118 8.49001 35.6575 8.16893 35.2471 7.98938L35.2432 7.98743L35.04 7.90833C34.8336 7.83291 34.6171 7.76765 34.4023 7.7052C34.1115 7.62061 33.8256 7.54191 33.5479 7.44934C33.0584 7.2862 32.641 7.09289 32.3496 6.79993L32.2334 6.66809C32.192 6.60798 32.0874 6.44333 31.9873 6.27844C31.9349 6.19208 31.8855 6.10958 31.8506 6.047C31.8388 6.02598 31.8304 6.00803 31.8232 5.99426V3.21692H28.1738V5.97766Z" fill="#CABBCE" stroke="#CABBCE" stroke-width="0.533333"/>
<path d="M29.2109 11.2828C32.477 11.03 34.971 12.0518 36.6943 13.7252C38.4226 15.4035 39.3931 17.7544 39.5703 20.1823C39.7475 22.6102 39.1302 25.0967 37.708 27.0406C36.3783 28.8581 34.3372 30.213 31.5508 30.6031L30.9834 30.6686C27.7354 30.9579 25.2125 29.9483 23.4463 28.2711C21.6751 26.5892 20.6505 24.2209 20.4336 21.777C20.2167 19.333 20.8097 16.8314 22.252 14.8834C23.6002 13.0624 25.7012 11.71 28.6172 11.3434L29.2109 11.2828ZM35.0752 15.0211C33.6568 13.7165 31.663 12.9737 29.1445 13.2526C24.2277 13.797 21.9848 17.9591 22.3604 21.7867C22.5484 23.7026 23.3918 25.5551 24.8965 26.8473C26.4053 28.1428 28.557 28.856 31.3213 28.5319C33.6471 28.26 35.3191 27.0944 36.3486 25.5123C37.374 23.9366 37.7549 21.9599 37.5342 20.0612C37.3134 18.1621 36.4881 16.3208 35.0752 15.0211Z" fill="#CABBCE" stroke="#CABBCE" stroke-width="0.533333"/>
</svg>
