<svg width="67" height="80" viewBox="0 0 67 80" fill="none" xmlns="http://www.w3.org/2000/svg">
<path d="M6.03027 1.45142H42.2158C42.8429 1.45093 43.4448 1.69893 43.8887 2.14185V2.14282L64.9961 23.2493V23.2502C65.4396 23.6943 65.689 24.2965 65.6885 24.9241V73.1702C65.6885 76.142 63.2794 78.5512 60.3076 78.551H6.03027C3.05871 78.5509 0.650391 76.1419 0.650391 73.1702V6.83228C0.650391 3.86056 3.05871 1.45152 6.03027 1.45142ZM5.38086 73.8206H60.958V27.2893H42.2158C40.9095 27.2894 39.8496 26.2305 39.8496 24.9241V6.18188H5.38086V73.8206ZM32.1348 34.592C42.0872 34.9714 47.8974 45.9819 42.5928 54.4114L42.3164 54.8508L42.6836 55.217L46.9043 59.4348C47.5022 60.0327 47.7362 60.9043 47.5176 61.7209C47.046 63.481 44.8451 64.0709 43.5566 62.7825H43.5576L39.3398 58.5608L38.9727 58.1936L38.5332 58.47C32.1571 62.4825 23.7148 60.2209 20.1992 53.5579C15.5516 44.7492 22.1824 34.2129 32.1348 34.592ZM35.7559 40.4485C30.297 37.2968 23.4728 41.2359 23.4727 47.5393C23.4727 52.0616 27.1388 55.7278 31.6611 55.7278C33.0984 55.7277 34.5112 55.3497 35.7559 54.6311C41.2148 51.4794 41.2146 43.6003 35.7559 40.4485ZM44.5811 22.5588H57.6143L56.5039 21.4495L45.6904 10.635L44.5811 9.52563V22.5588Z" fill="#CABBCE" stroke="white" stroke-width="1.3"/>
<path d="M6.03027 1.45142H42.2158C42.8429 1.45093 43.4448 1.69893 43.8887 2.14185V2.14282L64.9961 23.2493V23.2502C65.4396 23.6943 65.689 24.2965 65.6885 24.9241V73.1702C65.6885 76.142 63.2794 78.5512 60.3076 78.551H6.03027C3.05871 78.5509 0.650391 76.1419 0.650391 73.1702V6.83228C0.650391 3.86056 3.05871 1.45152 6.03027 1.45142ZM5.38086 73.8206H60.958V27.2893H42.2158C40.9095 27.2894 39.8496 26.2305 39.8496 24.9241V6.18188H5.38086V73.8206ZM44.5811 22.5588H57.6143L56.5039 21.4495L45.6904 10.635L44.5811 9.52563V22.5588Z" fill="#003C43" stroke="white" stroke-width="1.3"/>
</svg>
