<svg width="60" height="60" viewBox="0 0 60 60" fill="none" xmlns="http://www.w3.org/2000/svg">
<path d="M17.2432 3.06445H42.7559V57.0527H35.29V52.8164C35.29 51.5866 35.2783 50.5125 35.2578 49.7139C35.2476 49.3144 35.2349 48.9839 35.2207 48.7383C35.2136 48.6155 35.206 48.5143 35.1982 48.4365C35.1904 48.3589 35.183 48.3101 35.1768 48.2861C35.1447 48.1796 35.0846 48.0536 35.0107 47.9365C34.9364 47.8187 34.8523 47.718 34.7764 47.6572C34.7104 47.6072 34.658 47.5717 34.5518 47.5439C34.4383 47.5144 34.2628 47.4929 33.9521 47.4775C33.3312 47.447 32.1973 47.4434 29.999 47.4434C27.8011 47.4434 26.6678 47.447 26.0469 47.4775C25.7358 47.4929 25.5598 47.5143 25.4463 47.5439C25.3393 47.5719 25.2865 47.6074 25.2197 47.6582C25.1444 47.7192 25.0619 47.8199 24.9883 47.9365C24.9513 47.9952 24.9169 48.0556 24.8887 48.1152L24.8223 48.2861C24.816 48.3101 24.8086 48.3589 24.8008 48.4365C24.793 48.5143 24.7854 48.6155 24.7783 48.7383C24.7641 48.9839 24.7515 49.3144 24.7412 49.7139C24.7207 50.5125 24.709 51.5866 24.709 52.8164V57.0527H17.2432V3.06445ZM5.17285 16.541H14.6309V57.0527H5.17285V16.541ZM45.4854 16.541H54.8262V57.0527H45.4854V16.541ZM26.8525 49.5879H33.1465V57.0527H26.8525V49.5879ZM2.56055 57.0107L2.46777 57.0176L1.71875 57.0762H1.71973C1.2762 57.1165 0.944636 57.2084 0.702148 57.3555C0.492783 57.4825 0.344606 57.6531 0.249023 57.8799L0.211914 57.9805C-0.0383298 58.7537 0.462541 59.5713 1.26953 59.7021H1.27148C1.27288 59.7023 1.27674 59.7026 1.28418 59.7031C1.29415 59.7038 1.30789 59.7053 1.3252 59.7061C1.36019 59.7076 1.40907 59.7084 1.4707 59.71C1.59382 59.713 1.76805 59.7168 1.99023 59.7197C2.43465 59.7255 3.0698 59.7304 3.86816 59.7354C5.46516 59.7452 7.71571 59.7532 10.4014 59.7598C15.7727 59.7729 22.8859 59.7803 29.999 59.7803C37.1123 59.7803 44.2262 59.7729 49.5977 59.7598C52.2833 59.7532 54.5339 59.7452 56.1309 59.7354C56.9292 59.7304 57.5644 59.7255 58.0088 59.7197C58.2309 59.7168 58.4052 59.713 58.5283 59.71C58.5897 59.7084 58.6379 59.7076 58.6729 59.7061C58.6904 59.7053 58.7048 59.7038 58.7148 59.7031C58.7224 59.7026 58.7262 59.7023 58.7275 59.7021H58.7295C59.4863 59.5794 59.9739 58.8527 59.8252 58.125L59.7871 57.9805C59.6945 57.703 59.5361 57.5006 59.2969 57.3555C59.0544 57.2084 58.7229 57.1165 58.2793 57.0762L57.5303 57.0176L57.4385 57.0107V15.8896L57.1338 15.2705C56.9438 14.9205 56.7121 14.6261 56.4473 14.4082L56.334 14.3213L55.8418 13.9863L50.7412 13.9512L45.5967 13.916H45.498L45.4971 13.8174L45.4619 8.11035C45.4443 4.94776 45.4386 3.42031 45.3369 2.58105C45.2864 2.16405 45.2129 1.92822 45.1094 1.74902C45.0044 1.56726 44.8655 1.43679 44.6592 1.23047C44.6067 1.178 44.5621 1.1292 44.5225 1.08496C44.4824 1.04017 44.4482 1.00166 44.4131 0.96582C44.3451 0.896298 44.2761 0.839934 44.1719 0.791992C43.9555 0.692616 43.579 0.623841 42.7422 0.579102C41.074 0.489956 37.6415 0.49805 30.1748 0.486328C24.9777 0.480469 21.5858 0.483893 19.4551 0.50293C18.3896 0.51245 17.6402 0.525505 17.1387 0.543945C16.8879 0.553165 16.7002 0.563582 16.5664 0.575195C16.4272 0.587284 16.3585 0.600699 16.3359 0.609375H16.334C16.0916 0.697594 15.7882 0.891732 15.5117 1.125C15.3041 1.30021 15.1182 1.49248 14.9873 1.66992L14.876 1.84082C14.8006 1.98765 14.751 2.2042 14.7158 3.05273C14.6807 3.89901 14.6602 5.35607 14.6309 7.96973L14.5723 13.7705L14.5713 13.8682L14.4736 13.8691L9.31738 13.9277L4.19141 13.9863L3.66602 14.3438H3.66699C3.36206 14.5602 3.12508 14.8281 2.93359 15.1582L2.85449 15.3037L2.56055 15.8906V57.0107Z" fill="#003C43" stroke="#003C43" stroke-width="0.2"/>
<path d="M24.2344 11.7363C26.1254 11.7363 27.1049 11.7268 27.6484 11.6377C27.9182 11.5934 28.0659 11.5313 28.1621 11.4521C28.2577 11.3735 28.3145 11.2689 28.3838 11.1074V11.1064C28.5328 10.7432 28.4635 10.3448 28.2178 10.0322L28.1025 9.9043L27.8281 9.65039L24.5156 9.63867H24.5146C23.5894 9.63282 22.7199 9.63282 22.0645 9.63867C21.7366 9.6416 21.4622 9.64651 21.2617 9.65234C21.1616 9.65526 21.0806 9.65854 21.0205 9.66211C20.9905 9.66389 20.9664 9.66517 20.9482 9.66699C20.9393 9.66788 20.9321 9.66916 20.9268 9.66992C20.9224 9.67056 20.9196 9.67075 20.9189 9.6709L20.9141 9.67188L20.8613 9.6875C20.8053 9.70823 20.7411 9.74493 20.6729 9.79688C20.5834 9.86496 20.4929 9.95478 20.4121 10.0537C20.3314 10.1526 20.2617 10.2588 20.2129 10.3594C20.1633 10.4616 20.1387 10.5507 20.1387 10.6172C20.1387 10.9587 20.3103 11.3054 20.6162 11.5459L20.6191 11.5488C20.7024 11.6189 20.8206 11.6718 21.3281 11.7012C21.8314 11.7303 22.6922 11.7363 24.2344 11.7363Z" fill="#CABBCE" stroke="#CABBCE" stroke-width="0.2"/>
<path d="M35.8115 11.7363H39.2393L39.5488 11.4268V11.4258C40.1053 10.8586 39.9073 9.98342 39.1396 9.69141C39.1396 9.69141 39.1378 9.69043 39.1338 9.68945C39.129 9.68829 39.1219 9.68706 39.1133 9.68555C39.0958 9.68248 39.0722 9.67909 39.043 9.67578C38.9843 9.66915 38.9049 9.66252 38.8076 9.65625C38.6134 9.64373 38.3494 9.63255 38.0352 9.62305C37.4065 9.60405 36.5782 9.59277 35.7061 9.59277C34.4584 9.59863 33.6434 9.60951 33.1025 9.63574C32.5575 9.66219 32.3055 9.70346 32.1719 9.75977H32.1729C31.9882 9.84188 31.8087 10.0304 31.6895 10.248C31.5838 10.441 31.5368 10.6344 31.5576 10.7754L31.5713 10.833C31.7191 11.2992 31.8814 11.5031 32.1133 11.6152C32.1241 11.62 32.1536 11.6287 32.21 11.6377C32.2636 11.6463 32.3349 11.6543 32.4238 11.6621C32.6019 11.6778 32.8474 11.6912 33.1592 11.7021C33.7829 11.7241 34.6696 11.7363 35.8115 11.7363Z" fill="#CABBCE" stroke="#CABBCE" stroke-width="0.2"/>
<path d="M24.3516 25.2129H27.8164L28.0928 24.958C28.3607 24.712 28.4808 24.4142 28.4678 24.1309C28.4547 23.8477 28.3074 23.5661 28.0186 23.3535L28.0176 23.3525C27.9465 23.2978 27.888 23.2609 27.7949 23.2314C27.698 23.2009 27.5589 23.1778 27.3242 23.1611C26.8539 23.1277 26.0291 23.1211 24.457 23.1152H24.4561C23.5483 23.1094 22.6931 23.1094 22.0479 23.1152C21.7253 23.1182 21.4554 23.1231 21.2578 23.1289C21.159 23.1318 21.0789 23.1351 21.0195 23.1387C20.99 23.1404 20.9662 23.1417 20.9482 23.1436C20.9394 23.1444 20.932 23.1457 20.9268 23.1465C20.9223 23.1471 20.9196 23.1473 20.9189 23.1475L20.9141 23.1484L20.8613 23.1641C20.8053 23.1848 20.7411 23.2215 20.6729 23.2734C20.5834 23.3415 20.4929 23.4313 20.4121 23.5303C20.3314 23.6292 20.2617 23.7354 20.2129 23.8359C20.1633 23.9382 20.1387 24.0273 20.1387 24.0938C20.1387 24.2656 20.2056 24.4871 20.3096 24.6865C20.4138 24.8864 20.5445 25.0424 20.6582 25.1055C20.6601 25.1061 20.6658 25.1079 20.6768 25.1104C20.6918 25.1137 20.7126 25.1173 20.7393 25.1211C20.7927 25.1287 20.8657 25.1365 20.958 25.1436C21.1426 25.1577 21.3992 25.1704 21.7207 25.1807C22.3638 25.2011 23.2623 25.2129 24.3516 25.2129Z" fill="#CABBCE" stroke="#CABBCE" stroke-width="0.2"/>
<path d="M39.2393 25.2129L39.5498 24.9023C40.121 24.3311 39.8885 23.4309 39.1465 23.1787L38.9932 23.1377C38.9162 23.1231 38.7598 23.1101 38.5381 23.0996C38.3185 23.0892 38.0402 23.0813 37.7236 23.0762C37.0907 23.0659 36.3052 23.0654 35.5273 23.0742C34.7495 23.083 33.9799 23.1011 33.3779 23.126C33.0768 23.1384 32.8181 23.1522 32.6221 23.168C32.5243 23.1758 32.4429 23.184 32.3799 23.1924C32.3146 23.2011 32.2763 23.2101 32.2598 23.2158L32.2568 23.2168L32.1631 23.251C31.9564 23.3401 31.8207 23.4888 31.6953 23.7393C31.5785 23.9785 31.5409 24.1825 31.5742 24.3711C31.6076 24.5595 31.7132 24.7471 31.9082 24.9482L31.9092 24.9473L32.1855 25.2129H39.2393Z" fill="#CABBCE" stroke="#CABBCE" stroke-width="0.2"/>
<path d="M24.749 38.783C26.163 38.7654 26.9141 38.7538 27.3506 38.7175C27.5685 38.6994 27.7014 38.6753 27.7959 38.6443C27.887 38.6144 27.9468 38.5766 28.0176 38.5222L28.0186 38.5212C28.3073 38.3088 28.4546 38.0279 28.4678 37.7449C28.4792 37.4971 28.3886 37.238 28.1865 37.0125L28.0928 36.9177L27.8164 36.6628H20.7598L20.4492 36.9734C20.1198 37.3088 20.0655 37.7111 20.2109 38.0466C20.3578 38.3852 20.7155 38.671 21.2373 38.7488L21.2363 38.7498C21.3717 38.7664 21.833 38.7795 22.4736 38.7869C23.1129 38.7942 23.9238 38.7947 24.749 38.783Z" fill="#CABBCE" stroke="#CABBCE" stroke-width="0.2"/>
<path d="M37.7236 38.7993C38.0402 38.7942 38.3185 38.7862 38.5381 38.7759C38.7591 38.7654 38.915 38.7533 38.9922 38.7388V38.7378C39.8542 38.5651 40.1589 37.5823 39.5498 36.9731L39.2393 36.6626H32.1846L31.9092 36.9272C31.714 37.1285 31.6076 37.3158 31.5742 37.5044C31.541 37.6929 31.5776 37.8972 31.6943 38.1362C31.8377 38.4226 31.9959 38.5752 32.2568 38.6587L32.2598 38.6597C32.2764 38.6654 32.3148 38.6734 32.3799 38.6821C32.4429 38.6905 32.5242 38.6987 32.6221 38.7065C32.8181 38.7223 33.0768 38.7371 33.3779 38.7495C33.9798 38.7744 34.7495 38.7915 35.5273 38.8003C36.3052 38.8091 37.0907 38.8095 37.7236 38.7993Z" fill="#CABBCE" stroke="#CABBCE" stroke-width="0.2"/>
<path d="M9.93652 25.2129H12.3447L12.6201 24.9375C13.2006 24.3569 12.9616 23.4443 12.1973 23.1807L12.0371 23.1367C11.8823 23.1065 11.5517 23.0864 11.127 23.0762C10.7044 23.066 10.197 23.0654 9.69629 23.0742C9.19582 23.083 8.70294 23.1012 8.30859 23.126C8.11127 23.1384 7.93891 23.1523 7.80371 23.168C7.66525 23.184 7.57443 23.201 7.53223 23.2158H7.53027C7.30966 23.2894 7.08335 23.4829 6.96582 23.6963L6.96387 23.6992C6.86512 23.8677 6.82224 23.9661 6.81152 24.0635C6.80077 24.1615 6.82152 24.2703 6.87988 24.4629C6.93865 24.6568 6.9876 24.7875 7.06445 24.8838C7.13776 24.9755 7.24418 25.0452 7.43652 25.0957C7.63197 25.147 7.90877 25.1769 8.31445 25.1934C8.71893 25.2097 9.24501 25.2129 9.93652 25.2129Z" fill="#CABBCE" stroke="#CABBCE" stroke-width="0.2"/>
<path d="M9.65723 36.2051C10.9857 36.2286 11.7247 36.2184 12.1689 36.1191C12.3872 36.0703 12.5252 36.0016 12.625 35.9111C12.7256 35.8199 12.7971 35.6988 12.8682 35.5283V35.5273C12.9506 35.3331 12.9792 35.2352 12.9746 35.1436C12.9699 35.0501 12.9301 34.9511 12.835 34.7549V34.7539C12.7536 34.5854 12.6857 34.4693 12.5947 34.3828C12.5061 34.2986 12.3877 34.2359 12.1934 34.1904C11.7944 34.0971 11.1143 34.084 9.81934 34.084H7.53809L7.19141 34.3984L7.19043 34.3994C6.95139 34.6114 6.83051 34.8732 6.82129 35.1318C6.8121 35.3904 6.91432 35.6541 7.13574 35.8701L7.1377 35.8721L7.4248 36.1709L9.65723 36.2051Z" fill="#CABBCE" stroke="#CABBCE" stroke-width="0.2"/>
<path d="M9.96094 47.127H12.2656L12.6006 46.8242L12.6992 46.7256C13.1459 46.2146 12.9754 45.421 12.3242 45.1396C12.2783 45.1206 12.1778 45.0995 12.0234 45.0801C11.8728 45.0611 11.6812 45.0448 11.4619 45.0312C11.0234 45.0041 10.4772 44.988 9.93066 44.9844C9.38409 44.9807 8.838 44.9888 8.39941 45.0098C8.1801 45.0202 7.98863 45.0342 7.83789 45.0508C7.68354 45.0678 7.58239 45.0865 7.53613 45.1045H7.53711C7.12743 45.2706 6.90951 45.5172 6.83594 45.8535C6.79534 46.0417 6.84028 46.2906 6.94727 46.5186C7.05443 46.7468 7.21218 46.9322 7.375 47.0068L7.37598 47.0059C7.40727 47.0194 7.48698 47.0366 7.62695 47.0527C7.76249 47.0683 7.94274 47.0818 8.16504 47.0928C8.60951 47.1146 9.21758 47.127 9.96094 47.127Z" fill="#CABBCE" stroke="#CABBCE" stroke-width="0.2"/>
<path d="M50.0605 25.2129C50.7521 25.2129 51.2781 25.2097 51.6826 25.1934C52.0884 25.1769 52.3651 25.147 52.5605 25.0957C52.7529 25.0452 52.8593 24.9755 52.9326 24.8838C53.0095 24.7875 53.0584 24.6568 53.1172 24.4629C53.1755 24.2703 53.1963 24.1615 53.1855 24.0635C53.1802 24.0149 53.1669 23.9659 53.1426 23.9082L53.0332 23.6992C52.9521 23.5623 52.8716 23.4613 52.7656 23.3828C52.6593 23.3042 52.5201 23.2431 52.3154 23.1982C51.9007 23.1074 51.242 23.0859 50.0967 23.0918H50.0957C49.5518 23.0918 49.025 23.1006 48.6172 23.1123C48.4135 23.1181 48.2398 23.1253 48.1084 23.1318C47.9743 23.1385 47.8907 23.1447 47.8623 23.1494C47.8115 23.1579 47.7282 23.1938 47.6338 23.2529C47.5417 23.3107 47.4491 23.3845 47.3799 23.459L47.377 23.4619L47.2959 23.5479C47.1213 23.7509 47.0371 23.9772 47.0371 24.1992C47.0371 24.453 47.1475 24.7126 47.377 24.9365V24.9375L47.6523 25.2129H50.0605Z" fill="#CABBCE" stroke="#CABBCE" stroke-width="0.2"/>
<path d="M50.3418 36.2051L52.5742 36.1709L52.8623 35.8828C53.0843 35.6608 53.1868 35.3939 53.1777 35.1338C53.1685 34.8736 53.0475 34.6114 52.8086 34.3994L52.8076 34.3984L52.4609 34.084H50.1797C49.3777 34.084 48.7792 34.0964 48.3574 34.1211C48.1465 34.1335 47.981 34.1484 47.8574 34.167C47.7311 34.186 47.6588 34.2069 47.625 34.2246V34.2256L47.6221 34.2266C47.5572 34.2591 47.4711 34.3327 47.3838 34.4326C47.298 34.5309 47.2183 34.6466 47.1641 34.7549C47.0689 34.9512 47.0291 35.0501 47.0244 35.1436C47.0198 35.2352 47.0485 35.3331 47.1309 35.5273V35.5283C47.2019 35.6987 47.2725 35.8199 47.373 35.9111C47.4728 36.0017 47.6109 36.0703 47.8291 36.1191C48.1623 36.1937 48.6618 36.2174 49.4512 36.2148L50.3418 36.2051Z" fill="#CABBCE" stroke="#CABBCE" stroke-width="0.2"/>
<path d="M50.0381 47.127C50.7812 47.1269 51.3886 47.1146 51.833 47.0928C52.0553 47.0818 52.2356 47.0683 52.3711 47.0527C52.5105 47.0367 52.5905 47.0204 52.6221 47.0068C52.7852 46.9324 52.9434 46.7472 53.0508 46.5186C53.1578 46.2906 53.2027 46.0417 53.1621 45.8535V45.8506C53.1476 45.773 53.1037 45.67 53.041 45.5654C53.01 45.5138 52.9754 45.4637 52.9395 45.418L52.8291 45.2959C52.7567 45.2293 52.7066 45.1876 52.6387 45.1553C52.5699 45.1226 52.4755 45.0963 52.3135 45.0771C51.9862 45.0384 51.4158 45.0293 50.2939 45.0176C49.3973 45.0059 48.8023 45.0065 48.3955 45.0254C47.9861 45.0444 47.7793 45.0824 47.6514 45.1387C46.9698 45.4489 46.841 46.3212 47.3975 46.8242L47.7324 47.127H50.0381Z" fill="#CABBCE" stroke="#CABBCE" stroke-width="0.2"/>
</svg>
