<svg width="60" height="60" viewBox="0 0 60 60" fill="none" xmlns="http://www.w3.org/2000/svg">
<path d="M48.4137 6.50478L40.7826 17.7713C40.8146 18.9964 40.9427 19.7892 40.2781 20.8862C38.8287 23.2564 35.1293 23.0722 33.9762 20.5419C33.5598 19.629 33.8 18.9084 33.5678 18.0275L26.193 14.28C24.9998 16.9465 21.0602 17.1307 19.7629 14.4642L10.4008 22.0497C12.8591 23.7953 12.4441 27.6045 9.49737 28.3492C4.19642 29.6784 2.9953 21.783 8.36832 21.2545L19.2985 12.4223C20.0352 8.31446 25.6404 8.17834 26.5133 12.2621L34.6088 16.442C35.4015 15.321 37.0271 15.0728 38.3083 15.4171C38.8688 15.5692 39.1891 15.9456 39.7096 16.1217C42.4641 11.9739 45.2587 7.85804 48.0133 3.71017C48.0632 3.63538 48.1105 3.56371 48.1559 3.4947C48.9779 2.24619 50.2138 1.11031 51.7066 1.18891C54.0899 1.3144 55.9873 3.86474 54.7716 6.37665C53.5305 8.93104 49.7269 9.13123 48.4297 6.5288L48.4137 6.50478ZM50.2154 3.50197C48.3817 5.34369 51.6807 7.9301 53.034 5.68C54.099 3.91836 51.7048 2.00457 50.2154 3.50197ZM22.4214 11.0931C20.4676 11.5014 20.7799 15.0808 23.3983 14.5203C25.4402 14.0879 24.9678 10.5646 22.4214 11.0931ZM37.0511 17.0506C34.4246 17.2588 35.3215 21.6229 37.9719 20.4378C39.7416 19.645 38.9969 16.8985 37.0511 17.0506ZM9.90575 23.6167C8.2482 21.9592 5.76589 24.4735 7.29531 26.1071C8.92083 27.8527 11.5713 25.2823 9.90575 23.6167Z" fill="#CABBCE" stroke="#CABBCE" stroke-width="0.75"/>
<path d="M55.7899 12.8679V58.2463H47.2539V12.8679H55.7899ZM53.9161 14.6216H49.1196V56.3725H53.9161V14.6216Z" fill="#003C43" stroke="#003C43" stroke-width="0.75"/>
<path d="M27.1368 20.8193V58.2463H18.7129V20.8193H27.1368ZM25.3751 22.6851H20.4665V56.3645H25.3751V22.6851Z" fill="#003C43" stroke="#003C43" stroke-width="0.75"/>
<path d="M41.5184 26.897V58.0621L41.3422 58.2382H32.9824V26.897H41.5184ZM39.6446 28.7707H34.7361V56.3725H39.6446V28.7707Z" fill="#003C43" stroke="#003C43" stroke-width="0.75"/>
<path d="M12.8682 32.2781V58.2383H4.32422V32.2781H12.8602H12.8682ZM10.9944 34.0317H6.19797V56.3726H10.9944V34.0317Z" fill="#003C43" stroke="#003C43" stroke-width="0.75"/>
</svg>
