<svg width="38" height="42" viewBox="0 0 38 42" fill="none" xmlns="http://www.w3.org/2000/svg">
<path d="M1 25V19C1 14.2261 2.89642 9.64773 6.27208 6.27208C9.64773 2.89642 14.2261 1 19 1C23.7739 1 28.3523 2.89642 31.7279 6.27208C35.1036 9.64773 37 14.2261 37 19V28.692C37 32.71 37 34.718 36.296 36.284C35.4937 38.0666 34.0666 39.4937 32.284 40.296C30.718 41 28.71 41 24.692 41H19" stroke="#003C43" stroke-width="1.6" stroke-linecap="round" stroke-linejoin="round"/>
<path d="M25 21C25 19.9391 25.4214 18.9217 26.1716 18.1716C26.9217 17.4214 27.9391 17 29 17C31.1217 17 33.1566 17.8429 34.6569 19.3431C36.1571 20.8434 37 22.8783 37 25C37 27.1217 36.1571 29.1566 34.6569 30.6569C33.1566 32.1571 31.1217 33 29 33C27.9391 33 26.9217 32.5786 26.1716 31.8284C25.4214 31.0783 25 30.0609 25 29V21ZM13 21C13 19.9391 12.5786 18.9217 11.8284 18.1716C11.0783 17.4214 10.0609 17 9 17C6.87827 17 4.84344 17.8429 3.34315 19.3431C1.84285 20.8434 1 22.8783 1 25C1 27.1217 1.84285 29.1566 3.34315 30.6569C4.84344 32.1571 6.87827 33 9 33C10.0609 33 11.0783 32.5786 11.8284 31.8284C12.5786 31.0783 13 30.0609 13 29V21Z" stroke="#CABBCE" stroke-width="1.6" stroke-linecap="round" stroke-linejoin="round"/>
</svg>
