<svg width="64" height="64" viewBox="0 0 64 64" fill="none" xmlns="http://www.w3.org/2000/svg">
<path d="M32.6732 40.3337L13.9932 59.0137C13.5752 59.4325 13.0787 59.7647 12.5322 59.9914C11.9857 60.2181 11.3998 60.3348 10.8082 60.3348C10.2165 60.3348 9.63063 60.2181 9.0841 59.9914C8.53758 59.7647 8.04113 59.4325 7.62315 59.0137L4.98315 56.3737C4.56438 55.9558 4.23215 55.4593 4.00547 54.9128C3.77879 54.3663 3.66211 53.7804 3.66211 53.1887C3.66211 52.5971 3.77879 52.0112 4.00547 51.4647C4.23215 50.9182 4.56438 50.4217 4.98315 50.0037L23.6632 31.3237" stroke="#CABBCE" stroke-width="3.2" stroke-linecap="round" stroke-linejoin="round"/>
<path d="M35.3335 28.6665L52.0002 11.9999M55.3335 15.3332L48.6668 8.66654L57.0002 3.66654L60.3335 6.99987L55.3335 15.3332ZM5.41685 21.9165C3.81648 20.3176 2.71551 18.2879 2.24797 16.0744C1.78043 13.861 1.9665 11.5594 2.78351 9.44987L7.52351 14.1899H14.1902V7.52321L9.45018 2.78321C11.5599 1.96434 13.8622 1.77675 16.0767 2.24326C18.2911 2.70978 20.3221 3.81028 21.9221 5.41068C23.5222 7.01108 24.6222 9.04228 25.0883 11.2568C25.5543 13.4714 25.3662 15.7737 24.5468 17.8832L46.1135 39.4532C48.223 38.6339 50.5253 38.4458 52.7399 38.9118C54.9544 39.3778 56.9856 40.4779 58.586 42.0779C60.1864 43.678 61.2869 45.7089 61.7535 47.9234C62.22 50.1378 62.0324 52.4402 61.2135 54.5499L56.4768 49.8099H49.8102V56.4765L54.5502 61.2165C52.441 62.0354 50.1392 62.2233 47.9252 61.7573C45.7111 61.2914 43.6803 60.1917 42.0801 58.5921C40.4799 56.9926 39.3793 54.9623 38.9123 52.7485C38.4454 50.5346 38.6323 48.2327 39.4502 46.1232L17.8768 24.5499C15.7682 25.3655 13.4679 25.5508 11.2558 25.0833C9.04378 24.6158 7.01521 23.5156 5.41685 21.9165Z" stroke="#003C43" stroke-width="3.2" stroke-linecap="round" stroke-linejoin="round"/>
</svg>
