<svg width="58" height="71" viewBox="0 0 58 71" fill="none" xmlns="http://www.w3.org/2000/svg">
<path d="M16.4872 27.6402L23.9955 35.1486V48.4968M41.515 27.6402L34.0066 35.1486V48.4968M16.4872 30.143C17.1509 30.143 17.7875 29.8793 18.2569 29.41C18.7263 28.9406 18.9899 28.304 18.9899 27.6402C18.9899 26.9765 18.7263 26.3399 18.2569 25.8705C17.7875 25.4011 17.1509 25.1375 16.4872 25.1375C15.8234 25.1375 15.1868 25.4011 14.7174 25.8705C14.2481 26.3399 13.9844 26.9765 13.9844 27.6402C13.9844 28.304 14.2481 28.9406 14.7174 29.41C15.1868 29.8793 15.8234 30.143 16.4872 30.143ZM41.515 30.143C40.8512 30.143 40.2146 29.8793 39.7452 29.41C39.2759 28.9406 39.0122 28.304 39.0122 27.6402C39.0122 26.9765 39.2759 26.3399 39.7452 25.8705C40.2146 25.4011 40.8512 25.1375 41.515 25.1375C42.1788 25.1375 42.8154 25.4011 43.2847 25.8705C43.7541 26.3399 44.0178 26.9765 44.0178 27.6402C44.0178 28.304 43.7541 28.9406 43.2847 29.41C42.8154 29.8793 42.1788 30.143 41.515 30.143Z" stroke="#CABBCE" stroke-width="3.2" stroke-linecap="round" stroke-linejoin="round"/>
<path d="M6.12094 41.8226C3.61701 37.7221 2.29687 33.0086 2.3067 28.2041C2.3067 13.6079 14.26 1.77808 29.003 1.77808C43.7461 1.77808 55.6994 13.6079 55.6994 28.2041C55.7092 33.0086 54.3891 37.7221 51.8852 41.8226M39.0142 58.5078L38.5804 60.6669C38.1132 63.0262 37.8762 64.2041 37.3457 65.1385C36.5281 66.5786 35.2043 67.6634 33.6315 68.1819C32.6137 68.5189 31.4057 68.5189 29.003 68.5189C26.6004 68.5189 25.3924 68.5189 24.3746 68.1852C22.8013 67.6659 21.4774 66.5799 20.6604 65.1385C20.1298 64.2041 19.8929 63.0262 19.4257 60.6669L18.9919 58.5078M13.5959 52.1608C13.2889 51.2397 13.1354 50.7759 13.1521 50.4021C13.171 50.0157 13.3014 49.643 13.5276 49.3291C13.7539 49.0152 14.0662 48.7736 14.4268 48.6335C14.7739 48.4967 15.2611 48.4967 16.2288 48.4967H41.7772C42.7483 48.4967 43.2322 48.4967 43.5792 48.6302C43.9404 48.7705 44.2531 49.0126 44.4793 49.3272C44.7056 49.6417 44.8358 50.0151 44.854 50.4021C44.8707 50.7759 44.7172 51.2364 44.4102 52.1608C43.8429 53.866 43.5592 54.7203 43.1221 55.411C42.2077 56.8547 40.7745 57.8926 39.1176 58.3109C38.3234 58.5078 37.4291 58.5078 35.6371 58.5078H22.369C20.577 58.5078 19.6793 58.5078 18.8885 58.3076C17.2322 57.8901 15.799 56.8534 14.884 55.411C14.4469 54.7203 14.1632 53.866 13.5959 52.1608Z" stroke="#003C43" stroke-width="3.2" stroke-linecap="round" stroke-linejoin="round"/>
</svg>
