<svg width="57" height="57" viewBox="0 0 57 57" fill="none" xmlns="http://www.w3.org/2000/svg">
<path d="M55.7863 55.8572H45.072V25.8572C45.072 25.2889 45.2977 24.7438 45.6996 24.342C46.1015 23.9401 46.6465 23.7144 47.2148 23.7144H53.6434C54.2117 23.7144 54.7568 23.9401 55.1586 24.342C55.5605 24.7438 55.7863 25.2889 55.7863 25.8572V55.8572ZM34.3577 55.8572H23.6434V32.2858C23.6434 31.7175 23.8692 31.1724 24.271 30.7706C24.6729 30.3687 25.218 30.1429 25.7863 30.1429H32.2148C32.7832 30.1429 33.3282 30.3687 33.7301 30.7706C34.1319 31.1724 34.3577 31.7175 34.3577 32.2858V55.8572ZM12.9291 55.8572H2.21484V38.7144C2.21484 38.146 2.44061 37.601 2.84247 37.1991C3.24434 36.7973 3.78938 36.5715 4.3577 36.5715H10.7863C11.3546 36.5715 11.8996 36.7973 12.3015 37.1991C12.7034 37.601 12.9291 38.146 12.9291 38.7144V55.8572Z" stroke="#CABBCE" stroke-width="1.6" stroke-linecap="round" stroke-linejoin="round"/>
<path d="M0.852056 26.0664C0.444309 26.2366 0.251706 26.705 0.421865 27.1128C0.592024 27.5205 1.06051 27.7131 1.46826 27.543L0.852056 26.0664ZM56.546 4.30431C56.714 3.89567 56.5189 3.42821 56.1103 3.26021L49.4511 0.522486C49.0424 0.354486 48.575 0.549566 48.407 0.958206C48.239 1.36685 48.4341 1.83431 48.8427 2.00231L54.762 4.43584L52.3285 10.3551C52.1605 10.7638 52.3555 11.2312 52.7642 11.3992C53.1728 11.5672 53.6403 11.3721 53.8083 10.9635L56.546 4.30431ZM1.16016 26.8047L1.46826 27.543L56.1142 4.73841L55.8061 4.00012L55.498 3.26183L0.852056 26.0664L1.16016 26.8047Z" fill="#003C43"/>
</svg>
