<svg width="60" height="60" viewBox="0 0 60 60" fill="none" xmlns="http://www.w3.org/2000/svg">
<path d="M38.1312 50.3273C37.0646 52.9979 35.7969 55.1137 34.4026 56.5597C33.0055 58.0028 31.5106 58.7474 30.0014 58.7474C28.4921 58.7474 26.9973 58.0028 25.603 56.5597C24.2059 55.1137 22.9381 52.995 21.8716 50.3273C20.8022 47.6566 19.9541 44.4915 19.3763 41.0016C18.7867 37.3642 18.4944 33.6848 18.5024 29.9999C18.5024 26.2254 18.7985 22.4853 19.3763 18.9983C19.9541 15.5112 20.8022 12.3432 21.8716 9.67258C22.9381 7.00194 24.2059 4.88612 25.6001 3.44012C26.9973 1.99988 28.4921 1.25244 30.0014 1.25244C31.5106 1.25244 33.0055 1.997 34.3998 3.44012C35.7969 4.88612 37.0646 7.00481 38.1312 9.67258C39.2006 12.3432 40.0486 15.5083 40.6236 18.9983C41.2043 22.4853 41.5004 26.2254 41.5004 29.9999C41.5004 33.7745 41.2014 37.5145 40.6236 41.0016M1.25391 29.9999H24.2519M58.7489 29.9999H35.7509" stroke="#003C43" stroke-width="1.6" stroke-linecap="round"/>
<path d="M15.6276 5.09889C19.9957 2.5712 24.9547 1.24416 30.0014 1.25248C45.8786 1.25248 58.7489 14.1227 58.7489 30C58.7489 45.8772 45.8786 58.7474 30.0014 58.7474C14.1242 58.7474 1.25391 45.8772 1.25391 30C1.25391 24.765 2.65391 19.8521 5.10032 15.6262" stroke="#CABBCE" stroke-width="1.6" stroke-linecap="round"/>
</svg>
