<svg width="60" height="60" viewBox="0 0 60 60" fill="none" xmlns="http://www.w3.org/2000/svg">
<path d="M1.37427 32.1665C1.8087 37.6257 3.80111 42.8454 7.11478 47.2056C10.4284 51.5657 14.9241 54.883 20.0676 56.7634C25.2111 58.6437 30.7863 59.008 36.1308 57.813C41.4753 56.6181 46.3644 53.914 50.2173 50.0222C54.0702 46.1304 56.725 41.2143 57.8662 35.8581C59.0074 30.5019 58.587 24.9306 56.6551 19.8063C54.7232 14.6819 51.3609 10.2198 46.9676 6.95016C42.5744 3.68048 37.3349 1.74063 31.8716 1.36108" stroke="#CABBCE" stroke-width="1.6" stroke-linecap="round" stroke-linejoin="round"/>
<path d="M17.6165 34.6941C18.4112 36.7395 19.7033 38.5547 21.3758 39.9753C23.0483 41.3959 25.0485 42.3772 27.1956 42.8305C29.3427 43.2838 31.5689 43.1947 33.673 42.5713C35.777 41.948 37.6924 40.81 39.2461 39.2603C40.7998 37.7107 41.9427 35.7981 42.5714 33.6957C43.2002 31.5933 43.295 29.3673 42.8473 27.2191C42.3995 25.0708 41.4233 23.0681 40.007 21.3919C38.5907 19.7158 36.7789 18.4191 34.7355 17.6191M29.8947 29.8972L18.8928 18.8953M18.8928 18.8953L10.0912 21.0957L1.28969 12.2942L10.0912 10.0938L12.2916 1.29224L21.0932 10.0938L18.8928 18.8953Z" stroke="#003C43" stroke-width="1.6" stroke-linecap="round" stroke-linejoin="round"/>
</svg>
