<svg width="60" height="60" viewBox="0 0 60 60" fill="none" xmlns="http://www.w3.org/2000/svg">
<g clip-path="url(#clip0_0_1614)">
<path d="M30.0008 8.44011C30.0008 6.53408 29.2436 4.70612 27.8958 3.35835C26.5481 2.01059 24.7201 1.25342 22.8141 1.25342C20.908 1.25342 19.0801 2.01059 17.7323 3.35835C16.3845 4.70612 15.6274 6.53408 15.6274 8.44011C14.098 8.43968 12.5961 8.84593 11.2755 9.61723C9.95491 10.3885 8.86317 11.4971 8.1122 12.8294C7.36123 14.1616 6.97805 15.6696 7.00193 17.1988C7.0258 18.7279 7.45588 20.2232 8.24808 21.5314C6.28047 21.9116 4.50661 22.9649 3.23105 24.5105C1.95549 26.0562 1.25781 27.9976 1.25781 30.0016C1.25781 32.0056 1.95549 33.9471 3.23105 35.4927C4.50661 37.0384 6.28047 38.0917 8.24808 38.4719C7.45661 39.78 7.02713 41.275 7.00363 42.8037C6.98013 44.3324 7.36346 45.8399 8.11434 47.1717C8.86522 48.5035 9.95666 49.6118 11.2768 50.3829C12.597 51.1541 14.0985 51.5604 15.6274 51.5603C15.6278 53.4663 16.3853 55.2941 17.7333 56.6416C19.0814 57.9891 20.9095 58.7459 22.8155 58.7455C24.7215 58.7452 26.5494 57.9876 27.8969 56.6396C29.2443 55.2916 30.0012 53.4634 30.0008 51.5574" stroke="#CABBCE" stroke-width="1.6" stroke-linecap="round" stroke-linejoin="round"/>
<path d="M30 51.5603C30 53.4663 30.7572 55.2943 32.1049 56.642C33.4527 57.9898 35.2807 58.747 37.1867 58.747C39.0927 58.747 40.9207 57.9898 42.2685 56.642C43.6162 55.2943 44.3734 53.4663 44.3734 51.5603C45.9023 51.5604 47.4038 51.1541 48.7239 50.3829C50.0441 49.6118 51.1355 48.5035 51.8864 47.1717C52.6373 45.8399 53.0206 44.3324 52.9971 42.8037C52.9736 41.2749 52.5442 39.78 51.7527 38.4718C53.7203 38.0917 55.4942 37.0383 56.7697 35.4927C58.0453 33.9471 58.743 32.0056 58.743 30.0016C58.743 27.9976 58.0453 26.0561 56.7697 24.5105C55.4942 22.9649 53.7203 21.9116 51.7527 21.5314C52.5449 20.2232 52.975 18.7279 52.9988 17.1988C53.0227 15.6696 52.6395 14.1616 51.8886 12.8294C51.1376 11.4971 50.0459 10.3885 48.7253 9.6172C47.4047 8.8459 45.9027 8.43965 44.3734 8.44009C44.3736 7.49632 44.1879 6.56175 43.8269 5.68975C43.4659 4.81775 42.9367 4.02538 42.2695 3.3579C41.6023 2.69042 40.8101 2.1609 39.9383 1.79956C39.0664 1.43822 38.1319 1.25214 37.1881 1.25195C35.2821 1.25157 33.454 2.00837 32.106 3.35587C30.7579 4.70337 30.0004 6.53118 30 8.43721" stroke="#CABBCE" stroke-width="1.6" stroke-linecap="round" stroke-linejoin="round"/>
<path d="M25.649 15.6296V21.3186M15.625 25.691H21.5238M38.6885 25.691H44.5874M38.6885 34.2403H44.5874M15.625 34.2403H21.5238M25.649 38.6816V44.3735M34.3449 38.6816V44.3735M34.319 15.6267V21.3186M24.4014 38.535H35.8167C36.5792 38.535 37.3103 38.2322 37.8494 37.693C38.3886 37.1539 38.6914 36.4228 38.6914 35.6603V24.1932C38.6914 23.4308 38.3886 22.6997 37.8494 22.1605C37.3103 21.6214 36.5792 21.3186 35.8167 21.3186H24.4014C23.639 21.3186 22.9078 21.6214 22.3687 22.1605C21.8296 22.6997 21.5267 23.4308 21.5267 24.1932V35.6603C21.5267 36.4228 21.8296 37.1539 22.3687 37.693C22.9078 38.2322 23.639 38.535 24.4014 38.535Z" stroke="#003C43" stroke-width="1.6" stroke-linecap="round" stroke-linejoin="round"/>
</g>
<defs>
<clipPath id="clip0_0_1614">
<rect width="60" height="60" fill="white"/>
</clipPath>
</defs>
</svg>
