<svg width="31" height="30" viewBox="0 0 31 30" fill="none" xmlns="http://www.w3.org/2000/svg">
<path d="M27.7178 18.6541C27.7645 18.6512 27.82 18.6364 27.9229 18.5964L27.9258 18.5955C28.0024 18.5678 28.0889 18.5155 28.249 18.3621C28.4101 18.2077 28.6351 17.9625 28.9902 17.5613C29.5286 16.9533 29.8032 16.6178 29.9189 16.3796C29.9736 16.2671 29.9868 16.1868 29.9805 16.116C29.9737 16.0414 29.9437 15.9611 29.8838 15.8484V15.8474C29.6878 15.4762 29.2145 15.3451 28.876 15.5544L28.875 15.5554L28.6816 15.6726L28.4541 15.8103V15.4089C28.4422 14.752 28.3255 13.2916 28.251 12.8386C27.3133 7.32097 23.0908 3.01937 17.627 1.95679L17.0947 1.86401C16.8079 1.82156 16.17 1.78097 15.5361 1.75757C14.9 1.73409 14.2902 1.72875 14.0566 1.75366H14.0557C11.402 2.0318 9.16632 2.8769 7.19141 4.35034C6.31372 5.0033 5.47523 5.80185 4.80664 6.61792L4.53125 6.96851C4.22162 7.38212 4.15027 7.65189 4.21973 7.87476L4.25781 7.96753C4.33567 8.11739 4.41158 8.20621 4.49805 8.26245C4.58489 8.31878 4.69779 8.35341 4.86816 8.36694C4.96988 8.37239 5.04196 8.36975 5.10352 8.35718C5.16234 8.34511 5.21789 8.32172 5.2832 8.27515C5.42428 8.17452 5.59682 7.97723 5.91113 7.58081L5.91211 7.57983C8.6674 4.13201 13.1845 2.52772 17.5869 3.43921C21.7745 4.3058 25.2469 7.52315 26.4639 11.6169L26.5752 12.0154C26.6702 12.3771 26.788 12.9664 26.8359 13.3298C26.8836 13.6689 26.9313 14.2221 26.96 14.6882C26.9743 14.9214 26.9834 15.1352 26.9863 15.2917C26.9878 15.3694 26.9879 15.4366 26.9854 15.4851C26.9841 15.5083 26.9817 15.5337 26.9775 15.5554C26.9757 15.565 26.9721 15.5837 26.9629 15.6033C26.9583 15.6131 26.9483 15.632 26.9297 15.6501C26.9095 15.6699 26.8728 15.6941 26.8223 15.6941C26.7931 15.6941 26.7688 15.6851 26.7637 15.6833C26.7533 15.6798 26.7431 15.6755 26.7344 15.6716C26.7165 15.6637 26.6954 15.6537 26.6738 15.6423C26.6302 15.6194 26.5762 15.5888 26.5215 15.5554C25.9341 15.197 25.2195 15.8154 25.4834 16.4382L25.4844 16.4412C25.4828 16.4373 25.4855 16.4429 25.499 16.4636C25.5109 16.4819 25.5272 16.5064 25.5488 16.5359C25.5919 16.5946 25.6515 16.6706 25.7227 16.7595C25.8649 16.9373 26.0524 17.1616 26.248 17.3904C26.6427 17.8518 27.0599 18.3167 27.2148 18.4548L27.2168 18.4568C27.2419 18.4799 27.2919 18.514 27.3545 18.5476C27.3852 18.5641 27.4165 18.579 27.4463 18.5916L27.5303 18.6208L27.6436 18.6492C27.6724 18.654 27.6956 18.6554 27.7178 18.6541Z" fill="#003C43" stroke="#F4EBFF" stroke-width="0.3"/>
<path d="M13.0636 7.4251C12.763 7.62381 12.712 7.79704 12.712 8.61736V9.34596L12.2942 9.55486C12.0599 9.67204 11.7287 9.86566 11.5605 9.98285L11.2497 10.1968L10.6281 9.84528C9.95559 9.45805 9.72631 9.39691 9.44098 9.5141C9.19642 9.616 9.12508 9.723 8.23344 11.277C7.54051 12.4896 7.46408 12.6476 7.46408 12.8616C7.46408 13.2335 7.60165 13.3915 8.30477 13.7991L8.91619 14.1506L8.91109 15.0219L8.906 15.8932L8.35063 16.2142C7.60165 16.6472 7.49975 16.7492 7.47427 17.1262L7.45898 17.4217L8.31496 18.8993C9.15056 20.3412 9.17604 20.382 9.41551 20.4992C9.74159 20.6571 9.85878 20.6316 10.6129 20.2036L11.2396 19.847L11.637 20.1119C11.851 20.2597 12.1821 20.4482 12.3656 20.5297L12.7019 20.6826L12.7222 21.4723C12.7375 22.1907 12.7477 22.2773 12.8496 22.42C13.0789 22.7359 13.1349 22.7461 15.0048 22.7461C16.8747 22.7461 16.9308 22.7359 17.1601 22.42C17.262 22.2773 17.2722 22.1907 17.2874 21.4723L17.3078 20.6826L17.639 20.5348C17.8224 20.4482 18.1536 20.2648 18.3778 20.117L18.7854 19.847L19.3968 20.1985C20.1458 20.6265 20.2681 20.6571 20.5942 20.4992C20.8336 20.382 20.8591 20.3412 21.6947 18.8993L22.5507 17.4217L22.5354 17.1313C22.5099 16.7542 22.4284 16.6676 21.6845 16.2294L21.1037 15.883L21.0986 15.0168L21.0935 14.1506L21.7049 13.7991C22.408 13.3966 22.5456 13.2386 22.5456 12.8616C22.5456 12.6476 22.4692 12.4896 21.7762 11.277C20.8846 9.723 20.8133 9.616 20.5687 9.5141C20.2783 9.39181 20.0541 9.45805 19.3815 9.84528L18.765 10.2019L18.4542 9.98285C18.281 9.86566 17.9498 9.67204 17.7205 9.55486L17.2976 9.34596V8.61736C17.2976 7.79704 17.2467 7.62381 16.9461 7.4251C16.7728 7.30791 16.7576 7.30791 15.0048 7.30791C13.2521 7.30791 13.2368 7.30791 13.0636 7.4251ZM15.6927 12.8463C16.8391 13.203 17.5218 14.4258 17.2212 15.5875C17.0429 16.2549 16.6098 16.7797 15.9729 17.0854C15.601 17.2638 15.5755 17.2689 15.0048 17.2689C14.4342 17.2689 14.4087 17.2638 14.0368 17.0854C13.033 16.6014 12.5184 15.5212 12.7885 14.4665C13.1247 13.1826 14.4291 12.454 15.6927 12.8463Z" stroke="#CABBCE" stroke-width="1.6"/>
<path d="M15.1514 28.3062C15.8796 28.3054 16.6034 28.2691 17.0547 28.1968V28.1958C19.4555 27.82 21.6822 26.8288 23.5195 25.3267V25.3257C24.109 24.84 25.2791 23.6256 25.7168 23.0366L25.7178 23.0356C25.8613 22.8459 25.942 22.728 25.9902 22.6323C26.0128 22.5876 26.0286 22.5472 26.04 22.5054L26.0635 22.3687C26.0762 22.2267 26.0618 22.1153 26.0234 22.0171C25.9943 21.9428 25.9489 21.8695 25.8809 21.7935L25.8047 21.7153C25.7469 21.6606 25.6201 21.6074 25.4609 21.5854C25.3043 21.5639 25.153 21.5783 25.0586 21.6196L25.0537 21.6216C25.0519 21.6225 25.0465 21.6258 25.0371 21.6323C25.0242 21.6414 25.0077 21.6547 24.9873 21.6724C24.9463 21.7078 24.8951 21.7568 24.8359 21.8188C24.7767 21.881 24.7109 21.9548 24.6406 22.0366L24.4189 22.3052C22.5372 24.6915 20.0061 26.1887 16.957 26.7173L16.5938 26.7632C16.1869 26.8025 15.6628 26.8218 15.1436 26.8218C14.4517 26.8218 13.7513 26.7877 13.3311 26.7173H13.3301C10.0724 26.1525 7.35796 24.4386 5.44727 21.7407C5.28013 21.5029 5.02161 21.0651 4.7959 20.647L4.58594 20.2427C3.7909 18.6446 3.42795 17.2415 3.32129 15.3882V15.3872C3.30661 15.1019 3.29472 14.8394 3.28809 14.646C3.28477 14.5495 3.2827 14.4685 3.28223 14.4106C3.282 14.3822 3.2825 14.3575 3.2832 14.3384C3.28355 14.3291 3.28406 14.3181 3.28516 14.3081C3.2857 14.3033 3.28633 14.2958 3.28809 14.2876C3.28886 14.2839 3.29393 14.2591 3.31055 14.2339L3.32715 14.2085L3.35156 14.1919C3.39339 14.1637 3.43638 14.1642 3.4502 14.1646C3.46912 14.1651 3.48603 14.1685 3.49805 14.1714C3.52278 14.1773 3.54947 14.1867 3.57324 14.1968L3.7373 14.2837C4.32939 14.6472 5.05116 14.0256 4.78125 13.3901L4.7793 13.3843C4.77804 13.3819 4.77223 13.3724 4.75977 13.353C4.74541 13.3307 4.72587 13.3013 4.7002 13.2661C4.64881 13.1957 4.57818 13.1045 4.49316 12.9985C4.32334 12.7869 4.09867 12.5204 3.8623 12.2485C3.60297 11.9518 3.39921 11.7249 3.23145 11.5542C3.0629 11.3827 2.93674 11.2745 2.83203 11.2095C2.73093 11.1467 2.65494 11.1273 2.58301 11.1284C2.50588 11.1297 2.41785 11.1545 2.29199 11.2075H2.29297C2.27421 11.2156 2.23837 11.2363 2.18164 11.2827C2.12639 11.3279 2.05785 11.3919 1.97266 11.4771C1.80199 11.6477 1.57182 11.899 1.26758 12.2485C0.732597 12.8651 0.45905 13.2056 0.34375 13.4478C0.289168 13.5625 0.275667 13.6451 0.282227 13.7183C0.289107 13.7949 0.319862 13.8772 0.379883 13.9917V13.9927C0.570086 14.3631 1.04627 14.5019 1.38379 14.2983V14.2974L1.56543 14.1792L1.7832 14.0366L1.79785 14.2964L1.83301 14.9312V14.9321C1.94964 17.1522 2.19302 18.3818 2.83594 19.9712L2.83691 19.9722C3.46157 21.534 4.36092 22.9261 5.5752 24.1929L5.82227 24.4448C6.76162 25.3857 7.66842 26.0776 8.77344 26.6802L9.25977 26.9341C10.5768 27.5862 11.77 27.9675 13.2617 28.2026C13.7043 28.272 14.4233 28.3069 15.1514 28.3062Z" fill="#003C43" stroke="#F4EBFF" stroke-width="0.3"/>
</svg>
