<svg width="83" height="80" viewBox="0 0 83 80" fill="none" xmlns="http://www.w3.org/2000/svg">
<g clip-path="url(#clip0_0_2692)">
<path d="M81.9241 70.5692C81.6021 71.0192 81.1372 71.3199 80.5721 71.371L55.9867 71.3668C54.5644 71.2047 54.5793 70.4434 54.622 69.2044C54.8054 64.0737 58.5969 59.024 63.4078 57.318C58.4199 53.0509 60.8467 44.4698 67.4723 43.9047C75.0575 43.2607 78.6465 52.3067 73.1447 57.318C77.0748 58.7468 80.1307 62.1246 81.3654 66.0996L81.9241 68.4943V70.5692ZM67.5192 46.5063C61.286 47.3508 62.3543 57.2412 69.061 56.3477C75.1748 55.5331 74.2557 45.5936 67.5192 46.5063ZM79.2095 68.8121C78.4908 61.7621 71.4792 57.3734 64.7576 59.5486C60.8147 60.8259 57.6181 64.6239 57.3409 68.8121H79.2095Z" fill="#003C43" stroke="#003C43" stroke-width="0.487805"/>
<path d="M18.7131 57.3179C22.9994 58.8554 26.4988 63.001 27.2899 67.4984C27.4904 68.6414 28.0001 70.9125 26.5393 71.2899L1.03911 71.243C-0.312886 70.808 0.220234 68.4942 0.429217 67.3683C1.24809 62.9242 4.73683 58.8384 8.9762 57.3179C2.65126 51.6967 8.49852 41.3606 16.5614 44.3865C22.0334 46.4401 22.9781 53.5157 18.7131 57.3179ZM13.0876 46.5062C6.86078 47.3507 7.92488 57.2411 14.6294 56.3476C20.7432 55.533 19.8241 45.5935 13.0876 46.5062ZM24.7779 68.812C24.2384 62.5084 18.1565 58.0664 11.9681 59.1156C7.26595 59.9131 3.25262 63.9968 2.90929 68.812H24.7779Z" fill="#003C43" stroke="#003C43" stroke-width="0.487805"/>
<path d="M45.8525 14.2223L49.5993 16.4593C52.1753 18.7048 54.1351 21.7223 54.6127 25.1747C54.7812 26.3903 55.1054 28.2903 53.4441 28.4374L28.138 28.3436C27.9759 28.2029 27.7712 28.0429 27.6561 27.8681C27.1229 27.0684 27.5302 25.0767 27.735 24.1149C28.6797 19.6559 32.1385 16.0093 36.2734 14.2991C31.7483 10.7592 33.064 3.23579 38.5466 1.40399C44.7052 -0.653854 50.3755 5.18274 48.0916 11.2688C47.6992 12.3159 46.8399 13.7041 45.8547 14.2202L45.8525 14.2223ZM40.7132 3.56846C34.2646 3.99069 34.6549 14.2863 41.9202 13.4056C47.7696 12.6955 47.1469 3.14836 40.7132 3.56846ZM52.0751 25.8721C50.1644 12.9109 31.9445 12.9215 30.0466 25.8721H52.0751Z" fill="#003C43" stroke="#003C43" stroke-width="0.487805"/>
<path d="M71.1163 41.9513C70.7708 41.6037 70.259 38.6225 70.033 37.8462C67.7619 30.0563 62.806 24.079 55.9799 19.8161C55.1696 18.9823 55.997 17.6218 57.0888 17.7327C57.6945 17.7945 59.5113 19.0975 60.1084 19.5176C65.333 23.2004 69.6534 28.9218 71.8307 34.9311C72.3147 36.2661 73.5558 40.1621 73.2722 41.4011C73.0526 42.3628 71.7539 42.5868 71.1163 41.9491V41.9513Z" fill="#CABBCE" stroke="#CABBCE" stroke-width="0.487805"/>
<path d="M24.8999 17.7624C26.2903 17.4894 27.0687 19.0397 25.7231 20.1934C24.5011 21.2404 22.7397 22.0934 21.4261 23.2386C16.9714 27.1154 13.7406 32.163 12.0901 37.8461C11.7638 38.9677 11.5271 41.8978 10.4204 42.2454C7.66095 43.1154 9.36053 37.861 9.69533 36.7286C11.6785 29.9921 16.2868 23.5584 22.0147 19.5195C22.6096 19.1016 24.2943 17.8839 24.8978 17.7645L24.8999 17.7624Z" fill="#CABBCE" stroke="#CABBCE" stroke-width="0.487805"/>
<path d="M29.364 74.2733C30.3236 74.0622 31.778 74.864 32.761 75.1178C38.5998 76.619 43.3893 76.6574 49.2366 75.1519C50.2879 74.8811 52.4204 73.7125 53.2797 74.5527C55.4655 76.6873 49.0446 77.9177 47.9272 78.1523C42.4894 79.2953 36.463 79.0799 31.1659 77.3526C30.2767 77.0626 28.4172 76.6212 28.4577 75.4547C28.4769 74.9322 28.8373 74.3906 29.364 74.2754V74.2733Z" fill="#CABBCE" stroke="#CABBCE" stroke-width="0.487805"/>
</g>
<defs>
<clipPath id="clip0_0_2692">
<rect width="83" height="80" fill="white"/>
</clipPath>
</defs>
</svg>
