<svg width="80" height="80" viewBox="0 0 80 80" fill="none" xmlns="http://www.w3.org/2000/svg">
<path d="M64.5509 8.67287L54.3761 23.6949C54.4188 25.3284 54.5896 26.3854 53.7035 27.8481C51.771 31.0084 46.8384 30.7628 45.301 27.389C44.7458 26.1719 45.0661 25.211 44.7565 24.0365L34.9233 19.0399C33.3325 22.5952 28.0796 22.8408 26.35 19.2854L13.8671 29.3994C17.1448 31.7269 16.5915 36.8058 12.6625 37.7987C5.59458 39.571 3.99308 29.0439 11.1571 28.3392L25.7307 16.5629C26.713 11.0858 34.1866 10.9043 35.3504 16.3494L46.1444 21.9226C47.2014 20.4278 49.3688 20.0969 51.077 20.556C51.8244 20.7588 52.2515 21.2606 52.9454 21.4955C56.6182 15.965 60.3443 10.4772 64.0171 4.94673C64.0836 4.84701 64.1467 4.75146 64.2073 4.65944C65.3033 2.99476 66.9511 1.48026 68.9415 1.58505C72.1192 1.75237 74.649 5.15283 73.0282 8.50204C71.3733 11.9079 66.3019 12.1748 64.5723 8.7049L64.5509 8.67287ZM66.9532 4.66913C64.5082 7.12476 68.907 10.5733 70.7114 7.57318C72.1313 5.22432 68.939 2.6726 66.9532 4.66913ZM29.8946 14.7906C27.2895 15.3351 27.7059 20.1075 31.1971 19.3602C33.9197 18.7836 33.2898 14.0859 29.8946 14.7906ZM49.4008 22.734C45.8989 23.0116 47.0946 28.8303 50.6286 27.2502C52.9881 26.1932 51.9952 22.5311 49.4008 22.734ZM13.207 31.4888C10.997 29.2788 7.6872 32.6312 9.72643 34.8093C11.8938 37.1368 15.4278 33.7096 13.207 31.4888Z" fill="#CABBCE" stroke="#CABBCE"/>
<path d="M74.3852 17.1572V77.6617H63.0039V17.1572H74.3852ZM71.8869 19.4954H65.4916V75.1634H71.8869V19.4954Z" fill="#003C43" stroke="#003C43"/>
<path d="M36.183 27.7593V77.6619H24.9512V27.7593H36.183ZM33.8341 30.2469H27.2894V75.1528H33.8341V30.2469Z" fill="#003C43" stroke="#003C43"/>
<path d="M55.3579 35.8628V77.4162L55.123 77.6511H43.9766V35.8628H55.3579ZM52.8595 38.3611H46.3147V75.1635H52.8595V38.3611Z" fill="#003C43" stroke="#003C43"/>
<path d="M17.1576 43.0376V77.6512H5.76562V43.0376H17.1469H17.1576ZM14.6593 45.3758H8.26396V75.1636H14.6593V45.3758Z" fill="#003C43" stroke="#003C43"/>
</svg>
