<svg width="80" height="80" viewBox="0 0 80 80" fill="none" xmlns="http://www.w3.org/2000/svg">
<g clip-path="url(#clip0_0_2747)">
<g clip-path="url(#clip1_0_2747)">
<path d="M41.7014 0.776855V9.35464H69.2421V14.3546H66.131L79.2199 43.5991C79.4644 56.088 65.9088 64.1991 54.9533 57.888C49.8422 54.9324 46.0866 48.5324 47.1755 42.5769L59.731 14.3546H41.7014V61.9102H66.3533C67.8422 61.9102 70.8866 63.2213 72.1977 64.0213C77.4422 67.2435 79.731 72.9991 79.2199 79.0658H0.93104C0.419929 72.9769 2.79771 67.0435 8.15326 63.9102C9.37548 63.1991 12.4199 61.9102 13.7977 61.9102L38.4778 62.0556V14.5L20.4199 14.3546L33.1977 43.4435C33.0866 65.4435 1.30882 65.3991 0.93104 43.4435L14.0422 14.3546H10.931V9.35464L38.5 9.5V0.92222L41.7237 0.776855H41.7014ZM72.8199 41.1769L63.1533 19.6657L53.331 41.1769H72.8199ZM26.8199 41.3324L16.9977 19.8213L7.33104 41.3324H26.8199ZM27.9088 46.4657H6.24215C8.86437 57.7546 25.331 57.8657 27.9088 46.4657ZM73.7533 46.4657H52.0866C54.8866 57.7102 71.0866 57.9102 73.7533 46.4657ZM73.7533 74.0658C72.8866 70.1324 69.3533 67.288 65.3977 66.888C48.1088 67.0213 30.7755 66.6213 13.5088 67.088C10.0866 67.8658 7.10882 70.5769 6.37548 74.0658H73.7533Z" fill="#003C43" stroke="white" stroke-width="1.8"/>
<path d="M38 0H42V62H38V0Z" fill="white"/>
<path d="M38 2H42V62H38V2Z" fill="#CABBCE"/>
</g>
</g>
<defs>
<clipPath id="clip0_0_2747">
<rect width="80" height="80" fill="white"/>
</clipPath>
<clipPath id="clip1_0_2747">
<rect width="80" height="80" fill="white"/>
</clipPath>
</defs>
</svg>
