<svg width="124" height="30" viewBox="0 0 124 30" fill="none" xmlns="http://www.w3.org/2000/svg">
<path d="M113.427 29.397C111.978 29.397 110.611 29.192 109.327 28.782C108.042 28.372 106.867 27.757 105.801 26.937C104.735 26.117 103.792 25.1057 102.972 23.903L105.186 21.443C106.47 23.2743 107.782 24.559 109.122 25.297C110.488 26.035 112.019 26.404 113.714 26.404C114.944 26.404 116.064 26.199 117.076 25.789C118.087 25.379 118.88 24.805 119.454 24.067C120.028 23.329 120.315 22.4817 120.315 21.525C120.315 20.8963 120.205 20.336 119.987 19.844C119.795 19.352 119.495 18.9147 119.085 18.532C118.675 18.1493 118.169 17.8077 117.568 17.507C116.966 17.2063 116.269 16.933 115.477 16.687C114.711 16.441 113.85 16.195 112.894 15.949C111.5 15.621 110.27 15.2383 109.204 14.801C108.165 14.3363 107.277 13.776 106.539 13.12C105.828 12.464 105.281 11.7123 104.899 10.865C104.543 9.99033 104.366 8.96533 104.366 7.79C104.366 6.66933 104.598 5.63067 105.063 4.674C105.555 3.71733 106.224 2.89733 107.072 2.214C107.919 1.50333 108.917 0.956666 110.065 0.573999C111.213 0.191333 112.443 0 113.755 0C115.231 0 116.543 0.204999 117.691 0.614999C118.866 0.997665 119.905 1.57167 120.807 2.337C121.709 3.10233 122.488 4.018 123.144 5.084L120.889 7.298C120.315 6.396 119.659 5.617 118.921 4.961C118.21 4.305 117.417 3.813 116.543 3.485C115.695 3.12967 114.752 2.952 113.714 2.952C112.511 2.952 111.445 3.157 110.516 3.567C109.614 3.977 108.903 4.551 108.384 5.289C107.864 5.99967 107.605 6.81966 107.605 7.749C107.605 8.43233 107.728 9.04733 107.974 9.594C108.22 10.1133 108.602 10.578 109.122 10.988C109.668 11.3707 110.365 11.726 111.213 12.054C112.087 12.3547 113.126 12.6417 114.329 12.915C115.75 13.243 117.021 13.6393 118.142 14.104C119.29 14.5687 120.26 15.129 121.053 15.785C121.873 16.4137 122.488 17.1517 122.898 17.999C123.335 18.8463 123.554 19.8167 123.554 20.91C123.554 22.6047 123.13 24.0943 122.283 25.379C121.435 26.6363 120.246 27.6203 118.716 28.331C117.212 29.0417 115.449 29.397 113.427 29.397Z" fill="#003C43"/>
<path d="M77.9961 28.987V0.286987H89.2301C90.8974 0.286987 92.4008 0.683321 93.7401 1.47599C95.1068 2.24132 96.1864 3.29365 96.9791 4.63299C97.7718 5.97232 98.1681 7.48932 98.1681 9.18399C98.1681 10.7693 97.7854 12.2043 97.0201 13.489C96.2548 14.7737 95.2161 15.7987 93.9041 16.564C92.5921 17.302 91.1161 17.671 89.4761 17.671H81.1941V28.987H77.9961ZM95.5031 28.987L88.2871 16.359L91.3621 15.293L99.3161 28.987H95.5031ZM81.1941 14.555H89.7631C90.7744 14.555 91.6628 14.3227 92.4281 13.858C93.1934 13.3933 93.7948 12.7647 94.2321 11.972C94.6694 11.152 94.8881 10.2227 94.8881 9.18399C94.8881 8.06332 94.6284 7.06565 94.1091 6.19099C93.5898 5.31632 92.8654 4.63299 91.9361 4.14099C91.0341 3.64899 89.9954 3.40299 88.8201 3.40299H81.1941V14.555Z" fill="#003C43"/>
<path d="M47.2119 28.987L58.1999 0.286987H61.8489L72.7549 28.987H69.2699L62.2589 10.373C62.0676 9.85366 61.8489 9.25232 61.6029 8.56899C61.3842 7.85832 61.1382 7.13399 60.8649 6.39599C60.6189 5.63065 60.3729 4.89265 60.1269 4.18199C59.9082 3.47132 59.7032 2.84265 59.5119 2.29599H60.3319C60.1132 2.97932 59.8809 3.67632 59.6349 4.38699C59.4162 5.07032 59.1839 5.76732 58.9379 6.47799C58.6919 7.16132 58.4459 7.84466 58.1999 8.52799C57.9539 9.21132 57.7079 9.89466 57.4619 10.578L50.4919 28.987H47.2119ZM51.8859 21.074L53.0749 17.958H66.6459L67.9579 21.074H51.8859Z" fill="#003C43"/>
<path d="M19.625 28.987L30.613 0.286987H34.262L45.168 28.987H41.683L34.672 10.373C34.4807 9.85366 34.262 9.25232 34.016 8.56899C33.7973 7.85832 33.5513 7.13399 33.278 6.39599C33.032 5.63065 32.786 4.89265 32.54 4.18199C32.3213 3.47132 32.1163 2.84265 31.925 2.29599H32.745C32.5263 2.97932 32.294 3.67632 32.048 4.38699C31.8293 5.07032 31.597 5.76732 31.351 6.47799C31.105 7.16132 30.859 7.84466 30.613 8.52799C30.367 9.21132 30.121 9.89466 29.875 10.578L22.905 28.987H19.625ZM24.299 21.074L25.488 17.958H39.059L40.371 21.074H24.299Z" fill="#003C43"/>
<path d="M0 28.987V0.286987H11.357C12.8603 0.286987 14.2133 0.655987 15.416 1.39399C16.6187 2.13199 17.5753 3.15699 18.286 4.46899C18.9967 5.75366 19.352 7.20232 19.352 8.81499C19.352 10.5097 18.9967 12.0267 18.286 13.366C17.5753 14.678 16.6187 15.7303 15.416 16.523C14.2133 17.2883 12.8603 17.671 11.357 17.671H3.198V28.987H0ZM3.198 14.555H11.521C12.3683 14.555 13.12 14.309 13.776 13.817C14.4593 13.2977 15.006 12.6143 15.416 11.767C15.826 10.8923 16.031 9.89465 16.031 8.77399C16.031 7.76265 15.826 6.86065 15.416 6.06799C15.006 5.24799 14.4593 4.60565 13.776 4.14099C13.12 3.64899 12.3683 3.40299 11.521 3.40299H3.198V14.555Z" fill="#003C43"/>
</svg>
