<svg width="30" height="32" viewBox="0 0 30 32" fill="none" xmlns="http://www.w3.org/2000/svg">
<path d="M18.6914 0.822266V6.76457C18.6914 7.56932 19.0136 8.34268 19.5837 8.91278C20.157 9.4835 20.933 9.80378 21.7419 9.80347H28.5583" stroke="#CABBCE" stroke-width="1.6" stroke-linecap="round" stroke-linejoin="round"/>
<path d="M7.88501 8.90926H13.2803M7.88501 16.1025H22.2715M7.88501 23.2957H22.2715M28.7112 10.4312V24.5896C28.6783 25.5157 28.4626 26.4261 28.0763 27.2685C27.69 28.1108 27.1409 28.8683 26.4605 29.4975C25.7795 30.1295 24.9807 30.6212 24.1097 30.9444C23.2387 31.2676 22.3125 31.4161 21.3841 31.3813H8.84179C7.90771 31.424 6.97439 31.2819 6.09534 30.9631C5.21628 30.6444 4.40878 30.1553 3.71912 29.5239C3.03213 28.8931 2.47736 28.132 2.08701 27.2849C1.69667 26.4379 1.47855 25.5217 1.44531 24.5896V7.61207C1.47812 6.68598 1.69388 5.77554 2.08016 4.93321C2.46644 4.09089 3.0156 3.33334 3.69598 2.70422C4.37694 2.07218 5.17574 1.5805 6.04677 1.25727C6.9178 0.934039 7.84397 0.785587 8.77239 0.820396H18.2146C19.656 0.815304 21.0474 1.34863 22.1161 2.31589L27.0075 6.81392C27.5294 7.26353 27.9508 7.81797 28.2444 8.44119C28.5379 9.06441 28.6969 9.74245 28.7112 10.4312Z" stroke="#003C43" stroke-width="1.6" stroke-linecap="round" stroke-linejoin="round"/>
</svg>
