<svg width="77" height="80" viewBox="0 0 77 80" fill="none" xmlns="http://www.w3.org/2000/svg">
<path d="M32.1869 68.636V74.6123C32.1869 76.2447 33.0974 77.5846 34.2178 77.5846H42.3455C43.4738 77.5846 44.3804 76.2407 44.3804 74.6123V68.636M35.1957 26.9762C32.858 26.9772 30.6165 27.9051 28.964 29.5557C27.3114 31.2063 26.3831 33.4447 26.3831 35.7785M67.3105 39.6559H74.5712M60.0023 15.8932L65.1529 10.7509M63.9613 59.7981L69.1118 64.9364M38.2836 2V7.86163M11.5212 10.747L16.6362 15.8932M7.5623 64.9364L12.6772 59.7981M9.25672 39.6559H2" stroke="#CABBCE" stroke-width="3.2" stroke-linecap="round" stroke-linejoin="round"/>
<path d="M59.0797 41.9719C57.9553 51.3197 51.8229 55.0548 49.1744 57.7663C46.5219 60.4856 46.997 61.0271 47.1751 65.0153C47.2049 65.5087 47.1331 66.003 46.9642 66.4676C46.7953 66.9323 46.5329 67.3575 46.1932 67.7171C45.8534 68.0767 45.4435 68.363 44.9887 68.5584C44.5339 68.7537 44.0439 68.8541 43.5488 68.8532H33.0259C32.5311 68.8523 32.0417 68.7509 31.5875 68.5549C31.1333 68.359 30.7239 68.0727 30.3842 67.7136C30.0445 67.3544 29.7816 66.93 29.6116 66.466C29.4417 66.0021 29.3681 65.5085 29.3956 65.0153C29.3956 61.1022 29.7598 60.1932 27.4003 57.7663C24.3915 54.7624 17.3129 50.5213 17.3129 38.8573C17.2948 35.9601 17.8781 33.0905 19.026 30.4295C20.1739 27.7685 21.8614 25.3738 23.9823 23.3963C26.1032 21.4188 28.6114 19.9014 31.3488 18.9397C34.0863 17.978 36.9936 17.593 39.8875 17.8088C42.7814 18.0246 45.5991 18.8366 48.1631 20.1936C50.7271 21.5506 52.9817 23.4232 54.7848 25.6933C56.5879 27.9634 57.9004 30.5819 58.6396 33.3836C59.3788 36.1853 59.5286 39.1095 59.0797 41.9719Z" stroke="#003C43" stroke-width="3.2" stroke-linecap="round" stroke-linejoin="round"/>
</svg>
