<svg width="80" height="80" viewBox="0 0 80 80" fill="none" xmlns="http://www.w3.org/2000/svg">
<g clip-path="url(#clip0_0_4079)">
<path d="M79.2008 7.33413V72.6674C79.2008 76.2756 76.2756 79.2006 72.6674 79.2008H7.33413C3.72575 79.2009 0.800781 76.2758 0.800781 72.6674V7.33413C0.800781 3.72584 3.72584 0.800781 7.33413 0.800781H72.6674C76.2757 0.800781 79.2008 3.72584 79.2008 7.33413ZM7.33413 72.6674H17.1341V7.33413H7.33413V72.6674ZM72.6674 72.6674V7.33413H23.6674V72.6674H72.6674Z" fill="#003C43"/>
<path d="M72.6674 79.2008V80.7008H72.6675L72.6674 79.2008ZM7.33413 79.2008V77.7008H7.33406L7.33413 79.2008ZM7.33413 72.6674H5.83413C5.83413 73.4959 6.5057 74.1674 7.33413 74.1674V72.6674ZM17.1341 72.6674V74.1674H18.6341V72.6674H17.1341ZM17.1341 7.33413H18.6341V5.83413H17.1341V7.33413ZM7.33413 7.33413V5.83413C6.5057 5.83413 5.83413 6.5057 5.83413 7.33413H7.33413ZM72.6674 72.6674V74.1674C73.4959 74.1674 74.1674 73.4959 74.1674 72.6674H72.6674ZM72.6674 7.33413H74.1674C74.1674 6.5057 73.4959 5.83413 72.6674 5.83413V7.33413ZM23.6674 7.33413V5.83413H22.1674V7.33413H23.6674ZM23.6674 72.6674H22.1674V74.1674H23.6674V72.6674ZM79.2008 7.33413H77.7008V72.6674H79.2008H80.7008V7.33413H79.2008ZM79.2008 72.6674H77.7008C77.7008 75.4471 75.4472 77.7007 72.6674 77.7008L72.6674 79.2008L72.6675 80.7008C77.104 80.7006 80.7008 77.1041 80.7008 72.6674H79.2008ZM72.6674 79.2008V77.7008H7.33413V79.2008V80.7008H72.6674V79.2008ZM7.33413 79.2008L7.33406 77.7008C4.55422 77.7009 2.30078 75.4474 2.30078 72.6674H0.800781H-0.699219C-0.699219 77.1042 2.89728 80.701 7.33419 80.7008L7.33413 79.2008ZM0.800781 72.6674H2.30078V7.33413H0.800781H-0.699219V72.6674H0.800781ZM0.800781 7.33413H2.30078C2.30078 4.55427 4.55427 2.30078 7.33413 2.30078V0.800781V-0.699219C2.89742 -0.699219 -0.699219 2.89742 -0.699219 7.33413H0.800781ZM7.33413 0.800781V2.30078H72.6674V0.800781V-0.699219H7.33413V0.800781ZM72.6674 0.800781V2.30078C75.4473 2.30078 77.7008 4.55427 77.7008 7.33413H79.2008H80.7008C80.7008 2.89742 77.1041 -0.699219 72.6674 -0.699219V0.800781ZM7.33413 72.6674V74.1674H17.1341V72.6674V71.1674H7.33413V72.6674ZM17.1341 72.6674H18.6341V7.33413H17.1341H15.6341V72.6674H17.1341ZM17.1341 7.33413V5.83413H7.33413V7.33413V8.83413H17.1341V7.33413ZM7.33413 7.33413H5.83413V72.6674H7.33413H8.83413V7.33413H7.33413ZM72.6674 72.6674H74.1674V7.33413H72.6674H71.1674V72.6674H72.6674ZM72.6674 7.33413V5.83413H23.6674V7.33413V8.83413H72.6674V7.33413ZM23.6674 7.33413H22.1674V72.6674H23.6674H25.1674V7.33413H23.6674ZM23.6674 72.6674V74.1674H72.6674V72.6674V71.1674H23.6674V72.6674Z" fill="white"/>
<path d="M32.0001 33.6001C32 32.7717 32.6716 32.1001 33.5001 32.1001H59.5C60.3284 32.1001 61 32.7717 61 33.6001C61 34.4285 60.3284 35.1001 59.5 35.1001H33.5001C32.6716 35.1001 32.0001 34.4286 32.0001 33.6001Z" fill="#CABBCE"/>
<path d="M32.0001 46.6001C32 45.7717 32.6716 45.1001 33.5001 45.1001H59.5C60.3284 45.1001 61 45.7717 61 46.6001C61 47.4285 60.3284 48.1001 59.5 48.1001H33.5001C32.6716 48.1001 32.0001 47.4286 32.0001 46.6001Z" fill="#CABBCE"/>
</g>
<defs>
<clipPath id="clip0_0_4079">
<rect width="80" height="80" fill="white"/>
</clipPath>
</defs>
</svg>
