<svg width="66" height="60" viewBox="0 0 66 60" fill="none" xmlns="http://www.w3.org/2000/svg">
<path d="M18.2715 15.0266V4.37058C18.2715 3.7087 18.5565 3.07395 19.0638 2.60592C19.571 2.13792 20.2591 1.875 20.9765 1.875H47.2418L62.9849 16.524V55.6295C62.9849 56.2913 62.6998 56.926 62.1925 57.394C61.6853 57.862 60.9972 58.125 60.28 58.125H42.6165" stroke="#CABBCE" stroke-width="2.6014" stroke-linecap="round" stroke-linejoin="round"/>
<path d="M46.6758 1.92627V14.4041C46.6758 15.0659 46.9609 15.7007 47.4681 16.1687C47.9754 16.6367 48.6634 16.8996 49.3807 16.8996H62.9058" stroke="#CABBCE" stroke-width="2.6014" stroke-linecap="round" stroke-linejoin="round"/>
<path d="M53.576 26.2573H34.5059" stroke="#CABBCE" stroke-width="2.6014" stroke-linecap="round" stroke-linejoin="round"/>
<path d="M53.578 46.2209H46.0039" stroke="#CABBCE" stroke-width="2.6014" stroke-linecap="round" stroke-linejoin="round"/>
<path d="M53.5772 36.238H38.5645" stroke="#CABBCE" stroke-width="2.6014" stroke-linecap="round" stroke-linejoin="round"/>
<path d="M2.04492 50.5883L4.07365 58.0748H32.4759L34.5047 50.5883" stroke="#003C43" stroke-width="2.6014" stroke-linecap="round" stroke-linejoin="round"/>
<path d="M26.3897 43.1018H22.3323V36.4385C23.8793 35.6145 25.0884 34.3425 25.7721 32.82C26.4557 31.2973 26.5756 29.6093 26.1132 28.0173C25.6509 26.4253 24.6321 25.0188 23.2149 24.0154C21.7977 23.0121 20.0612 22.4683 18.2748 22.4683C16.4884 22.4683 14.752 23.0121 13.3347 24.0154C11.9175 25.0188 10.8987 26.4253 10.4364 28.0173C9.97403 29.6093 10.094 31.2973 10.7776 32.82C11.4612 34.3425 12.6703 35.6145 14.2173 36.4385V43.1018H10.1599C8.00764 43.1018 5.94359 43.8905 4.42175 45.2945C2.89987 46.6985 2.04492 48.6028 2.04492 50.5885H34.5047C34.5047 48.6028 33.6497 46.6985 32.1279 45.2945C30.6061 43.8905 28.5421 43.1018 26.3897 43.1018Z" stroke="#003C43" stroke-width="2.6014" stroke-linecap="round" stroke-linejoin="round"/>
</svg>
