<svg width="61" height="42" viewBox="0 0 61 42" fill="none" xmlns="http://www.w3.org/2000/svg">
<path d="M30.0518 0.836914C30.2434 0.787385 30.4451 0.78752 30.6367 0.836914V0.837891L43.4326 4.22461L43.543 4.25293L43.6436 4.20312L49.7998 1.125C50.1606 0.944799 50.5537 0.837028 50.9561 0.808594C51.3585 0.780188 51.7629 0.831229 52.1455 0.958984C52.5281 1.08671 52.8819 1.28836 53.1865 1.55273C53.4911 1.81711 53.7407 2.13923 53.9209 2.5V2.50098L60.0654 14.7959C60.4296 15.5244 60.4889 16.3679 60.2314 17.1406C59.9739 17.9134 59.4199 18.5526 58.6914 18.917L52.2607 22.1328L52.2168 22.1543L52.1826 22.1885L38.8613 35.5107C38.6468 35.7256 38.3554 35.8464 38.0518 35.8467H38.0508C37.9549 35.8472 37.8586 35.8358 37.7656 35.8125V35.8115L22.3506 31.958C22.2146 31.9222 22.0858 31.8616 21.9717 31.7793L21.9707 31.7783L8.57715 22.2119L8.55762 22.1982L8.53711 22.1875L1.99805 18.917C1.26953 18.5526 0.715597 17.9134 0.458008 17.1406C0.200514 16.3679 0.259891 15.5245 0.624023 14.7959L6.76855 2.50098V2.5C6.94872 2.13905 7.19835 1.81726 7.50293 1.55273C7.80773 1.28808 8.16201 1.08578 8.54492 0.958008C8.9277 0.830294 9.33187 0.779086 9.73438 0.807617C10.137 0.836201 10.5306 0.944417 10.8916 1.125L17.0449 4.20312L17.1465 4.25293L17.2559 4.22461L30.0527 0.837891L30.0518 0.836914ZM30.2676 3.15039L17.9453 6.41211L17.8145 6.44629L17.7539 6.56738L10.7256 20.6211L10.6113 20.8506L10.8203 21L23.0791 29.7568L23.126 29.79L23.1807 29.8047L37.5361 33.3926L37.7012 33.4346L37.8213 33.3145L45.7305 25.3994L45.9678 25.1631L45.7061 24.9531L38.3096 19.0234L38.1152 18.8682L37.9268 19.0303C33.4301 22.8967 27.6659 23.4581 22.917 20.4238L22.916 20.4229C22.5275 20.1761 22.1995 19.8447 21.9561 19.4541C21.7127 19.0635 21.5601 18.6234 21.5098 18.166C21.4594 17.7086 21.5125 17.2457 21.665 16.8115C21.8172 16.3786 22.0646 15.985 22.3887 15.6602L33.3955 4.97852L33.3965 4.97754C33.5531 4.82475 33.751 4.72135 33.9658 4.67969L33.9863 4.09473L30.4219 3.15039L30.3447 3.12988L30.2676 3.15039ZM34.5752 7.02832L23.9912 17.2891L23.9834 17.2969C23.9057 17.3783 23.8467 17.4761 23.8115 17.583C23.7772 17.6874 23.7666 17.7981 23.7793 17.9072V17.9082C23.7915 18.0274 23.8309 18.1426 23.8945 18.2441C23.9581 18.3455 24.0446 18.4303 24.1465 18.4932C25.794 19.5459 27.912 20.2213 30.2002 20.0488C32.3513 19.8866 34.634 18.9769 36.7998 16.9609L37.2314 16.543C37.4306 16.343 37.6967 16.2239 37.9785 16.208C38.2601 16.1922 38.5375 16.2808 38.7578 16.457L47.3809 23.3643L47.5898 23.5322L47.7793 23.3428L49.9932 21.1416L50.1475 20.9893L50.0498 20.7949L43.124 6.94336H34.6621L34.5752 7.02832ZM9.52148 3.09277C9.37614 3.09193 9.23341 3.13125 9.10938 3.20703C8.9851 3.28297 8.88489 3.39242 8.81934 3.52246L9.06152 3.64453L8.97168 3.59961L8.81836 3.52246V3.52344L2.67188 15.8213C2.5797 16.0059 2.56427 16.2201 2.62891 16.416V16.415C2.65905 16.5129 2.70818 16.6037 2.77344 16.6826C2.84061 16.7639 2.92293 16.8315 3.0166 16.8799L3.02051 16.8809L8.37012 19.5547L8.6377 19.6895L8.77246 19.4209L15.3525 6.25098L15.4863 5.98242L15.2178 5.84863L9.86914 3.1748H9.86816C9.7604 3.12112 9.64188 3.09303 9.52148 3.09277ZM51.1152 3.09375C51.0384 3.09928 50.9623 3.11604 50.8906 3.14355L50.8203 3.1748L45.4707 5.84863L45.2031 5.98242L45.3369 6.25098L51.917 19.4209L52.0518 19.6895L52.3203 19.5547L57.6689 16.8691H57.6699C57.7616 16.823 57.8431 16.7585 57.9102 16.6807C57.977 16.603 58.0284 16.5133 58.0605 16.416C58.1171 16.2445 58.1127 16.0589 58.0488 15.8916L58.0176 15.8213L51.8711 3.52344L51.8701 3.52246C51.824 3.43083 51.7603 3.34924 51.6826 3.28223C51.6048 3.21516 51.5145 3.16401 51.417 3.13184H51.418C51.3205 3.09937 51.2177 3.08645 51.1152 3.09375Z" fill="#003C43" stroke="#F2F9FA" stroke-width="0.6"/>
<path d="M12.7998 33.4141L18.8864 37.7616C19.0934 37.9095 19.3268 38.0165 19.574 38.0769L29.4855 40.4998" stroke="#CABBCE" stroke-width="1.6" stroke-linecap="round"/>
</svg>
