<svg width="43" height="32" viewBox="0 0 43 32" fill="none" xmlns="http://www.w3.org/2000/svg">
<g clip-path="url(#clip0_279_1114)">
<path d="M41.9605 10.9565L37.7514 2.53345C37.6158 2.26206 37.4282 2.02003 37.1991 1.82116C36.97 1.6223 36.704 1.4705 36.4163 1.37443C36.1286 1.27837 35.8247 1.23992 35.5221 1.26128C35.2195 1.28264 34.9241 1.36339 34.6527 1.49892L30.4354 3.60758L21.669 1.28772C21.5034 1.24483 21.3297 1.24483 21.1641 1.28772L12.3977 3.60758L8.18204 1.49892C7.91057 1.36313 7.615 1.28217 7.31222 1.26068C7.00945 1.23919 6.7054 1.27758 6.41747 1.37366C6.12954 1.46973 5.86337 1.62162 5.63418 1.82062C5.40498 2.01963 5.21725 2.26185 5.08172 2.53345L0.872616 10.9565C0.598776 11.5044 0.553754 12.1387 0.747449 12.7197C0.941144 13.3008 1.3577 13.7812 1.9055 14.0552L6.38521 16.2958L15.5608 22.8495C15.6602 22.9212 15.7721 22.9738 15.8908 23.0046L26.4506 25.6446C26.531 25.6647 26.6136 25.6747 26.6965 25.6743C26.959 25.674 27.2106 25.5696 27.3961 25.3839L36.5221 16.2579L40.9276 14.0552C41.4754 13.7812 41.892 13.3008 42.0857 12.7197C42.2793 12.1387 42.2343 11.5044 41.9605 10.9565ZM33.2156 16.7578L27.3086 12.0257C27.1181 11.8733 26.878 11.7965 26.6344 11.8102C26.3908 11.8239 26.1609 11.9271 25.9887 12.1C22.9114 15.2003 19.4712 14.8092 17.2784 13.4068C17.2353 13.3802 17.1989 13.344 17.172 13.3011C17.1451 13.2582 17.1284 13.2096 17.1233 13.1593C17.1174 13.1131 17.122 13.0661 17.1365 13.0219C17.1511 12.9777 17.1753 12.9372 17.2074 12.9035L24.4575 5.87464H30.0443L34.7319 15.2498L33.2156 16.7578ZM2.6249 12.0934C2.59761 12.0107 2.60414 11.9205 2.64305 11.8426L6.8538 3.41783C6.88148 3.36291 6.92395 3.31681 6.97643 3.28475C7.0289 3.25268 7.0893 3.23591 7.1508 3.23634C7.20177 3.23639 7.25203 3.24825 7.29765 3.27099L10.9623 5.10245L6.45451 14.1245L2.7899 12.293C2.75035 12.2726 2.71535 12.2444 2.68699 12.2101C2.65863 12.1758 2.63751 12.1361 2.6249 12.0934ZM26.3929 23.5887L16.559 21.1303L8.16059 15.131L12.9752 5.5034L21.4165 3.26934L23.8585 3.91612C23.6718 3.95226 23.4997 4.04231 23.3635 4.17517L15.8231 11.4928C15.5783 11.7375 15.3916 12.034 15.2768 12.3606C15.162 12.6871 15.122 13.0353 15.1599 13.3793C15.1978 13.7234 15.3124 14.0545 15.4955 14.3483C15.6786 14.6421 15.9253 14.8909 16.2175 15.0765C19.5537 17.2083 23.6011 16.8073 26.7443 14.1047L31.8114 18.1669L26.3929 23.5887ZM40.2082 12.0934C40.1946 12.1346 40.1731 12.1727 40.1448 12.2055C40.1164 12.2383 40.0819 12.2653 40.0432 12.2848L36.3786 14.1245L31.8708 5.10245L35.5355 3.27099C35.5743 3.2515 35.6165 3.23986 35.6599 3.23675C35.7032 3.23363 35.7467 3.2391 35.7879 3.25284C35.8291 3.26642 35.8672 3.28798 35.9 3.31629C35.9329 3.3446 35.9598 3.37911 35.9793 3.41783L40.1901 11.8426C40.229 11.9205 40.2355 12.0107 40.2082 12.0934Z" fill="#003C43"/>
<path d="M5.16992 25.6816L9.4887 28.7665C9.532 28.7974 9.58081 28.8198 9.6325 28.8324L16.6005 30.5357" stroke="#CABBCE" stroke-width="1.6" stroke-linecap="round"/>
</g>
<defs>
<clipPath id="clip0_279_1114">
<rect width="42.2484" height="32" fill="white"/>
</clipPath>
</defs>
</svg>
