<svg width="42" height="42" viewBox="0 0 42 42" fill="none" xmlns="http://www.w3.org/2000/svg">
<path d="M22.9961 11.0001L14.399 2.40304C13.496 1.50445 12.274 1 11.0001 1C9.72626 1 8.50422 1.50445 7.60128 2.40304L2.40304 7.60128C1.50445 8.50422 1 9.72626 1 11.0001C1 12.274 1.50445 13.496 2.40304 14.399L11.0001 22.9961M30.9934 18.9974L39.5905 27.5945C41.4698 29.4739 41.4698 32.5129 39.5905 34.3922L34.3922 39.5905C32.5129 41.4698 29.4739 41.4698 27.5945 39.5905L18.9974 30.9934M39.3386 10.6243C40.3956 9.56746 40.9896 8.13404 40.9898 6.63931C40.99 5.14459 40.3964 3.71101 39.3396 2.65395C38.2828 1.59689 36.8493 1.00293 35.3546 1.00275C33.8599 1.00256 32.4263 1.59616 31.3693 2.65295L4.68627 29.3419C4.22206 29.8048 3.87877 30.3747 3.6866 31.0014L1.04549 39.7024C0.993823 39.8754 0.989921 40.059 1.0342 40.234C1.07848 40.4089 1.16929 40.5686 1.297 40.6961C1.42471 40.8236 1.58455 40.9142 1.75957 40.9582C1.93459 41.0022 2.11825 40.998 2.29107 40.946L10.9941 38.3069C11.6203 38.1165 12.1901 37.7753 12.6536 37.3132L39.3386 10.6243Z" stroke="#003C43" stroke-width="1.6" stroke-linecap="round" stroke-linejoin="round"/>
</svg>
