<svg width="54" height="60" viewBox="0 0 54 60" fill="none" xmlns="http://www.w3.org/2000/svg">
<path d="M2.83594 0.117134C1.53516 0.24604 1.21875 0.316353 0.914062 0.562447C0.5625 0.855415 0.398438 1.20698 0.398438 1.66401C0.398438 2.20307 0.621094 2.57807 1.07812 2.8476C1.44141 3.07026 1.57031 3.07026 3.48047 2.94135C8.47266 2.58979 13.8984 3.63276 17.625 5.6601C20.0625 6.98432 22.5938 9.19917 24.0352 11.2851C25.1484 12.8789 25.2656 13.9101 24.5273 15.457C24.0938 16.371 23.9648 17.5781 24.1875 18.6914C24.2695 19.0781 24.3633 20.6015 24.4102 22.0898C24.4805 24.5273 24.5156 24.8437 24.75 25.3593C24.8906 25.6874 25.9922 27.457 27.1758 29.2968C29.4727 32.8476 29.6016 33.1289 29.0977 33.5859C28.8984 33.7617 28.6055 33.8203 27.5859 33.8671C26.4492 33.914 26.2852 33.9609 26.0156 34.207C25.4531 34.7343 25.4297 35.0742 25.8281 36.7382C26.0273 37.5585 26.1562 38.3203 26.1211 38.4257C26.0859 38.5312 25.8984 38.7187 25.7109 38.8242C24.9727 39.2695 24.8203 40.0781 25.3125 41.0156C25.6758 41.7187 25.6406 42.0117 25.0664 42.7148C24.5156 43.3828 24.3516 43.8398 24.2461 44.9414C24.1289 46.2656 23.8125 47.039 23.0859 47.7656C21.9844 48.8554 20.5078 49.1484 18.7969 48.621C17.5312 48.2226 16.1602 48.2343 15.2812 48.6445C14.4023 49.0664 13.6406 49.7695 13.2539 50.5312C12.7617 51.4921 12.5859 52.6992 12.5859 55.0312C12.5859 56.6367 12.5508 57.0703 12.4336 57.0703C12.3516 57.0703 10.1016 56.3789 7.44141 55.5351C4.78125 54.7031 2.41406 53.9999 2.16797 53.9882C0.972656 53.9414 0.351562 55.3242 1.13672 56.2851C1.35938 56.5664 2.05078 56.8242 6.55078 58.2656C11.0625 59.707 11.8125 59.9062 12.5273 59.9179C13.418 59.9296 13.8984 59.7539 14.4961 59.1914C15.2695 58.4765 15.5156 57.4335 15.4336 55.2539C15.3633 53.6601 15.5391 52.2304 15.8438 51.7968C15.9609 51.6328 16.2539 51.4101 16.4883 51.2929C16.9219 51.082 16.9453 51.082 17.7188 51.3046C19.6055 51.8671 20.5898 51.9257 22.0195 51.5624C24.8438 50.8359 26.8477 48.4804 27.082 45.5976C27.1406 44.8359 27.1992 44.6484 27.5039 44.3085C28.1719 43.5351 28.3477 42.9609 28.3477 41.6015C28.3594 40.5351 28.3945 40.289 28.6406 39.7851C28.875 39.3046 28.9336 39.0234 28.9336 38.2617C28.9336 37.746 28.8984 37.1835 28.8516 37.0195C28.7695 36.7265 28.793 36.7031 29.2383 36.6328C30.3516 36.457 31.4531 35.5781 31.9453 34.5117C32.2969 33.7148 32.3086 32.4023 31.957 31.6171C31.8164 31.3124 30.7617 29.6015 29.6133 27.8085C28.4648 26.0156 27.457 24.3984 27.375 24.2226C27.2812 24.0117 27.2344 23.2265 27.2344 21.9374C27.2344 20.7187 27.1641 19.4765 27.0352 18.6328L26.8359 17.2734L27.3047 16.1718C27.7383 15.1054 27.7617 14.9999 27.7617 13.7695C27.7617 12.1523 27.5508 11.4609 26.6484 10.0898C25.0664 7.68745 22.8867 5.55463 20.4375 4.01948C17.3438 2.06245 14.2969 0.99604 9.94922 0.33979C8.21484 0.0702591 4.46484 -0.0469284 2.83594 0.117134Z" fill="#003C43" stroke="#003C43" stroke-width="0.2"/>
<path d="M49.1486 21.4805C48.9845 21.5626 45.7736 23.8946 42.0118 26.6719C37.8751 29.7071 35.0861 31.8399 34.9454 32.0508C34.3243 33.0821 35.3321 34.4297 36.4806 34.1016C36.879 33.9961 50.2853 24.211 50.8243 23.6602C51.2814 23.168 51.2814 22.3126 50.8126 21.7852C50.4259 21.3516 49.6407 21.211 49.1486 21.4805Z" fill="#CABBCE" stroke="#CABBCE" stroke-width="0.2"/>
<path d="M37.8754 38.8594C37.2426 39.1993 37.0083 40.1368 37.395 40.793C37.8168 41.4961 37.6645 41.4844 45.4223 41.4844C53.3793 41.4844 53.0981 41.5196 53.5317 40.629C53.7192 40.2422 53.7309 40.1016 53.6137 39.7266C53.5434 39.4805 53.3208 39.1407 53.1215 38.9766L52.7583 38.6719H45.4809C39.2583 38.6836 38.145 38.7071 37.8754 38.8594Z" fill="#CABBCE" stroke="#CABBCE" stroke-width="0.2"/>
<path d="M35.6146 46.0546C34.888 46.3475 34.5482 47.3202 34.9349 48.0233C35.2162 48.539 48.9037 58.7929 49.4427 58.8983C50.5912 59.1093 51.5169 57.7968 50.8841 56.8358C50.6146 56.4257 37.7122 46.6405 36.8216 46.1718C36.3646 45.9257 36.0013 45.8905 35.6146 46.0546Z" fill="#CABBCE" stroke="#CABBCE" stroke-width="0.2"/>
</svg>
