<svg width="80" height="80" viewBox="0 0 80 80" fill="none" xmlns="http://www.w3.org/2000/svg">
<path d="M13.5446 66.754L24.1913 66.7533L19.0147 61.3922L21.2043 58.9663L30.6667 68.478L21.4303 77.9039C21.0874 77.9637 18.9602 75.8156 19.0173 75.491L24.1939 70.1299H10.168V50.1299C10.7524 50.1948 13.5446 49.8832 13.5446 50.5195V66.7533V66.754Z" fill="#CABBCE"/>
<path d="M46.0098 10.1298H60.0358V30.1298H56.6592V13.5064H46.0098L51.1995 18.8311L48.7735 21.0207L39.5371 11.7844L48.7735 2.3584L51.1995 4.54801C51.1995 4.88827 47.2141 8.5334 46.3969 9.35061C46.1969 9.61294 46.1329 9.60006 45.5996 10.1298H46.0098Z" fill="#CABBCE"/>
<g clip-path="url(#clip0_0_2631)">
<path d="M66.879 48.2136C66.5131 53.1481 62.7722 57.1737 58.6655 57.1737C54.5589 57.1737 50.8115 53.1491 50.4521 48.2136C50.0788 43.0802 53.7189 39.2534 58.6655 39.2534C63.6123 39.2534 67.2523 43.1735 66.879 48.2136Z" stroke="#003C43" stroke-width="3.2" stroke-linecap="round" stroke-linejoin="round"/>
<path d="M58.6665 63.147C50.5464 63.147 42.305 67.627 40.7799 76.0831C40.596 77.1023 41.1728 78.0805 42.2397 78.0805H75.0934C76.1611 78.0805 76.7378 77.1023 76.5541 76.0831C75.0279 67.627 66.7865 63.147 58.6665 63.147Z" stroke="#003C43" stroke-width="3.2" stroke-miterlimit="10"/>
</g>
<g clip-path="url(#clip1_0_2631)">
<path d="M29.545 10.8803C29.1791 15.8148 25.4382 19.8404 21.3315 19.8404C17.2249 19.8404 13.4775 15.8158 13.1181 10.8803C12.7448 5.74692 16.3849 1.92017 21.3315 1.92017C26.2783 1.92017 29.9183 5.84025 29.545 10.8803Z" stroke="#003C43" stroke-width="3.2" stroke-linecap="round" stroke-linejoin="round"/>
<path d="M21.3325 25.8135C13.2124 25.8135 4.97102 30.2935 3.44595 38.7496C3.26204 39.7689 3.83884 40.747 4.90568 40.747H37.7594C38.8271 40.747 39.4038 39.7689 39.2201 38.7496C37.694 30.2935 29.4525 25.8135 21.3325 25.8135Z" stroke="#003C43" stroke-width="3.2" stroke-miterlimit="10"/>
</g>
<defs>
<clipPath id="clip0_0_2631">
<rect width="42.6667" height="42.6667" fill="white" transform="translate(37.334 37.3335)"/>
</clipPath>
<clipPath id="clip1_0_2631">
<rect width="42.6667" height="42.6667" fill="white"/>
</clipPath>
</defs>
</svg>
