<svg width="80" height="80" viewBox="0 0 80 80" fill="none" xmlns="http://www.w3.org/2000/svg">
<g clip-path="url(#clip0_0_2721)">
<path d="M7.28084 52.3589C4.0936 48.2181 2.5 46.1477 2.5 40C2.5 33.8523 4.0936 31.782 7.28084 27.6412C13.6449 19.3733 24.3179 10 40 10C55.6821 10 66.355 19.3733 72.7191 27.6412C75.9063 31.782 77.5 33.8523 77.5 40C77.5 46.1477 75.9063 48.2181 72.7191 52.3589C66.355 60.6265 55.6821 70 40 70C24.3179 70 13.6449 60.6265 7.28084 52.3589Z" stroke="#003C43" stroke-width="3.84"/>
<path d="M51.25 40C51.25 46.2134 46.2134 51.25 40 51.25C33.7866 51.25 28.75 46.2134 28.75 40C28.75 33.7866 33.7866 28.75 40 28.75C46.2134 28.75 51.25 33.7866 51.25 40Z" stroke="#CABBCE" stroke-width="3.84"/>
</g>
<defs>
<clipPath id="clip0_0_2721">
<rect width="80" height="80" fill="white"/>
</clipPath>
</defs>
</svg>
