<svg width="80" height="80" viewBox="0 0 80 80" fill="none" xmlns="http://www.w3.org/2000/svg">
<path d="M2.82547 42.8098C3.38957 49.8984 5.97666 56.6761 10.2794 62.3377C14.5821 67.9992 20.4196 72.3067 27.0983 74.7482C33.777 77.1898 41.0162 77.6629 47.9559 76.1112C54.8956 74.5596 61.244 71.0485 66.2469 65.995C71.2498 60.9416 74.6969 54.5582 76.1787 47.6033C77.6606 40.6484 77.1148 33.4143 74.6062 26.7604C72.0976 20.1066 67.7318 14.3127 62.0272 10.0671C56.3227 5.82149 49.5194 3.30265 42.4255 2.80981" stroke="#003C43" stroke-width="3.2" stroke-linecap="round" stroke-linejoin="round"/>
<path d="M23.915 46.0918C24.9469 48.7477 26.6246 51.1046 28.7963 52.9493C30.968 54.7939 33.5653 56.0681 36.3532 56.6567C39.1412 57.2452 42.0319 57.1296 44.7639 56.3202C47.4959 55.5108 49.9831 54.0332 52.0005 52.0209C54.0179 50.0087 55.5019 47.5253 56.3183 44.7954C57.1348 42.0655 57.2579 39.1751 56.6765 36.3857C56.0951 33.5962 54.8276 30.9957 52.9885 28.8193C51.1495 26.6428 48.7969 24.9591 46.1436 23.9203M39.8579 39.8632L25.5722 25.5775M25.5722 25.5775L14.1436 28.4346L2.71504 17.0061L14.1436 14.1489L17.0008 2.72034L28.4293 14.1489L25.5722 25.5775Z" stroke="#CABBCE" stroke-width="3.2" stroke-linecap="round" stroke-linejoin="round"/>
</svg>
