<svg width="30" height="30" viewBox="0 0 30 30" fill="none" xmlns="http://www.w3.org/2000/svg">
<path d="M1.11448 16.1057C1.32602 18.7639 2.29618 21.3056 3.9097 23.4287C5.52321 25.5517 7.71227 27.167 10.2168 28.0826C12.7213 28.9982 15.436 29.1756 18.0384 28.5937C20.6408 28.0119 23.0214 26.6952 24.8975 24.8002C26.7736 22.9051 28.0663 20.5114 28.622 17.9033C29.1776 15.2952 28.973 12.5824 28.0323 10.0872C27.0915 7.592 25.4543 5.41929 23.3151 3.82719C21.176 2.23509 18.6247 1.29052 15.9645 1.10571" stroke="#CABBCE" stroke-width="1.6" stroke-linecap="round" stroke-linejoin="round"/>
<path d="M9.02258 17.3358C9.40955 18.3318 10.0387 19.2156 10.8531 19.9074C11.6675 20.5991 12.6414 21.0769 13.6869 21.2977C14.7324 21.5184 15.8164 21.475 16.8409 21.1715C17.8654 20.868 18.7981 20.3138 19.5546 19.5593C20.3112 18.8047 20.8677 17.8734 21.1738 16.8497C21.48 15.826 21.5261 14.7421 21.3081 13.696C21.0901 12.65 20.6148 11.6748 19.9251 10.8586C19.2355 10.0425 18.3533 9.41106 17.3583 9.02153M15.0012 15.0001L9.64401 9.64296M9.64401 9.64296L5.3583 10.7144L1.07258 6.42868L5.3583 5.35725L6.42973 1.07153L10.7154 5.35725L9.64401 9.64296Z" stroke="#003C43" stroke-width="1.6" stroke-linecap="round" stroke-linejoin="round"/>
</svg>
