<svg width="32" height="32" viewBox="0 0 32 32" fill="none" xmlns="http://www.w3.org/2000/svg">
<g clip-path="url(#clip0_279_1097)">
<path d="M29.5073 30.38H23.9051V14.6937C23.9051 14.3965 24.0231 14.1115 24.2332 13.9014C24.4434 13.6913 24.7283 13.5732 25.0255 13.5732H28.3869C28.684 13.5732 28.969 13.6913 29.1791 13.9014C29.3893 14.1115 29.5073 14.3965 29.5073 14.6937V30.38ZM18.3028 30.38H12.7006V18.055C12.7006 17.7579 12.8186 17.4729 13.0287 17.2628C13.2389 17.0526 13.5239 16.9346 13.821 16.9346H17.1824C17.4795 16.9346 17.7645 17.0526 17.9746 17.2628C18.1848 17.4729 18.3028 17.7579 18.3028 18.055V30.38ZM7.09833 30.38H1.49609V21.4164C1.49609 21.1192 1.61414 20.8342 1.82427 20.6241C2.03439 20.414 2.31938 20.2959 2.61654 20.2959H5.97789C6.27505 20.2959 6.56004 20.414 6.77016 20.6241C6.98029 20.8342 7.09833 21.1192 7.09833 21.4164V30.38Z" stroke="#003C43" stroke-width="1.6" stroke-linecap="round" stroke-linejoin="round"/>
<path d="M0.639166 14.4502C0.231418 14.6203 0.0388152 15.0888 0.208974 15.4966C0.379133 15.9043 0.847619 16.0969 1.25537 15.9268L0.639166 14.4502ZM30.2602 3.56871C30.4282 3.16006 30.2331 2.6926 29.8245 2.5246L23.1653 -0.213116C22.7567 -0.381117 22.2892 -0.186038 22.1212 0.222603C21.9532 0.631245 22.1483 1.0987 22.5569 1.2667L28.4762 3.70023L26.0427 9.61952C25.8747 10.0282 26.0698 10.4956 26.4784 10.6636C26.887 10.8316 27.3545 10.6365 27.5225 10.2279L30.2602 3.56871ZM0.947266 15.1885L1.25537 15.9268L29.8284 4.00281L29.5203 3.26452L29.2122 2.52622L0.639166 14.4502L0.947266 15.1885Z" fill="#CABBCE"/>
</g>
<defs>
<clipPath id="clip0_279_1097">
<rect width="32" height="32" fill="white"/>
</clipPath>
</defs>
</svg>
