<svg width="80" height="80" viewBox="0 0 80 80" fill="none" xmlns="http://www.w3.org/2000/svg">
<path d="M10.0381 0.519531C10.4449 0.499483 10.7993 0.48549 11.1094 0.524414V0.525391C11.111 0.525664 11.1243 0.527349 11.1533 0.53418C11.1829 0.541141 11.2202 0.551125 11.2646 0.563477C11.3536 0.588212 11.4612 0.620818 11.5732 0.65625C11.797 0.727029 12.0265 0.805009 12.1406 0.845703V0.84668H12.1416C16.2739 2.30936 17.865 7.32286 15.2969 10.8857L15.0068 11.2881L15.4072 11.5811C17.6176 13.201 19.1824 15.6582 19.4043 18.3896C19.4383 18.8085 19.4683 19.5872 19.4619 20.3564C19.4553 21.1503 19.4094 21.8481 19.3203 22.1562C19.1377 22.7868 18.4601 23.3112 17.7832 23.3789C15.2871 23.2334 12.6833 23.3327 10.1182 23.4189C7.52661 23.506 4.97272 23.5799 2.5498 23.3887H2.54883C1.96081 23.3427 1.50663 23.1819 1.19043 22.9238C0.884744 22.6743 0.663043 22.2973 0.59668 21.7197C0.136209 17.6947 1.29597 13.9098 4.5918 11.5869L5.00195 11.2979L4.71191 10.8887C1.86867 6.87138 4.14009 1.59294 8.88379 0.532227C9.27065 0.55828 9.67723 0.537316 10.0381 0.519531ZM15.7285 19.1719C15.2347 11.7551 4.77357 11.7527 4.28223 19.1729L4.24707 19.7051H15.7637L15.7285 19.1719ZM11.8115 4.81738C11.2327 4.33416 10.4408 4.09932 9.49707 4.24805C7.76905 4.52081 7.08568 6.08104 7.25488 7.41309C7.34043 8.08644 7.64243 8.75155 8.17285 9.22754C8.71293 9.71212 9.4576 9.97035 10.3555 9.87012C11.2624 9.7688 11.9361 9.32805 12.3496 8.71289C12.7554 8.10904 12.8923 7.36672 12.7998 6.67188C12.7072 5.97647 12.3803 5.29225 11.8115 4.81738Z" fill="#003C43" stroke="white"/>
<path d="M71.1562 0.529785C75.8907 1.55188 78.1871 6.88926 75.3379 10.8882L75.0498 11.2915L75.4512 11.5825C77.6109 13.1515 78.9757 15.3739 79.4473 18.0093V22.0425C79.222 22.4882 79.0117 22.7875 78.7627 22.9907C78.5069 23.1993 78.1722 23.3409 77.6465 23.3901H77.6455C75.2411 23.6167 72.6525 23.5293 70.0176 23.4263C67.4152 23.3245 64.7656 23.2067 62.2686 23.3784C61.7595 23.3152 61.4245 23.1216 61.1895 22.8608C60.9395 22.5834 60.77 22.195 60.668 21.7124C60.4604 20.731 60.562 19.5368 60.6357 18.5347C60.8444 15.7093 62.3668 13.256 64.6426 11.5806L65.0381 11.2905L64.7539 10.8892C61.9078 6.86801 64.1843 1.58375 68.9365 0.529785H71.1562ZM75.7686 19.1724C75.2748 11.7555 64.8136 11.7532 64.3223 19.1733L64.2871 19.7056H75.8037L75.7686 19.1724ZM71.8535 4.81787C71.2747 4.33465 70.4828 4.09981 69.5391 4.24854C67.811 4.52127 67.1276 6.0815 67.2969 7.41357C67.3824 8.08696 67.6844 8.75204 68.2148 9.22803C68.7549 9.71262 69.4996 9.97087 70.3975 9.87061C71.3044 9.76929 71.9781 9.32853 72.3916 8.71338C72.7974 8.10956 72.9342 7.36718 72.8418 6.67236C72.7492 5.977 72.4223 5.29273 71.8535 4.81787Z" fill="#003C43" stroke="white"/>
<path d="M67.6123 56.968C73.8036 54.5748 79.0858 61.5167 75.3359 66.8586L75.0576 67.2551L75.4453 67.5461C77.0392 68.7416 78.3248 70.3033 78.9658 72.1672L79.4492 73.9905V78.011C79.2467 78.4085 79.0449 78.7087 78.8037 78.9241C78.5581 79.1434 78.2512 79.2941 77.8096 79.3479L62.0273 79.3137C61.6088 79.2297 61.3253 79.0343 61.1201 78.7688C60.8997 78.4837 60.7515 78.0943 60.6631 77.6233C60.4842 76.6695 60.5769 75.5464 60.6348 74.6526C60.8263 71.7284 62.2911 69.2809 64.6426 67.5491L65.0439 67.2542L64.75 66.8518C62.2608 63.4373 63.6763 58.4891 67.6123 56.968ZM75.7686 75.1389C75.2751 67.7217 64.8136 67.7186 64.3223 75.1389L64.2871 75.6721H75.8047L75.7686 75.1389ZM71.8398 60.7913C71.2692 60.3033 70.4835 60.0675 69.54 60.2161C67.812 60.4887 67.1278 62.0491 67.2969 63.3811C67.3824 64.0545 67.6843 64.7205 68.2148 65.1965C68.755 65.6811 69.5005 65.9394 70.3984 65.8391C71.2807 65.74 71.9368 65.2944 72.3408 64.6829C72.7371 64.0829 72.8777 63.3446 72.7949 62.6516C72.712 61.9579 72.3998 61.2702 71.8398 60.7913Z" fill="#003C43" stroke="white"/>
<path d="M36.7109 18.7661C38.407 18.6186 41.6444 18.6187 43.3408 18.7661C43.9577 18.82 44.5794 18.9882 44.9336 19.3179V19.3169C45.1262 19.4979 45.2878 19.8029 45.4082 20.2427C45.5274 20.6781 45.5929 21.1975 45.6309 21.7544C45.6688 22.3104 45.6779 22.8804 45.6895 23.4224C45.7008 23.9533 45.715 24.4709 45.7686 24.8833L45.8701 25.6685L46.5352 25.2388C47.0246 24.9226 47.5037 24.4738 47.958 24.0347C48.4254 23.5829 48.8725 23.1352 49.3379 22.7593C49.8028 22.3838 50.245 22.1147 50.6797 21.9995C51.0953 21.8894 51.5269 21.9135 52.0078 22.1685C52.056 22.1941 52.1808 22.2833 52.3916 22.4585C52.5908 22.624 52.8387 22.8419 53.1191 23.0991C53.6797 23.6131 54.3604 24.2703 55.0312 24.9409C55.702 25.6114 56.3589 26.2918 56.873 26.8521C57.1304 27.1325 57.3491 27.3804 57.5146 27.5796C57.6901 27.7907 57.7793 27.9155 57.8047 27.9634C58.0598 28.4438 58.0833 28.8753 57.9727 29.2915C57.8569 29.7269 57.5873 30.17 57.2109 30.6353C56.8341 31.1011 56.3854 31.5485 55.9336 32.0151C55.4946 32.4686 55.0467 32.9468 54.7324 33.4341L54.3076 34.0923L55.083 34.1997C55.7371 34.2905 56.4697 34.2914 57.1592 34.2983C57.8662 34.3055 58.5372 34.3188 59.1357 34.4194C59.7332 34.5199 60.2057 34.6997 60.5449 35.0005C60.8311 35.2543 61.0614 35.6293 61.166 36.2202L61.2031 36.4868C61.2817 37.2577 61.3287 38.6737 61.3271 40.0981C61.3256 41.5281 61.2745 42.9167 61.166 43.646V43.647C61.0702 44.2942 60.8085 44.6883 60.4658 44.9507C60.1061 45.2259 59.6123 45.3895 59.0059 45.48C58.4007 45.5703 57.7336 45.5816 57.0488 45.5884C56.3812 45.595 55.6832 45.5972 55.0811 45.6831L54.3076 45.7935L54.7324 46.4497C55.0486 46.9386 55.4972 47.4175 55.9365 47.8716C56.3885 48.3388 56.8367 48.7861 57.2129 49.2515C57.5886 49.7164 57.8574 50.1587 57.9727 50.5933C58.0828 51.0087 58.0595 51.4393 57.8047 51.9194C57.7791 51.9674 57.6916 52.0909 57.5195 52.2983C57.3566 52.4947 57.1416 52.7388 56.8887 53.0151C56.3833 53.5672 55.7376 54.2375 55.0781 54.8989C54.4188 55.5602 53.7487 56.2084 53.1963 56.7183C52.9198 56.9734 52.676 57.1919 52.4785 57.3579C52.2707 57.5326 52.1424 57.6248 52.0889 57.6548V57.6558C51.5739 57.9448 51.1258 57.9824 50.709 57.8853C50.2729 57.7835 49.8334 57.5245 49.3701 57.1528C48.9057 56.7802 48.46 56.3312 47.9883 55.8726C47.5297 55.4267 47.0418 54.9686 46.5342 54.6421L45.877 54.2183L45.7686 54.9937C45.6778 55.6471 45.6769 56.3788 45.6699 57.0679C45.6627 57.7744 45.6495 58.4452 45.5488 59.0435C45.4483 59.6406 45.2687 60.1135 44.9678 60.4526C44.6774 60.7798 44.2282 61.0341 43.4795 61.1108C42.7085 61.1894 41.2923 61.2374 39.8672 61.2358C38.4365 61.2343 37.0468 61.1832 36.3164 61.0747H36.3154C35.7437 60.9899 35.3273 60.6532 35.0107 60.1294C34.6866 59.5927 34.4867 58.8851 34.373 58.1489C34.2604 57.4192 34.2375 56.6967 34.2432 56.1528C34.246 55.882 34.2555 55.6579 34.2646 55.5024C34.2692 55.4248 34.2742 55.364 34.2773 55.3237C34.2789 55.3038 34.2794 55.2885 34.2803 55.2788C34.2807 55.274 34.2811 55.2702 34.2812 55.2681L34.2822 55.2661L34.3906 54.1313L33.4824 54.8198C33.0595 55.1402 32.6015 55.569 32.1484 55.9829C31.685 56.4064 31.2142 56.8272 30.7314 57.1724C29.8104 57.8309 28.9855 58.1199 28.1963 57.7886L28.0381 57.7144L27.9092 57.6274C27.8464 57.581 27.7633 57.5155 27.6592 57.4292C27.4629 57.2666 27.2195 57.0519 26.9434 56.7993C26.3912 56.2943 25.7202 55.6491 25.0586 54.9897C24.397 54.3305 23.7483 53.6604 23.2383 53.1079C22.983 52.8314 22.7647 52.5876 22.5986 52.3901C22.424 52.1825 22.3308 52.055 22.3008 52.0015V52.0005C22.0728 51.5945 22.064 51.0862 22.251 50.4829C22.4381 49.8795 22.8038 49.2422 23.2285 48.647C23.6504 48.0559 24.1138 47.5291 24.4736 47.1489C24.6529 46.9595 24.8053 46.8074 24.9121 46.7036C24.9654 46.6518 25.008 46.6119 25.0361 46.5854C25.05 46.5724 25.0606 46.5625 25.0674 46.5562C25.0708 46.553 25.0737 46.5507 25.0752 46.5493L25.0762 46.5483L25.0771 46.5474L25.8643 45.8306L24.8096 45.6831C24.1615 45.5923 23.4417 45.5893 22.7676 45.5796C22.0761 45.5697 21.4243 45.553 20.8447 45.4507C20.2669 45.3487 19.8122 45.1691 19.4854 44.8716C19.2087 44.6197 18.9845 44.2473 18.8818 43.6606L18.8457 43.396C18.7671 42.6251 18.7192 41.2099 18.7207 39.7856C18.7223 38.3555 18.7733 36.9662 18.8818 36.2368C18.9788 35.5824 19.2296 35.1486 19.5586 34.8423C19.8963 34.5279 20.3511 34.3159 20.9023 34.1714C21.4544 34.0267 22.0708 33.9576 22.71 33.9048C23.3324 33.8534 23.9982 33.8165 24.5781 33.7329L25.417 33.6118L24.9053 32.936C24.581 32.5076 24.1645 32.0765 23.7705 31.6636C23.3668 31.2405 22.9786 30.8286 22.665 30.4058C22.3514 29.9828 22.1361 29.5799 22.0527 29.1851C21.9726 28.8053 22.009 28.4074 22.2441 27.9644C22.2696 27.9165 22.3577 27.7906 22.5332 27.5796C22.6988 27.3805 22.9175 27.1334 23.1748 26.853C23.689 26.2928 24.3467 25.6126 25.0176 24.9419C25.6884 24.2712 26.3692 23.6142 26.9297 23.1001C27.2101 22.8429 27.457 22.624 27.6562 22.4585C27.7619 22.3707 27.8465 22.3046 27.9102 22.2573L28.041 22.1685C28.4875 21.9315 28.8888 21.8954 29.2705 21.9761C29.6672 22.06 30.0709 22.2767 30.4941 22.5913C30.9174 22.9059 31.3293 23.294 31.751 23.6978C32.1619 24.0912 32.5899 24.5068 33.0146 24.8286V24.8296C33.0142 24.8292 33.0199 24.833 33.0479 24.8638C33.0665 24.8843 33.1239 24.9495 33.1904 25.0044C33.2683 25.0685 33.3753 25.1349 33.5176 25.1646C33.6558 25.1934 33.7901 25.1806 33.9121 25.1489L34.2354 25.0649L34.2812 24.7339C34.3772 24.0487 34.3805 23.3085 34.3896 22.6235C34.399 21.9213 34.4143 21.2734 34.5205 20.7036C34.6259 20.1383 34.8122 19.7009 35.123 19.3872C35.4279 19.0797 35.9074 18.8363 36.7109 18.7661ZM57.3652 38.1099L56.9463 38.0405C56.1289 37.9052 55.2708 37.8759 54.4551 37.8462C53.7298 37.8198 53.037 37.793 52.3848 37.7026L52.1074 37.6597C51.5094 37.5565 51.0055 37.2135 50.7236 36.6929C50.6801 36.612 50.484 36.1638 50.2812 35.6782C50.1832 35.4434 50.0882 35.2106 50.0156 35.0269C49.9793 34.9348 49.9491 34.8569 49.9277 34.7983C49.9018 34.7273 49.8988 34.7137 49.9023 34.73C49.7107 33.8025 50.1549 32.9506 50.9268 32.0425C51.3093 31.5925 51.7431 31.1627 52.1777 30.7183C52.603 30.2835 53.0315 29.8321 53.3604 29.3726L53.4268 29.2808L53.4463 29.1694C53.4666 29.0551 53.4436 28.9624 53.4326 28.9243C53.4192 28.878 53.4012 28.8393 53.3887 28.814C53.3634 28.7631 53.3326 28.716 53.3066 28.6782C53.2528 28.6 53.1813 28.5096 53.1045 28.4175C52.9485 28.2306 52.7404 27.9996 52.5283 27.7739C52.3155 27.5475 52.0938 27.3204 51.9092 27.1382C51.7416 26.9728 51.5641 26.8031 51.4609 26.7319L51.459 26.731L51.3936 26.6802C51.3629 26.6559 51.2919 26.5991 51.1992 26.5581C51.0915 26.5105 50.9559 26.484 50.8047 26.5142C50.6697 26.5411 50.5608 26.6051 50.4785 26.6694C50.1607 26.9131 49.7969 27.2557 49.4248 27.6138C49.045 27.9793 48.6497 28.3689 48.2441 28.7368C47.8385 29.1048 47.4392 29.4359 47.0645 29.6812C46.7296 29.9003 46.4485 30.0273 46.2236 30.0718L46.1309 30.0864C45.8407 30.1157 45.2923 30.0118 44.6709 29.8149C44.0682 29.624 43.4938 29.3769 43.1816 29.1938H43.1807C42.6567 28.8871 42.4082 28.416 42.2803 27.7642L42.2324 27.4741C42.2281 27.4422 42.2244 27.353 42.2295 27.186C42.2343 27.0297 42.2456 26.8358 42.2588 26.6128C42.285 26.1719 42.3206 25.6254 42.335 25.0991C42.3491 24.5793 42.3436 24.0437 42.2773 23.6274C42.245 23.4241 42.1919 23.2039 42.0908 23.022C41.9862 22.8339 41.7739 22.6001 41.4238 22.6001V22.6021H38.6221C38.2244 22.6021 38.0589 22.9406 38.0107 23.0601C37.9473 23.2175 37.914 23.4066 37.8936 23.5845C37.8515 23.9504 37.8449 24.4387 37.8447 24.9438C37.8444 25.8644 37.8644 26.8571 37.7871 27.5698L37.748 27.8569C37.6578 28.3806 37.3832 28.832 36.9668 29.1255L36.7803 29.2417C36.6982 29.2857 36.2505 29.481 35.7656 29.6831C35.5306 29.781 35.2978 29.8755 35.1143 29.9478C35.0224 29.9839 34.9449 30.0135 34.8867 30.0347C34.8146 30.0609 34.803 30.0621 34.8223 30.0581L34.8213 30.0591C33.8924 30.2526 33.0387 29.8083 32.1289 29.0356C31.6787 28.6533 31.2483 28.22 30.8037 27.7856C30.3687 27.3607 29.9176 26.9323 29.458 26.604L29.3662 26.5376L29.2549 26.5181C29.1402 26.4976 29.0476 26.5218 29.0098 26.5327C28.9636 26.5461 28.9257 26.5631 28.9004 26.5757C28.8494 26.601 28.8015 26.6317 28.7637 26.6577C28.6854 26.7116 28.595 26.783 28.5029 26.8599C28.3161 27.0158 28.0859 27.2241 27.8604 27.436C27.6338 27.6489 27.4059 27.8705 27.2236 28.0552C27.0584 28.2227 26.8897 28.4002 26.8184 28.5034L26.8164 28.5063C26.8065 28.5208 26.8009 28.5263 26.7656 28.5708C26.7413 28.6015 26.6845 28.6724 26.6436 28.7651C26.5959 28.8729 26.5694 29.0084 26.5996 29.1597C26.6265 29.2946 26.6916 29.4026 26.7559 29.4849V29.4858C26.9995 29.8037 27.3412 30.1677 27.6992 30.5396C28.065 30.9194 28.455 31.3147 28.8232 31.7202C29.1912 32.1254 29.5221 32.5235 29.7676 32.8979C30.0184 33.2806 30.1495 33.5937 30.1738 33.8325C30.203 34.1216 30.0993 34.6697 29.9023 35.2915C29.7114 35.8942 29.4652 36.4687 29.2822 36.7808C28.9269 37.3861 28.3727 37.6095 27.5557 37.731C26.8755 37.8308 26.1575 37.848 25.3975 37.8696C24.6496 37.8909 23.8627 37.9169 23.1025 38.0454L22.6855 38.1157V41.7378L23.0674 41.8306C23.8925 42.0306 25.0337 42.0147 26.0293 42.0347C26.5454 42.045 27.0372 42.0641 27.4766 42.1177C27.9204 42.1719 28.2769 42.2581 28.5361 42.3843C28.6817 42.4553 28.8774 42.6317 29.0947 42.9351C29.305 43.2286 29.5066 43.5993 29.6787 43.9976C29.8504 44.3949 29.9878 44.8073 30.0752 45.1782C30.1644 45.557 30.1925 45.8582 30.1738 46.0474C30.1484 46.2918 30.0973 46.4846 30.0049 46.6548L26.7754 50.3696L26.7686 50.3765L26.7627 50.3843C26.6959 50.4674 26.6275 50.5787 26.5996 50.7183C26.5694 50.8696 26.5965 51.0048 26.6436 51.1118C26.6841 51.204 26.74 51.2749 26.7646 51.3062C26.8002 51.3513 26.806 51.3573 26.8164 51.3726L26.8184 51.3755C26.8897 51.4787 27.0585 51.6554 27.2236 51.8228C27.4059 52.0075 27.6337 52.2299 27.8604 52.4429C28.0859 52.6548 28.3161 52.8631 28.5029 53.019C28.595 53.0959 28.6854 53.1674 28.7637 53.2212C28.8015 53.2472 28.8494 53.2779 28.9004 53.3032C28.9257 53.3158 28.9636 53.3328 29.0098 53.3462C29.0476 53.3571 29.1402 53.3813 29.2549 53.3608L29.3662 53.3403L29.458 53.2749C29.9177 52.9461 30.3687 52.5166 30.8037 52.0913C31.2482 51.6568 31.6788 51.2236 32.1289 50.8413C33.0387 50.0686 33.8924 49.6253 34.8213 49.8198H34.8223C34.8033 49.8159 34.8148 49.8181 34.8867 49.8442C34.9449 49.8654 35.0225 49.895 35.1143 49.9312C35.2978 50.0034 35.5307 50.0979 35.7656 50.1958C36.0084 50.297 36.2419 50.3964 36.4248 50.4761L36.7803 50.6372C37.2363 50.8838 37.5563 51.3009 37.6982 51.8022L37.748 52.022C37.8746 52.7537 37.9047 53.54 37.9346 54.3687C37.964 55.184 37.9935 56.0422 38.1289 56.8589L38.1982 57.2769H41.8525L41.9219 56.8589C42.0572 56.0415 42.0865 55.1831 42.1162 54.3677C42.1464 53.539 42.1771 52.753 42.3027 52.022C42.4059 51.4236 42.7484 50.9181 43.2695 50.6362C43.3514 50.5923 43.7999 50.398 44.2852 50.1958C44.5203 50.0978 44.7529 50.0034 44.9365 49.9312C45.0285 49.895 45.1058 49.8654 45.1641 49.8442C45.2364 49.818 45.247 49.8158 45.2275 49.8198H45.2285C46.1576 49.6261 47.0109 50.0705 47.9209 50.8433C48.3712 51.2257 48.8024 51.6588 49.2471 52.0933C49.6821 52.5182 50.1331 52.9467 50.5928 53.2749L50.6846 53.3403L50.7959 53.3608C50.9104 53.3811 51.0033 53.3571 51.041 53.3462C51.0871 53.3328 51.1252 53.3157 51.1504 53.3032C51.2014 53.2779 51.2493 53.2472 51.2871 53.2212C51.3653 53.1674 51.4558 53.0959 51.5479 53.019C51.7347 52.8631 51.9649 52.6548 52.1904 52.4429C52.417 52.2299 52.6449 52.0075 52.8271 51.8228C52.9923 51.6553 53.1612 51.4786 53.2324 51.3755L53.2334 51.3726C53.2434 51.3579 53.2497 51.3529 53.2852 51.3081C53.3095 51.2774 53.3653 51.2062 53.4062 51.1138C53.4538 51.0061 53.4813 50.8704 53.4512 50.7192C53.4242 50.5839 53.3584 50.4754 53.2939 50.3931H53.2949C53.0512 50.0751 52.7087 49.7113 52.3506 49.3394C51.985 48.9596 51.5957 48.5641 51.2275 48.1587C50.8594 47.7533 50.5278 47.3546 50.2822 46.98C50.0629 46.6453 49.9354 46.3642 49.8906 46.1392L49.876 46.0464C49.8468 45.7573 49.9514 45.2093 50.1484 44.5874C50.2917 44.1352 50.4656 43.6989 50.6211 43.3774L50.7686 43.0981C51.1211 42.4986 51.686 42.2582 52.4873 42.1479L52.4883 42.1489C53.169 42.0564 53.8905 42.0396 54.6533 42.0161C55.404 41.993 56.1917 41.963 56.9492 41.8335L57.3652 41.7622V38.1099Z" fill="#CABBCE" stroke="white"/>
<path d="M9.01855 56.5322C14.8058 55.7434 18.6469 62.1357 15.2939 66.8564L15.0088 67.2588L15.4062 67.5498C17.6162 69.1674 19.1814 71.6287 19.4033 74.3584C19.4373 74.778 19.4669 75.5226 19.4648 76.2607C19.463 76.9224 19.4353 77.5285 19.377 77.8916L19.3506 78.0322C19.1858 78.7458 18.5538 79.214 17.7627 79.3379L17.6025 79.3574C15.1981 79.584 12.6096 79.4976 9.97461 79.3945C7.37222 79.2928 4.7226 79.175 2.22559 79.3467C1.71634 79.2835 1.38154 79.089 1.14648 78.8281C0.896666 78.5508 0.727073 78.1631 0.625 77.6807C0.417379 76.6991 0.519049 75.5042 0.592773 74.502C0.801568 71.6768 2.32395 69.2242 4.59961 67.5488L5.00391 67.251L4.7041 66.8477C1.82944 62.9857 4.24441 57.1826 9.01855 56.5322ZM15.7275 75.1387C15.2341 67.7215 4.77265 67.7184 4.28125 75.1387L4.24609 75.6719H15.7627L15.7275 75.1387ZM11.7969 60.792C11.2262 60.3038 10.44 60.0681 9.49609 60.2168C7.76802 60.4896 7.08467 62.0498 7.25391 63.3818C7.33953 64.0551 7.64146 64.7204 8.17188 65.1963C8.71195 65.6808 9.45667 65.9391 10.3545 65.8389H10.3555C11.2375 65.7397 11.8929 65.2941 12.2969 64.6826C12.6933 64.0825 12.8348 63.3445 12.752 62.6514C12.669 61.9577 12.3567 61.271 11.7969 60.792Z" fill="#003C43" stroke="white"/>
<path d="M37.5312 3.53589C43.3025 3.17861 49.4823 4.18526 54.7412 6.54077V6.53979C55.1829 6.73788 55.8479 7.02765 56.4619 7.36011C56.7684 7.52604 57.051 7.69691 57.2793 7.86499C57.4562 7.99522 57.5799 8.10957 57.6582 8.20288L57.7217 8.28979C58.1675 9.0145 58.1257 9.73383 57.8076 10.2693C57.5006 10.786 56.9111 11.1715 56.1396 11.2126C46.0187 5.99184 34.2539 5.80877 24.1279 11.1746C22.2097 11.439 21.1853 8.94095 22.7979 7.79175C24.343 6.69118 27.0237 5.68474 29.8594 4.92065C32.6819 4.16012 35.5855 3.65822 37.5322 3.53687L37.5312 3.53589Z" fill="#003C43" stroke="white"/>
<path d="M52.9619 70.1221C53.4445 70.019 53.8571 70.0092 54.1992 70.1172C54.5237 70.2197 54.8333 70.4427 55.0947 70.9092C55.3919 71.44 55.4025 71.9538 55.2305 72.4023C55.054 72.8621 54.6723 73.2836 54.1426 73.5713C51.7259 74.8808 48.2968 75.6967 44.7529 76.0859C41.2167 76.4743 37.6187 76.4325 34.8936 76.0596C33.9369 75.929 31.7695 75.4888 29.6875 74.915C28.6479 74.6285 27.6419 74.3119 26.8252 73.9883C26.4167 73.8264 26.063 73.6663 25.7803 73.5107C25.4911 73.3516 25.3045 73.2128 25.2041 73.1045C24.8193 72.6891 24.6852 71.9974 24.8398 71.335C24.9948 70.6718 25.3969 70.1973 25.9023 70.082L25.9014 70.0811C26.1619 70.0223 26.5245 70.0344 26.9834 70.1201C27.4366 70.2049 27.9425 70.3536 28.4688 70.5303C28.9951 70.707 29.5237 70.9056 30.0332 71.0918C30.535 71.2751 31.0237 71.4478 31.4414 71.5586C37.7049 73.2212 43.7802 73.0206 49.957 71.1729H49.958C50.4245 71.0331 50.9541 70.8114 51.4551 70.6143C51.9726 70.4106 52.4803 70.225 52.9619 70.1221Z" fill="#003C43" stroke="white"/>
<path d="M6.08594 29.0857C7.24165 28.8457 8.46214 29.727 8.49707 30.8406C8.50257 31.0194 8.46886 31.3012 8.39844 31.6726C8.32965 32.0354 8.23249 32.4504 8.12695 32.8826C7.94647 33.6216 7.73563 34.432 7.62598 35.0466L7.58496 35.2976C7.21334 37.9497 7.12596 40.6636 7.40137 43.3416C7.49364 44.2372 7.83409 45.6216 8.10449 46.8787C8.2426 47.5207 8.36553 48.1394 8.43945 48.6775C8.51506 49.2279 8.53173 49.6442 8.4873 49.9041V49.905C8.35711 50.6691 7.69858 51.1519 6.90137 51.2029C6.11544 51.2531 5.29295 50.8674 4.92383 49.9675C4.05946 47.8625 3.64799 44.7041 3.5791 41.4597C3.51044 38.2261 3.78317 34.9729 4.24902 32.7078V32.7068C4.39395 31.9996 4.53263 31.1443 4.8291 30.407C5.10768 29.7143 5.47221 29.2614 5.98242 29.1111L6.08594 29.0857Z" fill="#003C43" stroke="white"/>
<path d="M72.9883 29.0859C73.5598 28.9697 73.9606 29.0416 74.2559 29.1943C74.557 29.3502 74.8051 29.6193 75.0137 29.9961C75.4457 30.7765 75.6289 31.8497 75.8262 32.8359C76.8023 37.7023 76.814 44.9666 75.2217 49.6357C74.7695 50.9628 73.7497 51.3848 72.9502 51.2217C72.1665 51.0617 71.4094 50.2977 71.5732 48.8193C71.6618 48.0234 71.8684 47.1706 72.0869 46.2607C72.3022 45.3644 72.5281 44.4165 72.6279 43.4814C73.0912 39.1582 72.5852 34.9468 71.5557 30.7861C71.5831 30.4868 71.7524 30.1031 72.0381 29.7549C72.3419 29.3845 72.7004 29.145 72.9844 29.0859H72.9883Z" fill="#003C43" stroke="white"/>
<path d="M39.1152 33.4634C41.3798 33.1903 43.1059 33.8244 44.3105 34.9048C45.5248 35.9939 46.2447 37.5689 46.4209 39.2251C46.5971 40.8818 46.2249 42.5842 45.3018 43.9165C44.3861 45.2379 42.9115 46.2219 40.8135 46.437C38.7118 46.6524 37.0695 46.0061 35.8984 44.9224C34.7178 43.8296 33.9921 42.2678 33.7881 40.6313C33.5841 38.9948 33.9063 37.3198 34.7754 36.0024C35.6369 34.6968 37.0541 33.7119 39.1152 33.4634ZM39.9199 37.0874C39.2035 37.14 38.5448 37.4833 38.0566 37.9712C37.5684 38.4591 37.2246 39.118 37.1719 39.8345C37.1183 40.5643 37.3703 41.317 38.0078 41.9546C38.6455 42.5923 39.3988 42.844 40.1289 42.7905C40.8453 42.738 41.504 42.3946 41.9922 41.9067C42.4803 41.4189 42.8242 40.7607 42.877 40.0444C42.9306 39.3146 42.6784 38.5619 42.041 37.9243C41.4034 37.2867 40.65 37.034 39.9199 37.0874Z" fill="#CABBCE" stroke="white"/>
</svg>
