<svg width="88" height="80" viewBox="0 0 88 80" fill="none" xmlns="http://www.w3.org/2000/svg">
<path d="M63.7197 14.5C66.5299 14.5 69.2847 14.755 71.9844 15.2637C74.3436 15.7081 76.6323 16.3671 78.8506 17.2412L79.7969 17.6289C80.5678 17.9749 81.1384 18.4455 81.5322 19.0322C81.9315 19.6271 82.1289 20.2747 82.1289 20.9873V58.6064C82.1288 59.9294 81.5501 60.9182 80.333 61.6221C79.118 62.3243 77.959 62.3328 76.7852 61.665L76.749 61.6445L76.7109 61.6309L75.9277 61.3506C74.0974 60.7129 72.2379 60.1903 70.3496 59.7832C68.1795 59.3153 65.9692 59.0811 63.7197 59.0811C59.8511 59.0811 56.1319 59.6574 52.5654 60.8115C49.1128 61.9288 45.862 63.4604 42.8135 65.4043C39.7567 63.4061 36.4409 61.8601 32.8662 60.7686C29.1824 59.6437 25.4055 59.0811 21.5381 59.0811C19.2866 59.0811 17.0744 59.3293 14.9023 59.8252C12.7514 60.3163 10.6076 60.916 8.47168 61.625L8.45215 61.6318L8.19824 61.7334C7.02874 62.1635 5.92009 62.06 4.83105 61.4248C3.67183 60.7485 3.12896 59.8225 3.12891 58.6064V20.9873C3.12894 20.2671 3.31597 19.6147 3.68945 19.0186C4.05157 18.4407 4.60146 17.9739 5.37012 17.6289C7.8818 16.5599 10.4953 15.7717 13.2109 15.2637C15.9315 14.7549 18.707 14.5 21.5381 14.5C25.3156 14.5 28.9863 14.955 32.5508 15.8652C36.1102 16.7742 39.4435 18.1647 42.5527 20.0352L42.8135 20.1914L43.0723 20.0322C46.1204 18.1626 49.3927 16.7738 52.8906 15.8652C56.394 14.9553 60.0034 14.5 63.7197 14.5ZM62.6289 44.5625C64.1817 44.5625 65.7034 44.6697 67.1943 44.8828C68.5614 45.0783 69.9032 45.3192 71.2197 45.6035V48.0889C69.9555 47.6977 68.6794 47.396 67.3916 47.1846C65.8778 46.9361 64.29 46.8125 62.6289 46.8125C60.2904 46.8125 58.0409 47.0603 55.8809 47.5566C53.9832 47.9927 52.1564 48.6201 50.4014 49.4395V46.6094C52.2693 45.947 54.1764 45.4441 56.124 45.1035C58.1842 44.7433 60.3523 44.5625 62.6289 44.5625ZM62.6289 35.625C64.1817 35.625 65.7034 35.7322 67.1943 35.9453C68.5614 36.1408 69.9032 36.3817 71.2197 36.666V39.1514C69.9555 38.7602 68.6794 38.4585 67.3916 38.2471C65.8778 37.9986 64.29 37.875 62.6289 37.875C60.2884 37.875 58.0369 38.1367 55.875 38.6611C53.9798 39.1209 52.1549 39.7399 50.4014 40.5195V37.749C52.2704 37.0613 54.1783 36.5389 56.127 36.1855C58.1861 35.8122 60.3533 35.625 62.6289 35.625ZM62.6289 26.6875C64.1817 26.6875 65.7034 26.7947 67.1943 27.0078C68.5614 27.2033 69.9032 27.4442 71.2197 27.7285V30.2139C69.9555 29.8227 68.6794 29.521 67.3916 29.3096C65.8778 29.0611 64.29 28.9375 62.6289 28.9375C60.2884 28.9375 58.0369 29.1992 55.875 29.7236C53.9798 30.1834 52.1549 30.8024 50.4014 31.582V28.8115C52.2704 28.1238 54.1783 27.6014 56.127 27.248C58.1861 26.8747 60.3533 26.6875 62.6289 26.6875ZM40.583 23.71L40.3398 23.5645C37.5731 21.9159 34.5734 20.6395 31.3438 19.7344C28.1115 18.8285 24.8426 18.375 21.5381 18.375C19.1975 18.375 16.9021 18.6368 14.6523 19.1602C12.4237 19.6786 10.1801 20.3196 7.92285 21.083L7.58301 21.1973V57.5596L8.27051 57.2822C10.1062 56.5412 12.2034 55.9949 14.5654 55.6475C16.9364 55.2987 19.2606 55.125 21.5381 55.125C24.7497 55.125 27.8734 55.4598 30.9102 56.1289C33.9485 56.7982 36.9372 57.8025 39.876 59.1426L40.583 59.4648V23.71ZM77.6748 21.2324L77.3779 21.0996C75.2808 20.1624 73.0672 19.4745 70.7383 19.0342C68.4156 18.595 66.0759 18.375 63.7197 18.375C60.401 18.375 57.1872 18.8281 54.0801 19.7354C50.9791 20.6409 48.046 21.9177 45.2822 23.5645L45.0381 23.71V59.459L45.7422 59.1436C48.7464 57.8011 51.6859 56.7971 54.5605 56.1279C57.4291 55.4602 60.4816 55.125 63.7197 55.125C65.9993 55.125 68.3566 55.2861 70.791 55.6084C73.2265 55.9309 75.3038 56.3595 77.0273 56.8906L77.6748 57.0898V21.2324Z" fill="#003C43" stroke="white"/>
<path d="M62.6299 44.1621C64.201 44.1621 65.7418 44.2704 67.252 44.4863C68.7372 44.6987 70.1933 44.9636 71.6201 45.2803V48.6377C70.2036 48.1704 68.7726 47.8164 67.3271 47.5791C65.8367 47.3345 64.2709 47.2129 62.6299 47.2129C60.3197 47.2129 58.0997 47.457 55.9707 47.9463C53.894 48.4236 51.9051 49.1353 50.002 50.0781V46.3271C51.9757 45.6098 53.9933 45.0696 56.0557 44.709C58.1404 44.3444 60.3321 44.1621 62.6299 44.1621ZM62.6299 35.2246C64.201 35.2246 65.7418 35.3329 67.252 35.5488C68.7372 35.7612 70.1933 36.0261 71.6201 36.3428V39.7002C70.2036 39.2329 68.7726 38.8789 67.3271 38.6416C65.8367 38.397 64.2709 38.2754 62.6299 38.2754C60.3193 38.2754 58.0991 38.5332 55.9697 39.0498C53.8935 39.5535 51.9048 40.2527 50.002 41.1445V37.4688C51.9758 36.7247 53.9942 36.1659 56.0566 35.792C58.1412 35.414 60.3323 35.2246 62.6299 35.2246ZM62.6299 26.2871C64.201 26.2871 65.7418 26.3954 67.252 26.6113C68.7372 26.8237 70.1933 27.0886 71.6201 27.4053V30.7627C70.2036 30.2954 68.7726 29.9414 67.3271 29.7041C65.8367 29.4595 64.2709 29.3379 62.6299 29.3379C60.3193 29.3379 58.0991 29.5957 55.9697 30.1123C53.8935 30.616 51.9048 31.3152 50.002 32.207V28.5312C51.9758 27.7872 53.9942 27.2284 56.0566 26.8545C58.1412 26.4765 60.3323 26.2871 62.6299 26.2871Z" fill="#CABBCE" stroke="white" stroke-width="0.2"/>
</svg>
