<svg width="80" height="80" viewBox="0 0 80 80" fill="none" xmlns="http://www.w3.org/2000/svg">
<path d="M67.6793 9.51253V39.375C67.4939 41.4313 66.2356 43.1271 64.2522 43.7459C48.5252 44.2854 32.6835 43.8188 16.9147 43.9834C14.1814 43.7688 12.3731 41.9584 12.1585 39.2271L12.1647 9.51253C6.54182 10.1188 5.05432 2.33128 10.6772 1.2417L69.4606 1.26253C74.8002 2.75003 73.1293 10.0938 67.6793 9.51253ZM10.7147 3.61878C8.62516 4.54587 9.35641 7.21878 11.6127 7.17712H68.2314C70.6439 7.23962 71.2252 4.15212 68.8543 3.58128L10.7168 3.6167L10.7147 3.61878ZM65.3418 9.51253H14.5022V39.6875C14.5022 39.9354 15.0522 40.8584 15.2918 41.0813C15.9252 41.6688 16.7231 41.6729 17.5377 41.7979H62.1522C63.071 41.7188 64.1772 41.6313 64.7897 40.85C64.8897 40.7229 65.3418 39.7667 65.3418 39.6875V9.51253Z" fill="#003C43" stroke="#003C43" stroke-width="0.6"/>
<path d="M33.8083 64.9187C37.2187 64.6499 42.3458 64.6478 45.7687 64.8749C52.877 65.3437 54.2166 71.3291 53.4937 77.4312C53.4375 77.9124 53.25 78.227 52.8645 78.5166H26.9833C26.675 78.2791 26.4291 77.9687 26.3666 77.5749C26.1333 76.1041 26.2687 71.5437 26.7125 70.1395C27.7208 66.9499 30.5833 65.1749 33.8125 64.9187H33.8083ZM50.9937 76.2582V71.6582C50.9937 70.027 48.4708 67.6666 46.7916 67.5957C42.5625 67.702 37.9458 67.2166 33.7562 67.5187C31.9354 67.6499 30.2687 68.5645 29.4146 70.1937C29.2979 70.4166 28.85 71.4999 28.85 71.6562V76.2562H50.9937V76.2582Z" fill="#003C43" stroke="#003C43" stroke-width="0.6"/>
<path d="M62.348 67.1041C64.8751 66.8687 72.4418 66.7562 74.6272 67.5187C76.4834 68.1666 78.2564 70.2124 78.5605 72.1624C78.6668 72.8416 78.698 77.5312 78.5168 77.9687C78.4772 78.0645 78.0668 78.4749 77.9709 78.5145L57.4605 78.6041C56.7126 78.6082 56.3814 78.3103 56.2959 77.5853C55.7043 72.5916 56.4793 67.652 62.3501 67.102L62.348 67.1041ZM76.2584 76.2582V73.2166C76.2584 72.9457 75.8376 71.7582 75.6668 71.4687C75.0105 70.352 73.7147 69.6562 72.4439 69.5457C70.3105 69.3603 63.7064 69.2624 61.7793 69.652C60.3876 69.9332 58.6376 71.6041 58.6376 73.0603V76.2582H76.2584Z" fill="#003C43" stroke="#003C43" stroke-width="0.6"/>
<path d="M7.29695 67.1042C9.8657 66.8647 17.1678 66.7584 19.4199 67.5188C23.6532 68.948 23.9011 73.6334 23.5532 77.4355C23.5074 77.9397 23.4657 78.3292 22.9324 78.5292L1.87403 78.5167C1.63236 78.2959 1.3157 78.0834 1.25111 77.7376C1.08861 76.8813 1.15111 73.5626 1.2407 72.5876C1.53445 69.3751 4.26361 67.3876 7.29695 67.1042ZM21.0511 76.2584V72.9063C21.0511 71.1584 18.8469 69.6876 17.2365 69.548C14.8615 69.3438 9.26986 69.2834 6.9782 69.5938C5.86778 69.7438 4.87611 70.298 4.23445 71.2167C4.12195 71.3772 3.58445 72.3688 3.58445 72.4397V76.2605H21.0511V76.2584Z" fill="#003C43" stroke="#003C43" stroke-width="0.6"/>
<path d="M39.2674 46.8291C45.984 46.177 50.3194 54.2145 45.8528 59.4957C40.2528 66.1187 29.884 60.0562 32.5882 51.9999C33.5007 49.2791 36.4444 47.102 39.2674 46.827V46.8291ZM39.1049 49.3187C32.4444 50.2228 33.7028 60.5666 40.4528 59.8645C47.4236 59.1416 46.3486 48.3353 39.1049 49.3187Z" fill="#003C43" stroke="#003C43" stroke-width="0.6"/>
<path d="M11.9768 52.598C19.4497 52.0772 21.4893 63.2251 13.9997 65.2292C5.01636 67.6313 2.62886 53.2501 11.9768 52.598ZM11.3434 54.9292C6.67469 55.7167 7.49136 63.7417 12.9809 62.9605C18.1184 62.2272 17.3664 53.9147 11.3434 54.9292Z" fill="#003C43" stroke="#003C43" stroke-width="0.6"/>
<path d="M62.8991 63.4147C56.9491 57.2917 66.3158 48.373 72.1283 54.4188C77.9887 60.5126 68.7658 69.4522 62.8991 63.4147ZM66.547 54.9292C62.5158 55.6126 62.245 62.1459 66.7345 62.9313C72.972 64.023 73.347 53.7751 66.547 54.9292Z" fill="#003C43" stroke="#003C43" stroke-width="0.6"/>
<path d="M57.3865 20.5855L47.3344 30.4251C46.9386 30.6147 46.5865 30.4855 46.2365 30.2543C45.5781 29.8168 42.6156 26.3584 42.3386 26.3584L35.4844 33.073C35.2906 33.1501 35.099 33.223 34.8844 33.1897C34.1094 33.0668 30.9344 29.1918 30.0177 28.5418L22.7636 35.7876C21.4406 36.2626 20.3677 35.123 21.2073 33.9188C22.3573 32.2688 25.5636 29.6022 27.1365 27.998C27.9573 27.1605 29.2531 24.9188 30.649 25.7251L35.0073 30.0959C37.1031 28.2918 38.9823 25.7459 41.0865 24.0126C41.6365 23.5605 41.9823 23.2188 42.7677 23.4313C43.7219 23.6876 45.8365 26.5418 46.7844 27.223H47.0927L55.5136 18.7918C54.6386 18.598 52.7073 19.0084 52.4386 17.8188C52.2865 17.1501 52.4615 16.5043 53.1677 16.2897C53.7406 16.1147 57.9886 16.1147 58.7198 16.2126C59.3677 16.298 59.8136 16.9355 59.8844 17.5438C59.9719 18.2855 59.9698 22.7168 59.7636 23.2001C59.4136 24.0209 58.3219 24.0563 57.7656 23.4043C57.1448 22.6751 57.4594 21.4688 57.3844 20.5876L57.3865 20.5855Z" fill="#CABBCE" stroke="#CABBCE" stroke-width="0.6"/>
</svg>
